<svg width="500" height="500" viewBox="0 0 500 500" fill="none" xmlns="http://www.w3.org/2000/svg">
<circle cx="250" cy="250" r="226.5" fill="#FFECD5" fill-opacity="0.9" stroke="white" stroke-width="3"/>
<circle cx="250" cy="250" r="190.5" fill="#FFF7E3" fill-opacity="0.9" stroke="white" stroke-width="3"/>
<g clip-path="url(#clip0_21_23)">
<path fill-rule="evenodd" clip-rule="evenodd" d="M182.54 143.68C195.342 126.173 202.036 101.968 220.977 91.1904C238.838 80.991 262.036 87.0193 282.581 84.949L311.023 91.1904C306.797 98.1017 298.375 111.985 297.326 112.503C296.278 113.02 228.35 147.303 226.252 149.403C224.154 151.504 200.987 168.645 198.859 167.58C196.73 166.545 183.589 157.715 183.589 157.715L182.54 143.68Z" fill="#A32626"/>
<path fill-rule="evenodd" clip-rule="evenodd" d="M89.9948 280.352C77.6246 251.55 65.6246 204.876 68.401 178.023C71.6401 151.382 87.311 127.726 100.792 115.121C115.784 98.1321 119.794 91.8602 120.226 77.2765C120.997 56.1468 118.684 49.266 105.913 31.0896L143.116 20.129C150.889 28.8975 155.702 39.645 160.884 51.9148C163.846 62.1447 168.72 84.5227 166.715 94.7526C171.28 117.526 170.694 120.601 172.021 138.504C173.44 152.083 170.972 164.748 166.468 176.866L129.265 251.398L89.9948 280.352Z" fill="#EB3336"/>
<path fill-rule="evenodd" clip-rule="evenodd" d="M90.9511 309.489C79.8457 267.839 94.2828 230.573 118.715 205.364C131.085 190.384 140.895 183.138 163.907 176.866C175.877 174.461 184.668 166.88 193.522 154.397C216.442 123.463 240.319 99.0455 285.882 94.6613C324.195 95.7574 349.059 73.7448 364.607 68.8125C352.206 97.6146 370.807 124.042 373.676 128.7C317.779 155.188 338.015 188.527 327.311 219.095L356.123 217.451C373.522 234.957 382.776 258.188 378.303 296.367C371.023 341.397 359.116 384.661 344.37 426.829C338.848 442.296 329.748 458.615 316.946 471.219C292.699 490.461 271.352 492.136 240.195 485.468C203.517 472.224 174.057 447.654 148.452 416.934C118.961 380.307 104.494 351.962 90.9511 309.489Z" fill="#ED4042"/>
<path fill-rule="evenodd" clip-rule="evenodd" d="M142.745 19.581C145.738 22.5952 140 27.8319 129.974 31.2115C119.918 34.591 109.337 34.8955 106.344 31.8508C103.352 28.8062 109.09 23.5999 119.116 20.2204C129.172 16.8104 139.753 16.5364 142.745 19.581Z" fill="#A32626"/>
<path fill-rule="evenodd" clip-rule="evenodd" d="M152.062 47.3175C163.784 46.5563 170.386 43.7553 176.833 35.2913C176.308 46.191 181.121 57.0298 187.537 64.7631C176.308 66.1637 166.9 72.5574 160.761 80.5343C146.324 81.1736 138.057 52.3716 152.062 47.3175Z" fill="#ED4042"/>
<path fill-rule="evenodd" clip-rule="evenodd" d="M163.445 98.0712C169.707 85.4361 182.509 68.508 199.414 61.9012C216.35 54.5332 218.694 38.3054 216.226 19.1548C223.877 22.8996 244.977 22.717 254.108 16.3842C253.707 26.066 254.201 38.5794 263.856 38.3358C269.1 36.7831 273.789 30.6634 274.344 22.0167C279.65 27.0708 286.591 30.5416 297.203 28.1364C294.643 32.5815 295.907 42.1416 298.931 45.0949C301.398 50.4839 320.648 51.8844 329.347 61.0487C334.283 65.9201 331.969 82.1783 327.589 92.7431C319.198 89.8203 317.933 97.7972 308.71 96.6707C296.555 95.2397 284.771 89.2723 250.283 96.6403C220.144 104.008 198.272 119.84 193.923 156.863C187.013 172.847 175.352 179.484 160.452 179.789C167.239 175.344 170.416 161.582 165.604 151.9C156.257 133.115 156.195 114.116 163.445 98.0712Z" fill="#ED4042"/>
<path fill-rule="evenodd" clip-rule="evenodd" d="M312.257 13.4309C309.573 26.1879 303.805 42.5983 290.848 44.3033L317.594 62.4188C320.679 49.3878 327.527 38.8839 339.033 31.5464C325.799 31.1506 316.853 25.1527 312.257 13.4309Z" fill="#ED4042"/>
<path fill-rule="evenodd" clip-rule="evenodd" d="M253.429 15.5318C256.144 18.3328 250.128 21.5601 240.01 22.7779C229.923 23.9653 219.496 22.6866 216.781 19.8856C214.067 17.0845 220.082 13.8572 230.2 12.6394C240.319 11.452 250.715 12.7307 253.429 15.5318Z" fill="#A32626"/>
<path fill-rule="evenodd" clip-rule="evenodd" d="M297.326 26.8577C298.005 29.9327 293.378 31.5768 287.054 30.5112C280.73 29.4456 275.054 26.0661 274.375 22.991C273.697 19.9159 278.293 18.2718 284.648 19.3375C290.972 20.4335 296.648 23.7826 297.326 26.8577Z" fill="#A32626"/>
<path fill-rule="evenodd" clip-rule="evenodd" d="M384.781 172.147C398.17 172.238 408.905 177.262 415.784 189.471C407.609 192.211 401.625 196.808 398.509 203.811C393.604 195.316 383.702 202.106 376.607 200.797L384.781 172.147Z" fill="#FF5457"/>
<path fill-rule="evenodd" clip-rule="evenodd" d="M414.704 188.831C417.234 190.201 415.969 194.981 411.897 199.518C407.794 204.024 402.427 206.612 399.897 205.242C397.368 203.872 398.632 199.092 402.704 194.555C406.776 190.049 412.144 187.461 414.704 188.831Z" fill="#A32626"/>
<path fill-rule="evenodd" clip-rule="evenodd" d="M274.961 274.233C317.902 293.871 336.103 348.217 315.62 395.53C295.136 442.813 243.62 465.222 200.679 445.553C157.738 425.916 139.506 371.569 160.021 324.256C180.535 277.003 232.021 254.565 274.961 274.233Z" fill="#E8292E"/>
<path fill-rule="evenodd" clip-rule="evenodd" d="M139.167 338.444C129.08 288.299 123.434 243.421 162.828 205.759C172.452 197.508 164.524 184.386 147.064 194.981C104.154 226.341 91.383 274.385 111.033 341.458C112.36 349.1 120.195 354.732 126.92 353.423C136.267 351.597 139.969 342.463 139.167 338.444Z" fill="#FF4245"/>
<path fill-rule="evenodd" clip-rule="evenodd" d="M209.47 328.64C248.74 344.502 284.555 388.375 289.429 426.555C294.303 464.704 266.386 482.819 227.116 466.926C187.846 451.064 152.031 407.222 147.157 369.042C142.283 330.863 170.2 312.778 209.47 328.64Z" fill="#DE2629"/>
<path fill-rule="evenodd" clip-rule="evenodd" d="M252.689 184.234C243.712 203.75 254.355 224.453 265.553 237.697C285.635 259.192 326.972 263.607 347.085 238.793C354.612 228.137 354.766 224.636 354.889 213.98L298.468 211.757L252.689 184.234Z" fill="#D61417"/>
<path d="M289.059 241.868C287.887 243.634 286.653 245.065 284.987 246.405C281.193 249.48 276.195 250.698 271.352 250.393C270.612 250.393 269.902 250.333 269.193 250.363C267.99 250.393 266.787 250.515 265.584 250.759C265.059 250.85 264.535 250.972 264.01 251.124C263.763 251.185 263.517 251.246 263.27 251.337C263.054 251.398 262.838 251.459 262.622 251.55C262.19 251.672 261.697 251.855 261.265 252.038C260.123 252.555 258.951 253.103 257.871 253.803C257.594 253.986 257.316 254.138 257.069 254.351C256.915 254.473 256.73 254.565 256.576 254.686C256.422 254.778 256.298 254.899 256.113 254.991C255.681 255.234 255.249 255.478 254.787 255.721C253.584 256.361 252.288 256.878 250.992 257.274C248.709 258.005 246.242 258.309 243.866 258.096C240.751 257.822 237.697 256.665 235.044 255.052C234.674 254.839 234.55 254.382 234.766 254.047C234.951 253.682 235.414 253.56 235.784 253.773C237.234 254.534 238.745 255.295 240.35 255.691C241.429 255.935 242.632 256.178 243.743 256.178C244.082 256.178 244.422 256.178 244.73 256.178C245.254 256.148 245.81 256.087 246.303 255.996C246.859 255.935 247.414 255.782 247.938 255.6C250.252 254.899 252.411 253.651 254.324 252.19C254.293 252.22 254.231 252.251 254.2 252.281C254.756 251.794 255.28 251.307 255.866 250.85C257.933 249.236 260.401 247.806 262.9 247.014C263.671 246.77 264.442 246.527 265.183 246.375C265.553 246.283 265.923 246.222 266.262 246.161C266.571 246.101 266.879 246.07 267.188 246.009C267.527 245.979 267.866 245.948 268.175 245.918C269.594 245.766 270.951 245.796 272.37 245.796C273.141 245.796 273.943 245.735 274.745 245.644C277.028 245.37 279.249 244.609 281.162 243.36C281.779 242.965 282.303 242.508 282.828 242.051C283.753 241.29 284.463 240.316 285.172 239.372C285.882 238.367 287.301 238.093 288.319 238.793C289.522 239.433 289.769 240.833 289.059 241.868Z" fill="#C91214"/>
<path d="M265.83 250.18C264.627 251.002 263.486 251.855 262.499 252.951C259.692 255.965 258.612 259.405 258.242 263.424C258.242 263.363 258.242 263.303 258.242 263.211C258.334 264.581 258.273 265.89 257.995 267.2C256.792 272.741 251.825 276.303 247.198 279.043C246.951 279.195 246.643 279.104 246.488 278.891C246.365 278.678 246.427 278.373 246.643 278.221C247.352 277.764 248.062 277.308 248.74 276.79C251.393 274.872 253.861 272.376 254.972 269.27C255.404 268.052 255.62 266.743 255.589 265.464C255.589 264.977 255.558 264.52 255.496 264.003C255.465 263.82 255.434 263.637 255.434 263.424C255.434 263.272 255.434 263.089 255.434 262.907C255.434 262.42 255.465 261.932 255.496 261.445C255.835 257.426 257.316 253.682 260.185 250.759C260.833 250.089 261.512 249.51 262.221 248.962C262.869 248.475 263.517 248.079 264.195 247.653C264.905 247.197 265.83 247.379 266.293 248.079C266.725 248.81 266.509 249.754 265.83 250.18Z" fill="#CC191C"/>
<path d="M333.635 251.52L333.727 251.429C334.221 250.941 335.116 251.033 335.733 251.124L336.134 251.185C336.257 251.215 336.38 251.276 336.535 251.307C337.491 251.581 338.416 252.068 339.28 252.555C341.039 253.56 342.704 254.899 344.154 256.33C347.856 259.984 350.787 264.429 353.1 269.057C356.432 275.725 358.684 283.032 360.041 290.308C360.843 294.632 361.337 299.016 361.491 303.4C361.553 304.709 361.584 305.988 361.553 307.267C361.553 308.546 361.522 309.824 361.46 311.073C361.429 311.621 361.398 312.169 361.368 312.717C361.337 313.234 361.306 313.782 361.244 314.269C361.213 314.452 361.182 314.635 361.152 314.817C361.09 315.335 360.997 315.853 360.936 316.37C360.72 317.923 360.473 319.445 360.226 320.998C359.424 326.296 358.499 331.593 357.481 336.86C355.29 348.278 352.668 359.604 349.491 370.808C345.049 386.488 339.681 401.833 333.727 416.995C333.727 416.964 333.727 416.934 333.758 416.873C330.427 425.976 325.923 434.775 319.537 442.204C316.483 445.736 312.997 449.024 309.111 451.673C308.062 452.373 306.982 453.013 305.902 453.622C305.347 453.926 304.823 454.2 304.236 454.444C304.206 454.474 303.712 454.687 303.681 454.718C303.496 454.809 303.311 454.87 303.095 454.961C302.817 455.083 302.509 455.205 302.262 455.296C301.985 455.387 301.645 455.479 301.368 455.57C301.183 455.631 300.967 455.692 300.781 455.753C300.566 455.783 300.35 455.814 300.134 455.875C299.918 455.905 299.702 455.935 299.486 455.966C298.838 456.057 297.542 456.149 297.08 455.479C296.709 454.961 296.956 454.17 297.141 453.682L297.234 453.378C297.357 453.104 297.512 452.83 297.666 452.586L297.943 452.038C298.314 451.399 298.745 450.729 299.177 450.12C299.856 449.115 300.535 448.141 301.213 447.136C303.28 444.122 305.285 441.108 307.044 437.911C307.445 437.15 307.846 436.419 308.247 435.689C310.159 432.005 311.825 428.108 313.183 424.211C314.17 421.379 315.003 418.548 315.805 415.655C316.144 414.346 316.422 413.067 316.761 411.758C316.946 410.936 317.193 410.084 317.409 409.261C319.075 402.99 320.74 396.718 322.437 390.446C326.046 377.263 329.594 364.079 332.864 350.835C334.745 343.102 336.566 335.369 338.355 327.635C339.62 322.216 340.823 316.766 342.057 311.347C342.026 311.529 341.995 311.712 341.995 311.895C343.167 305.105 343.506 298.224 343.136 291.343C342.735 283.367 341.532 275.42 339.218 267.748C338.478 265.251 337.584 262.785 336.596 260.38C335.979 258.918 335.301 257.518 334.684 256.056C334.252 255.113 333.789 254.108 333.512 253.073C333.388 252.555 333.234 251.977 333.542 251.52H333.635Z" fill="#EB1417"/>
<path d="M324.843 236.601C325.121 237.332 325.46 238.063 325.676 238.824C325.892 239.555 326.108 240.316 326.262 241.046C326.386 241.625 326.509 242.264 326.571 242.843C326.602 243.086 326.632 243.33 326.663 243.573C326.787 244.852 326.817 246.253 326.725 247.531C326.694 247.897 326.663 248.293 326.632 248.688C326.602 248.932 326.571 249.206 326.54 249.45C326.478 250.089 326.355 250.789 326.231 251.398C325.861 253.164 325.398 254.869 324.751 256.574C324.596 257 324.411 257.426 324.257 257.853C324.041 258.431 323.856 259.01 323.671 259.558C323.362 260.532 323.146 261.537 322.931 262.541C322.869 262.846 322.838 263.15 322.807 263.455C322.622 264.581 322.56 265.738 322.56 266.895C322.56 269.209 322.931 271.432 323.548 273.685C323.825 274.598 324.164 275.511 324.473 276.425C324.566 276.668 324.442 276.942 324.195 277.064C323.949 277.156 323.64 277.034 323.548 276.79C320.709 269.97 319.661 262.785 322.098 255.661C322.098 255.691 322.098 255.721 322.067 255.752C322.159 255.295 322.314 254.869 322.406 254.443C322.622 253.621 322.807 252.768 322.961 251.946C323.517 248.962 323.702 245.766 323.301 242.751C323.116 241.351 322.807 240.072 322.375 238.732C322.252 238.367 322.128 238.002 321.974 237.667C321.697 236.906 322.067 236.053 322.869 235.749C323.671 235.444 324.535 235.84 324.843 236.601Z" fill="#CC1719"/>
<path d="M332.617 223.053C332.956 223.753 333.388 224.575 333.974 225.093C335.702 226.645 338.602 226.524 340.792 226.371C341.625 226.31 342.458 226.25 343.291 226.28C345.265 226.31 347.486 226.706 348.936 228.168C349.306 228.533 349.553 228.868 349.8 229.294C350.293 230.086 350.509 231.182 350.54 232.095C350.54 232.278 350.54 232.521 350.54 232.704C350.54 232.856 350.509 233.039 350.54 233.222C350.54 233.374 350.478 233.587 350.447 233.739C350.416 233.922 350.386 234.105 350.355 234.318C350.262 234.927 350.231 235.718 350.355 236.327C350.509 237.149 350.818 238.002 351.404 238.641C351.496 238.733 351.589 238.885 351.712 238.976C351.928 239.159 352.144 239.372 352.391 239.555C352.545 239.646 352.699 239.737 352.854 239.859C353.193 240.072 353.316 240.529 353.1 240.864C352.884 241.199 352.422 241.32 352.082 241.107C351.496 240.772 350.91 240.377 350.416 239.92C350.046 239.555 349.707 239.189 349.429 238.793C348.257 237.088 347.949 235.201 347.979 233.191C347.979 233.252 347.979 233.313 347.979 233.374C347.856 232.765 347.733 232.034 347.393 231.517C347.239 231.304 347.116 231.121 346.9 230.938C346.252 230.421 345.141 230.451 344.339 230.482C344 230.482 343.568 230.542 343.229 230.573C342.92 230.634 342.581 230.664 342.273 230.725C341.255 230.877 340.237 231.091 339.188 231.151C336.566 231.273 333.82 230.969 331.661 229.355C331.075 228.898 330.674 228.503 330.18 227.924C329.594 227.224 329.131 226.402 328.761 225.58C328.668 225.367 328.576 225.154 328.514 224.94C327.99 223.814 328.514 222.505 329.656 221.987C330.766 221.409 332.123 221.926 332.617 223.053Z" fill="#C71417"/>
<path d="M302.231 285.285C302.355 286.168 302.54 287.051 302.787 287.903C302.91 288.39 303.095 288.877 303.28 289.364C303.465 289.821 303.681 290.217 303.897 290.643C304.051 290.948 304.267 291.343 304.483 291.587C304.73 291.952 305.008 292.348 305.316 292.683C305.933 293.383 306.581 293.901 307.321 294.449C307.692 294.693 308.093 294.936 308.494 295.149C308.648 295.241 308.833 295.301 308.956 295.393C309.203 295.545 309.45 295.728 309.697 295.88C310.375 296.337 311.023 296.793 311.702 297.311C312.319 297.768 312.967 298.255 313.553 298.772C313.769 298.955 314.015 299.168 314.231 299.351C314.447 299.564 314.694 299.777 314.941 299.99C315.62 300.63 316.267 301.269 316.853 302C317.717 303.004 318.458 304.04 319.167 305.166C319.537 305.775 319.846 306.414 320.123 307.054C320.74 308.363 321.111 309.855 321.419 311.255C321.481 311.529 321.542 311.834 321.604 312.108C321.789 312.96 321.913 313.874 322.036 314.726C322.129 315.396 322.19 316.096 322.252 316.766C322.283 317.497 322.344 318.197 322.375 318.928C322.468 321.485 322.344 324.164 321.974 326.722C321.82 328.001 321.573 329.219 321.357 330.467C321.357 330.406 321.357 330.345 321.357 330.284C321.234 333.177 321.296 335.978 321.573 338.87C321.758 340.727 322.098 342.584 322.468 344.381C323.671 349.983 325.954 355.311 328.915 360.213C329.1 360.517 329.008 360.883 328.73 361.035C328.422 361.217 328.051 361.126 327.866 360.852C326.571 358.721 325.398 356.62 324.319 354.397C321.357 348.247 319.414 341.519 318.797 334.729C318.704 333.725 318.643 332.75 318.581 331.746C318.581 331.411 318.55 331.076 318.55 330.741C318.55 330.558 318.519 330.375 318.55 330.193C318.55 329.827 318.643 329.432 318.674 329.097C318.735 328.579 318.766 328.062 318.828 327.544C318.951 326.174 319.013 324.804 319.013 323.434C319.013 320.937 318.889 318.501 318.488 316.035C318.396 315.335 318.273 314.604 318.087 313.904C317.933 313.143 317.748 312.382 317.563 311.621C317.44 311.164 317.316 310.738 317.193 310.281C317.193 310.311 317.224 310.342 317.224 310.372C315.805 305.988 312.38 302.73 308.74 300.051C308.123 299.594 307.476 299.168 306.828 298.711C306.889 298.772 306.982 298.803 307.044 298.833C303.959 297.341 301.522 294.845 300.103 291.739C299.393 290.217 298.931 288.603 298.653 286.959C298.591 286.594 298.53 286.198 298.499 285.833C298.344 284.828 299.054 283.854 300.072 283.701C301.09 283.58 302.077 284.28 302.231 285.285Z" fill="#C91417"/>
<path d="M319.846 307.176C320.74 309.063 321.728 310.92 322.931 312.625C325.09 315.64 327.774 318.045 331.044 319.841C331.013 319.841 330.982 319.811 330.951 319.811C331.722 320.146 332.463 320.48 333.203 320.876C333.974 321.333 334.684 321.759 335.424 322.277C335.794 322.551 336.226 322.886 336.535 323.19C336.751 323.403 336.997 323.616 337.244 323.86C337.584 324.225 337.923 324.621 338.231 325.017C339.342 326.417 340.113 328.275 340.422 330.041C340.668 331.502 340.699 332.902 340.607 334.333C340.607 334.607 340.36 334.821 340.082 334.821C339.805 334.821 339.589 334.577 339.62 334.303C339.62 333.846 339.65 333.42 339.65 332.933C339.62 331.959 339.496 330.863 339.188 329.919C338.694 328.336 337.923 326.996 336.72 325.869C336.38 325.535 335.979 325.23 335.609 324.956C335.393 324.773 335.147 324.652 334.931 324.499C334.622 324.286 334.252 324.073 333.943 323.921C333.049 323.464 332.123 323.068 331.136 322.703C330.735 322.581 330.334 322.459 329.933 322.277C328.884 321.82 327.835 321.303 326.879 320.694C322.19 317.771 319.198 313.417 317.131 308.393C316.792 307.632 317.131 306.749 317.902 306.414C318.612 306.079 319.506 306.414 319.846 307.176Z" fill="#C91417"/>
<path d="M321.141 329.432C320.494 330.284 319.907 331.167 319.321 332.08C317.625 334.79 316.236 337.622 315.033 340.544C314.355 342.189 313.738 343.833 313.182 345.538C312.843 346.603 312.504 347.669 312.257 348.734C312.134 349.252 312.01 349.739 311.887 350.257C311.486 351.931 311.27 353.636 311.085 355.372C311.085 355.646 310.838 355.828 310.56 355.798C310.283 355.798 310.098 355.554 310.098 355.28C310.468 350.226 310.776 344.99 312.195 340.088C313.09 336.921 314.447 333.907 316.206 331.106C316.668 330.375 317.162 329.645 317.686 328.944C318.026 328.488 318.396 328.031 318.735 327.574C319.26 326.905 320.185 326.813 320.864 327.3C321.481 327.848 321.635 328.792 321.141 329.432Z" fill="#C91417"/>
<path d="M292.884 349.648C293.008 350.744 293.131 351.84 293.254 352.906C293.409 354.397 293.625 355.859 293.933 357.32C294.026 357.807 294.149 358.295 294.272 358.782C294.674 360.091 295.105 361.4 295.784 362.588C296 362.983 296.247 363.349 296.494 363.745C296.864 364.353 297.203 364.932 297.604 365.48C298.745 367.063 300.01 368.342 301.398 369.712C302.015 370.321 302.663 370.93 303.28 371.539C303.496 371.752 303.743 371.965 303.959 372.209C304.113 372.361 304.267 372.513 304.422 372.696C304.638 372.909 304.823 373.152 305.039 373.365C305.347 373.67 305.656 374.066 305.933 374.431C306.149 374.675 306.334 374.979 306.519 375.223C307.445 376.501 308.123 378.146 308.432 379.668C308.771 381.434 308.617 383.169 308.093 384.905C307.938 385.483 307.692 386.001 307.445 386.549C307.29 386.914 307.075 387.31 306.889 387.645C306.766 387.888 306.581 388.101 306.458 388.315C306.026 389.045 305.563 389.837 305.501 390.72C305.501 391.116 305.964 391.237 306.242 391.359C306.581 391.511 307.167 391.572 307.537 391.664C308.123 391.785 308.679 391.968 309.203 392.242C309.604 392.425 310.098 392.729 310.406 393.064C310.499 393.155 310.591 393.247 310.684 393.369C310.9 393.612 311.116 394.008 311.239 394.312C311.548 395.074 311.517 395.987 311.332 396.779C311.27 397.053 311.177 397.357 311.085 397.631V397.601C310.776 398.423 310.468 399.397 310.406 400.249C310.375 400.645 310.344 401.011 310.375 401.406C310.375 401.528 310.375 401.65 310.406 401.802C310.406 401.924 310.437 402.046 310.437 402.168C310.53 402.685 310.715 403.203 310.931 403.69C311.208 404.268 311.64 404.816 312.103 405.273C312.226 405.395 312.38 405.547 312.535 405.669C312.627 405.76 312.781 405.852 312.905 405.973C313.121 406.247 313.368 406.521 313.614 406.795C314.386 407.77 315.003 408.713 315.589 409.81C316.082 410.784 316.483 411.819 316.73 412.854C316.915 413.615 317.039 414.437 317.1 415.229C317.162 415.99 317.131 416.751 317.1 417.512C317.069 418.578 316.823 419.613 316.607 420.648C316.082 422.84 316.206 425.033 317.193 427.073C317.656 427.986 318.272 428.838 318.982 429.63C319.198 429.874 319.167 430.269 318.92 430.482C318.674 430.696 318.272 430.665 318.057 430.452C317.902 430.269 317.717 430.087 317.563 429.904C317.131 429.386 316.73 428.838 316.391 428.26C315.589 426.951 315.033 425.246 314.941 423.754C314.941 423.419 314.91 423.084 314.91 422.749C314.91 421.958 315.033 421.196 315.157 420.405C315.219 420.009 315.342 419.583 315.373 419.157C315.373 418.943 315.434 418.73 315.434 418.487C315.465 418.213 315.465 417.939 315.496 417.665C315.527 417.147 315.496 416.629 315.465 416.112C315.342 413.524 314.293 411.058 312.689 409.018C312.226 408.439 311.763 407.952 311.239 407.404C311.27 407.435 311.332 407.496 311.362 407.526C311.085 407.343 310.807 407.13 310.56 406.887C310.314 406.674 310.005 406.369 309.789 406.126C309.481 405.76 309.141 405.364 308.925 404.969C308.123 403.598 307.692 402.107 307.722 400.523C307.722 399.58 307.846 398.697 308.062 397.783C308.093 397.662 308.123 397.509 308.154 397.357C308.247 396.992 308.494 396.322 308.494 395.926C308.494 395.774 308.524 395.5 308.432 395.378C308.432 395.348 308.37 395.317 308.37 395.287C308.247 395.074 307.599 394.921 307.352 394.83C307.136 394.769 306.766 394.708 306.519 394.678C305.871 394.617 305.316 394.434 304.73 394.221C304.298 394.069 303.805 393.764 303.434 393.46C303.249 393.308 302.972 393.064 302.848 392.821C301.244 390.537 302.54 387.919 303.805 385.818C303.805 385.848 303.774 385.879 303.743 385.909C303.99 385.361 304.237 384.874 304.422 384.326C304.483 384.143 304.545 383.93 304.607 383.748C304.638 383.534 304.73 383.321 304.73 383.108C304.792 382.469 304.884 381.89 304.823 381.251C304.668 379.82 304.206 378.663 303.373 377.476C303.249 377.323 303.126 377.141 303.003 376.989C302.725 376.623 302.386 376.258 302.108 375.923C302.108 375.923 302.108 375.953 302.139 375.953C301.553 375.344 300.967 374.766 300.38 374.188C299.609 373.426 298.807 372.696 298.036 371.934C297.604 371.508 297.141 371.082 296.74 370.625C296.401 370.26 296.062 369.864 295.722 369.499C294.704 368.311 293.81 367.033 293.069 365.663C293.069 365.693 293.1 365.693 293.1 365.724C291.434 363.196 290.478 360.213 289.954 357.259C289.522 354.885 289.368 352.449 289.152 350.013C289.028 348.978 289.769 348.065 290.817 347.943C291.805 347.912 292.761 348.643 292.884 349.648Z" fill="#C71719"/>
<path d="M281.069 371.721C282.365 373.792 283.568 375.832 284.679 377.993C287.517 383.535 289.614 389.715 290.201 395.926C290.386 397.966 290.416 399.945 290.324 402.015C290.293 403.051 290.139 404.116 290.015 405.121C290.015 405.03 290.015 404.938 290.015 404.847C290.015 405.486 290.015 406.126 290.015 406.735C289.985 407.222 289.985 407.709 289.923 408.196C289.83 409.475 289.614 410.723 289.337 411.971C288.411 416.203 286.468 420.222 284.123 423.845C283.568 424.728 282.982 425.581 282.396 426.433C282.242 426.646 282.087 426.89 281.902 427.133C281.686 427.377 281.44 427.621 281.224 427.895C280.854 428.321 280.452 428.747 280.082 429.173C278.725 430.665 277.368 432.127 276.01 433.619C276.041 433.558 276.103 433.497 276.134 433.436C275.825 433.893 275.486 434.349 275.208 434.867C274.838 435.476 274.53 436.115 274.221 436.785C274.067 437.12 273.943 437.485 273.82 437.82C273.573 438.551 273.419 439.312 273.357 440.073C273.327 440.53 273.327 440.986 273.357 441.443C273.357 441.565 273.388 441.687 273.388 441.809C273.419 442.083 273.512 442.417 273.604 442.661C273.789 443.422 274.129 444.031 274.53 444.701C274.807 445.158 275.177 445.584 275.517 445.98C276.689 447.289 278.262 448.354 279.774 449.207C280.298 449.481 280.823 449.785 281.347 450.029C281.316 449.999 281.285 449.999 281.255 449.999C282.704 450.486 283.938 451.095 285.234 451.856C286.005 452.312 286.684 452.83 287.362 453.378C290.108 455.631 292.113 458.676 293.563 461.873C294.211 463.273 294.674 464.643 295.136 466.105C295.229 466.409 295.075 466.774 294.735 466.866C294.427 466.957 294.057 466.805 293.964 466.47C293.625 465.526 293.316 464.582 292.946 463.638C291.65 460.594 289.8 457.488 287.27 455.296C286.036 454.231 284.771 453.348 283.291 452.647C282.828 452.434 282.365 452.221 281.902 452.038C281.501 451.917 281.069 451.795 280.668 451.643C280.237 451.49 279.774 451.247 279.342 451.034C276.596 449.694 273.82 447.867 272.216 445.219C271.877 444.67 271.568 444.092 271.383 443.514C271.044 442.539 270.859 441.687 270.828 440.652C270.766 439.342 270.951 438.185 271.291 436.907C271.722 435.323 272.555 433.588 273.419 432.218C273.512 432.035 273.604 431.883 273.728 431.731L274.283 431.061C274.838 430.391 275.393 429.721 275.918 429.082C277.028 427.742 278.139 426.433 279.249 425.124C279.188 425.185 279.157 425.246 279.126 425.276C279.866 424.119 280.607 422.993 281.285 421.805C282.797 419.157 284.093 416.508 284.987 413.585C285.542 411.758 285.882 409.81 286.005 407.922C286.067 407.191 286.067 406.461 286.067 405.73C286.067 405.456 286.036 405.151 286.067 404.847C286.067 404.664 286.098 404.482 286.129 404.299C286.159 403.72 286.252 403.172 286.283 402.624C286.406 400.706 286.406 398.727 286.252 396.809C286.129 395.53 285.974 394.282 285.728 393.034C285.327 390.842 284.74 388.741 284.062 386.64C283.661 385.453 283.198 384.296 282.704 383.108C282.519 382.652 282.303 382.195 282.087 381.708C281.316 380.033 280.514 378.389 279.62 376.776C279.033 375.71 278.416 374.705 277.8 373.67C277.275 372.787 277.553 371.63 278.447 371.113C279.373 370.565 280.545 370.839 281.069 371.721Z" fill="#C71719"/>
<path d="M260.679 408.165C258.242 410.144 255.681 412.032 252.967 413.615C252.411 413.92 251.856 414.285 251.301 414.559C250.622 414.924 249.913 415.29 249.203 415.625C248.617 415.899 248.031 416.173 247.414 416.447C246.396 416.903 245.347 417.238 244.298 417.604C242.787 418.121 241.09 418.548 239.517 418.822C237.296 419.156 235.136 419.37 232.884 419.217C231.99 419.187 231.095 419.096 230.2 418.974C229.584 418.882 228.997 418.761 228.38 418.639C228.01 418.578 227.64 418.487 227.27 418.395C227.085 418.365 226.9 418.334 226.715 418.274C226.344 418.152 225.974 417.969 225.635 417.847C224.709 417.512 223.815 417.147 222.889 416.843C220.761 416.112 218.509 415.472 216.257 415.198C215.825 415.138 215.393 415.107 214.961 415.077C214.437 415.046 213.882 415.016 213.357 415.046C212.679 415.077 211.969 415.107 211.321 415.229C211.136 415.259 210.982 415.29 210.797 415.32C209.748 415.503 208.699 415.929 207.743 416.355C207.311 416.569 206.91 416.812 206.478 417.056C205.244 417.756 204.134 418.761 203.116 419.765C203.146 419.735 203.177 419.674 203.208 419.644C199.29 424.911 195.003 430.178 189.851 434.319C189.573 434.532 189.203 434.501 188.987 434.258C188.771 433.984 188.802 433.618 189.049 433.405C189.604 432.918 190.159 432.461 190.715 431.944C191.239 431.487 191.702 431 192.226 430.513C192.874 429.874 193.522 429.173 194.108 428.503C194.571 427.986 195.033 427.468 195.465 426.951C196.206 426.068 196.946 425.124 197.655 424.211C198.55 422.993 199.445 421.714 200.308 420.435C200.617 419.979 200.925 419.522 201.203 419.035C201.326 418.852 201.481 418.578 201.635 418.395C201.851 418.152 202.098 417.878 202.344 417.634C202.961 416.995 203.578 416.386 204.257 415.838C205.738 414.65 207.465 413.585 209.254 413.006C209.779 412.854 210.272 412.702 210.797 412.58C210.982 412.55 211.198 412.519 211.383 412.458C211.753 412.367 212.216 412.306 212.586 412.276C213.357 412.215 214.129 412.123 214.9 412.123C216.38 412.154 217.769 412.276 219.249 412.519C222.211 412.976 225.141 413.95 227.979 414.894C227.918 414.864 227.825 414.864 227.733 414.833C228.072 414.894 228.411 414.985 228.751 415.046C229.306 415.138 229.83 415.229 230.386 415.29C231.558 415.442 232.761 415.472 233.964 415.472C234.797 415.472 235.722 415.442 236.586 415.32C238.159 415.138 239.733 414.864 241.275 414.437C242.447 414.102 243.558 413.737 244.699 413.311C245.748 412.915 246.828 412.458 247.815 411.941C248.401 411.667 248.987 411.362 249.542 411.088C251.887 409.81 254.17 408.348 256.36 406.765C257.039 406.278 257.686 405.791 258.334 405.273C259.136 404.634 260.339 404.755 260.987 405.547C261.635 406.339 261.512 407.526 260.679 408.165Z" fill="#C41214"/>
<path d="M220.853 415.381C219.311 413.25 217.769 411.119 216.257 408.927C216.257 408.927 216.257 408.957 216.288 408.957C216.01 408.622 215.794 408.318 215.517 408.013C215.239 407.739 214.931 407.465 214.622 407.222C214.53 407.161 214.406 407.069 214.283 407.009C213.974 406.765 213.45 406.491 213.08 406.339C212.987 406.308 212.864 406.247 212.771 406.217C212.463 406.095 212.031 405.973 211.722 405.912C210.674 405.669 209.625 405.608 208.545 405.608C207.99 405.608 207.434 405.669 206.91 405.699C206.91 405.699 206.941 405.699 206.972 405.699C205.553 405.882 204.01 406.065 202.591 405.882C201.635 405.76 200.771 405.608 199.877 405.304C196.36 404.055 194.632 401.011 193.553 397.692C193.46 397.448 193.584 397.174 193.83 397.083C194.077 396.992 194.386 397.113 194.478 397.357C194.602 397.662 194.725 397.996 194.848 398.301C195.188 399.123 195.589 399.915 196.113 400.645C196.576 401.285 197.039 401.833 197.656 402.35C199.599 403.933 202.098 404.055 204.504 403.659C204.936 403.599 205.368 403.507 205.799 403.416C206.046 403.355 206.293 403.264 206.54 403.233C207.219 403.111 207.897 402.99 208.576 402.929C209.964 402.807 211.476 402.807 212.802 403.111C213.049 403.172 213.296 403.233 213.542 403.294C213.728 403.355 213.943 403.416 214.129 403.477C214.591 403.599 215.085 403.873 215.486 404.086C218.046 405.456 219.219 407.526 220.792 409.84C221.686 411.119 222.55 412.428 223.414 413.707C223.877 414.376 223.692 415.29 223.013 415.777C222.272 416.234 221.316 416.051 220.853 415.381Z" fill="#C41214"/>
<path d="M292.391 310.92C291.712 313.661 291.064 316.401 290.17 319.08C289.337 321.607 288.38 323.982 287.147 326.357C287.177 326.296 287.208 326.204 287.239 326.113C287.023 326.722 286.807 327.3 286.499 327.879C286.375 328.153 286.221 328.396 286.067 328.671C285.789 329.188 285.388 329.645 285.049 330.132C284.895 330.345 284.71 330.558 284.524 330.741C284.339 330.954 284.154 331.167 283.938 331.35C283.753 331.502 283.599 331.685 283.383 331.867C282.889 332.294 282.365 332.689 281.841 333.055C280.144 334.242 278.015 335.125 276.01 335.704C275.763 335.764 275.517 335.825 275.239 335.886C275.054 335.947 274.869 336.008 274.653 336.038C274.406 336.069 274.129 336.069 273.882 336.099C273.265 336.16 272.617 336.252 272.031 336.373C270.92 336.617 269.933 336.982 268.915 337.439C268.267 337.743 267.65 338.109 267.064 338.505C264.689 340.088 262.807 342.493 261.388 344.959C261.049 345.568 260.74 346.147 260.432 346.756C260.339 346.999 260.216 347.334 260.062 347.547C259.506 348.43 258.951 349.343 258.272 350.135C258.118 350.287 257.964 350.5 257.81 350.653C257.47 351.018 257.131 351.383 256.761 351.718C256.021 352.358 255.28 352.875 254.447 353.393C254.046 353.606 253.614 353.849 253.213 354.032C251.548 354.763 249.882 355.159 248.093 355.341C244.452 355.676 240.658 355.098 237.111 354.306C236.771 354.245 236.555 353.91 236.617 353.575C236.679 353.241 237.018 353.027 237.357 353.088C238.098 353.21 238.838 353.362 239.578 353.484C241.769 353.88 244.236 354.093 246.458 353.941C247.352 353.88 248.247 353.789 249.111 353.575C250.283 353.301 251.332 352.967 252.38 352.388C252.72 352.205 253.09 352.023 253.368 351.81C253.892 351.444 254.355 351.109 254.817 350.683C255.465 350.074 255.99 349.435 256.514 348.735C256.73 348.43 257.008 348.034 257.193 347.699C257.44 347.243 257.686 346.816 257.902 346.36C257.902 346.39 257.871 346.421 257.841 346.482C258.303 345.294 258.797 344.107 259.383 342.95C260.987 339.905 263.054 337.165 265.985 335.216C266.941 334.577 267.897 334.09 268.946 333.633C270.118 333.116 271.414 332.811 272.679 332.568C273.203 332.476 273.727 332.415 274.252 332.354C274.129 332.354 274.036 332.385 273.913 332.415C274.56 332.233 275.177 332.05 275.794 331.806C277.83 331.045 279.681 330.041 281.193 328.488C281.964 327.727 282.519 326.874 282.982 325.9C283.167 325.535 283.26 325.139 283.445 324.743C283.476 324.621 283.568 324.499 283.63 324.378C283.877 323.86 284.154 323.342 284.401 322.825C284.833 321.942 285.203 320.998 285.573 320.085C286.283 318.349 286.838 316.553 287.362 314.787C287.825 313.234 288.257 311.651 288.689 310.068C288.936 309.094 289.985 308.485 290.972 308.728C292.051 308.911 292.668 309.916 292.391 310.92Z" fill="#C71214"/>
<path d="M265.368 339.783C261.974 341.427 258.272 342.402 254.509 341.397C253.583 341.153 252.596 340.758 251.763 340.27C250.437 339.509 249.419 338.718 248.339 337.622C247.877 337.135 247.537 336.678 247.105 336.13C246.92 335.856 246.673 335.612 246.458 335.369C245.995 334.851 245.347 334.273 244.792 333.846C244.637 333.725 244.452 333.603 244.298 333.481C244.021 333.298 243.619 333.055 243.342 332.903C243.064 332.75 242.787 332.629 242.478 332.476C241.491 332.05 240.38 331.746 239.362 331.563C238.53 331.411 237.666 331.319 236.833 331.258C236.524 331.258 236.247 331.258 235.938 331.228H236C235.352 331.228 234.735 331.258 234.087 331.258C232.823 331.228 231.496 331.167 230.262 330.954C229.799 330.893 229.337 330.802 228.843 330.71C228.226 330.589 227.517 330.436 226.9 330.223C226.252 330.041 225.635 329.827 224.987 329.553C224.216 329.279 223.445 328.884 222.735 328.488C222.488 328.366 222.396 328.062 222.55 327.818C222.673 327.574 222.982 327.483 223.229 327.635C223.63 327.848 224.062 328.062 224.494 328.244C227.023 329.31 229.46 329.675 232.206 329.675C233.1 329.675 233.995 329.614 234.889 329.523C235.198 329.493 235.537 329.432 235.846 329.401C237.666 329.279 239.733 329.279 241.522 329.645C243.527 330.071 245.1 330.68 246.766 331.837C247.198 332.141 247.568 332.476 247.969 332.781C248.74 333.42 249.388 334.212 250.036 335.003C250.005 334.973 250.005 334.942 249.943 334.912C251.054 336.069 252.226 337.013 253.676 337.713C256.514 339.083 259.753 338.748 262.591 337.652C263.085 337.469 263.578 337.287 264.072 337.043C264.843 336.678 265.707 337.013 266.077 337.774C266.447 338.566 266.139 339.448 265.368 339.783Z" fill="#C71214"/>
<path d="M261.419 345.203C261.635 345.477 261.851 345.781 262.067 346.055C262.807 347.09 263.517 348.156 264.072 349.252C264.658 350.379 265.152 351.505 265.553 352.692C266.262 354.885 266.54 357.199 266.293 359.482C266.231 360.182 266.139 360.913 265.954 361.583C265.892 361.796 265.738 362.1 265.645 362.313C265.522 362.618 265.368 362.953 265.244 363.257C264.936 364.018 264.658 364.84 264.411 365.663C263.733 367.976 263.548 370.564 263.918 372.939C264.01 373.518 264.134 374.035 264.257 374.583C264.319 374.857 264.164 375.131 263.887 375.192C263.64 375.253 263.362 375.101 263.301 374.827C262.56 372.391 262.221 369.621 262.344 367.063C262.375 366.211 262.468 365.358 262.591 364.506C262.776 363.257 263.116 362.07 263.455 360.852C263.424 360.943 263.424 361.004 263.393 361.096C263.424 360.578 263.455 360.091 263.455 359.604C263.455 358.234 263.301 356.803 262.961 355.463C262.252 352.388 260.648 349.526 258.859 346.938C258.396 346.238 258.55 345.324 259.229 344.837C260 344.35 260.956 344.533 261.419 345.203Z" fill="#C71214"/>
<path d="M244.823 356.407C244.391 356.59 243.99 356.742 243.558 356.925C242.632 357.29 241.676 357.807 240.843 358.355C239.424 359.238 238.036 360.456 236.987 361.705C236.494 362.283 236.093 362.862 235.63 363.47C235.661 363.41 235.691 363.349 235.722 363.288C235.414 363.897 235.044 364.445 234.612 364.993C234.211 365.51 233.625 366.058 233.069 366.424C232.73 366.667 232.422 366.88 232.051 367.094C230.015 368.19 227.856 368.464 225.573 368.555C225.604 368.555 225.666 368.555 225.697 368.524C222.828 368.981 220.329 369.864 218.509 372.208C218.108 372.696 217.861 373.213 217.584 373.792C217.491 373.974 217.429 374.218 217.337 374.461C217.244 374.705 216.967 374.827 216.689 374.736C216.442 374.644 216.288 374.37 216.411 374.096C216.997 372.3 217.985 370.778 219.434 369.529C219.743 369.255 220.113 368.981 220.452 368.738C220.638 368.616 220.823 368.494 221.039 368.372C222.026 367.733 223.167 367.307 224.247 366.88C224.555 366.789 224.956 366.667 225.265 366.576C225.45 366.545 225.697 366.515 225.913 366.485C226.221 366.454 226.53 366.363 226.838 366.302C228.134 365.997 229.584 365.541 230.663 364.749C231.373 364.262 231.99 363.684 232.422 362.953C232.668 362.557 232.853 362.131 233.1 361.705C233.686 360.73 234.365 359.847 235.136 358.995C237.45 356.407 240.473 354.671 243.805 353.606C244.576 353.332 245.44 353.728 245.717 354.519C246.026 355.28 245.625 356.133 244.823 356.407Z" fill="#C71214"/>
<path fill-rule="evenodd" clip-rule="evenodd" d="M237.265 197.813C243.866 217.694 234.581 242.234 216.566 252.555C198.55 262.907 178.591 255.143 172.021 235.231C165.45 215.35 174.704 190.81 192.72 180.489C210.704 170.198 230.663 177.962 237.265 197.813Z" fill="#FF5759"/>
<path d="M180.072 170.564C178.961 170.838 177.758 171.233 176.771 171.781C176.062 172.177 175.26 172.634 174.673 173.182C173.902 173.821 173.193 174.491 172.607 175.283C172.082 175.983 171.62 176.653 171.218 177.384C169.769 179.941 168.905 182.803 168.257 185.634C167.825 187.461 167.486 189.318 167.208 191.145C166.838 193.49 166.499 195.864 166.129 198.239C165.974 199.335 165.758 200.462 165.573 201.558C165.512 201.954 165.45 202.349 165.357 202.745C165.326 202.958 165.296 203.171 165.234 203.385C165.172 203.659 165.08 203.933 165.018 204.207C164.833 204.846 164.648 205.485 164.432 206.094C164.216 206.764 164 207.464 163.722 208.134C163.198 209.565 162.612 210.966 161.964 212.336C160.236 215.959 158.17 219.247 155.671 222.383C154.807 223.479 153.882 224.545 152.895 225.549C151.815 226.676 150.704 227.772 149.563 228.777C148.36 229.842 147.157 230.817 145.861 231.791C145.553 232.034 145.213 232.278 144.905 232.491C144.751 232.582 144.627 232.704 144.473 232.826C143.918 233.161 143.332 233.496 142.807 233.831C141.666 234.592 140.524 235.353 139.476 236.206C135.835 239.128 132.874 242.569 130.283 246.466C129.388 247.805 128.524 249.176 127.722 250.576C127.476 251.002 127.229 251.429 126.982 251.855C126.643 252.464 126.242 253.042 125.933 253.682C125.501 254.473 125.162 255.356 124.853 256.209C124.298 257.731 123.897 259.345 123.589 260.928C123.404 261.78 123.28 262.663 123.095 263.546C123.003 264.125 122.817 264.703 122.632 265.251C122.015 267.169 120.967 268.996 119.949 270.701C119.116 272.162 118.314 273.685 117.727 275.237C117.388 276.12 117.08 277.125 116.895 278.039C116.864 278.191 116.802 278.343 116.771 278.465C116.679 278.83 116.586 279.165 116.494 279.53C116.185 280.87 115.907 282.24 115.568 283.58C115.26 284.798 114.859 285.955 114.427 287.142C113.964 288.36 113.224 289.73 112.391 290.735C112.206 290.948 112.021 291.191 111.835 291.374C111.712 291.496 111.558 291.648 111.404 291.8C111.249 291.922 111.095 292.013 110.91 292.135C110.416 292.5 109.954 292.896 109.491 293.322C109.213 293.597 108.936 293.871 108.689 294.145C107.825 295.119 107.085 296.306 106.56 297.494C105.296 300.477 105.172 303.735 105.265 306.901C105.326 309.307 105.573 311.712 105.758 314.117C105.882 315.64 105.974 317.192 106.067 318.745C106.098 319.141 105.789 319.506 105.357 319.506C104.956 319.506 104.586 319.202 104.586 318.806C104.494 317.345 104.401 315.883 104.247 314.422C104.062 312.686 103.907 310.92 103.784 309.185C103.506 305.592 103.352 301.817 104.339 298.346C104.648 297.25 105.111 296.124 105.666 295.119C105.789 294.906 105.943 294.662 106.067 294.449C106.314 294.023 106.653 293.597 106.931 293.231C107.517 292.5 108.164 291.8 108.874 291.191C109.275 290.856 109.676 290.521 110.108 290.217C110.077 290.247 110.046 290.278 109.985 290.308C110.386 289.882 110.787 289.425 111.095 288.908C111.28 288.603 111.465 288.268 111.65 287.934C112.853 285.589 113.378 282.697 113.841 280.109C113.964 279.439 114.087 278.769 114.242 278.13C114.272 277.886 114.334 277.643 114.396 277.399V277.43C114.797 275.359 115.476 273.35 116.37 271.462C117.018 270.001 117.82 268.631 118.499 267.2C118.715 266.713 118.931 266.256 119.146 265.738C119.517 264.886 119.763 263.972 119.949 263.029C120.01 262.694 120.041 262.359 120.103 262.024C120.164 261.384 120.257 260.684 120.38 260.075C120.566 259.01 120.751 257.944 121.028 256.909C121.182 256.3 121.368 255.691 121.553 255.113C121.769 254.351 122.077 253.621 122.355 252.89C122.725 251.946 123.218 251.063 123.712 250.18C123.712 250.18 123.681 250.211 123.681 250.241C124.699 248.293 125.748 246.375 126.889 244.487C127.969 242.751 129.172 240.986 130.437 239.402C130.622 239.159 130.838 238.885 131.023 238.641C131.856 237.636 132.72 236.662 133.614 235.718C135.465 233.861 137.409 232.187 139.568 230.664C140.401 230.086 141.234 229.568 142.098 229.02C142.036 229.051 141.974 229.081 141.913 229.142C142.56 228.655 143.208 228.198 143.825 227.681C145.46 226.31 147.064 224.91 148.545 223.357C149.625 222.231 150.643 221.104 151.599 219.917C153.789 217.238 155.671 214.193 157.213 211.087C158.108 209.23 158.879 207.312 159.558 205.333C159.928 204.267 160.236 203.171 160.545 202.075C160.545 202.136 160.514 202.197 160.514 202.258C160.668 201.375 160.853 200.492 161.008 199.609C161.285 197.813 161.594 196.017 161.841 194.22C162.026 192.911 162.242 191.602 162.458 190.293C163.691 183.077 165.45 174.917 171.311 169.894C172.113 169.193 173.008 168.615 173.933 168.067C175.013 167.428 176.185 166.971 177.357 166.575C177.882 166.392 178.406 166.271 178.931 166.149C180.134 165.844 181.368 166.545 181.707 167.732C182.015 169.041 181.275 170.259 180.072 170.564Z" fill="#CC191C"/>
<path fill-rule="evenodd" clip-rule="evenodd" d="M174.643 199.822C189.326 166.758 207.743 143.132 230.293 129.857L211.414 188.709L185.563 201.466L174.643 199.822Z" fill="#FF5759"/>
<path d="M167.578 197.63C168.442 201.771 169.306 205.912 170.17 210.022C170.324 210.844 170.54 211.666 170.694 212.488C170.787 213.036 170.941 213.584 171.033 214.132C171.126 214.589 171.157 215.015 171.249 215.472C171.373 216.233 171.558 216.994 171.774 217.725C172.206 219.217 172.73 220.526 173.44 221.865C173.779 222.505 174.18 223.144 174.55 223.723C176.37 226.432 178.745 228.777 181.398 230.695C182.2 231.304 183.033 231.913 183.805 232.552C185.162 233.709 186.488 234.835 187.661 236.205C188.494 237.119 189.234 238.063 189.913 239.098C190.437 239.859 190.838 240.651 191.27 241.473C191.27 241.442 191.239 241.412 191.239 241.381C193.059 244.395 195.249 247.288 198.704 248.536C199.321 248.749 199.938 248.962 200.555 249.084C200.895 249.145 201.265 249.206 201.604 249.236C201.789 249.267 201.974 249.267 202.19 249.297C203.424 249.45 204.658 249.876 205.707 250.606C206.17 250.941 206.54 251.368 206.879 251.855C206.941 251.946 207.003 252.068 207.064 252.159C207.157 252.311 207.311 252.646 207.342 252.799C207.404 253.042 207.496 253.286 207.558 253.56C207.681 254.138 207.681 254.625 207.712 255.234C207.712 255.63 207.681 256.117 207.62 256.513C207.558 256.909 207.527 257.274 207.434 257.64C207.249 258.401 207.095 259.101 206.848 259.832C206.54 260.806 206.2 261.75 205.861 262.694C205.861 262.694 205.861 262.663 205.861 262.633C205.244 264.703 204.936 266.895 204.997 269.057C205.152 273.685 207.28 277.917 210.396 281.327C210.889 281.844 211.383 282.392 211.907 282.879C212.093 283.062 212.093 283.367 211.907 283.58C211.722 283.762 211.383 283.762 211.198 283.58C209.779 282.21 208.36 280.687 207.28 279.043C207.033 278.647 206.756 278.282 206.509 277.886C206.262 277.49 206.046 277.095 205.83 276.668C205.645 276.333 205.491 275.968 205.306 275.603C203.979 272.619 203.362 269.361 203.671 266.134C203.763 265.221 203.856 264.338 204.041 263.424C204.134 263.029 204.226 262.633 204.319 262.237C204.35 262.146 204.38 261.993 204.442 261.902C204.535 261.567 204.658 261.232 204.751 260.928C204.936 260.38 205.09 259.801 205.244 259.253C205.337 258.857 205.429 258.492 205.522 258.096C205.799 256.665 206.108 254.534 205.337 253.225C205.121 252.829 204.843 252.585 204.504 252.311C204.288 252.159 203.949 252.007 203.702 251.885C203.085 251.672 202.468 251.55 201.82 251.459C201.82 251.459 201.882 251.459 201.913 251.459C199.075 251.337 196.267 250.424 193.985 248.688C193.121 248.019 192.411 247.318 191.64 246.557C191.085 245.948 190.56 245.248 190.067 244.609C189.635 244.03 189.203 243.421 188.833 242.812C188.709 242.569 188.586 242.325 188.432 242.082C188.308 241.868 188.154 241.625 188.031 241.412C187.784 240.986 187.476 240.62 187.198 240.194C186.889 239.768 186.519 239.341 186.18 238.946C185.933 238.641 185.594 238.245 185.316 237.971C185.162 237.85 185.039 237.667 184.884 237.515C184.514 237.149 184.113 236.753 183.681 236.388C182.324 235.231 180.936 234.166 179.517 233.13C178.745 232.552 178.005 232.004 177.265 231.395C176.216 230.512 175.26 229.599 174.334 228.594C171.65 225.732 169.522 221.987 168.535 218.212C168.226 216.994 168.01 215.867 167.825 214.619C167.825 214.65 167.825 214.68 167.825 214.71C166.715 209.2 165.635 203.689 164.555 198.148C164.401 197.356 164.925 196.565 165.727 196.382C166.591 196.291 167.393 196.808 167.578 197.63Z" fill="#CF1C1F"/>
<path d="M138.057 240.59C138.458 242.873 139.013 244.943 140 247.075C142.098 251.611 145.738 254.93 150.149 257.274C150.118 257.274 150.087 257.274 150.087 257.244C152.123 258.279 154.159 259.284 156.165 260.38C157.738 261.232 159.28 262.115 160.823 263.029C161.841 263.637 162.859 264.246 163.877 264.886C164.216 265.099 164.555 265.312 164.864 265.525C164.987 265.586 165.141 265.677 165.265 265.769C165.419 265.89 165.604 266.043 165.758 266.164C167.609 267.656 169.152 269.27 170.54 271.158C171.095 271.888 171.589 272.68 172.021 273.441C172.668 274.598 173.254 275.725 173.686 276.973C173.964 277.734 174.242 278.495 174.458 279.256C174.828 280.566 175.105 281.936 175.26 283.245C175.321 283.671 175.352 284.128 175.414 284.584C175.414 284.493 175.383 284.402 175.383 284.31C175.722 285.62 176.062 286.898 176.339 288.207C177.296 292.47 177.882 296.824 178.005 301.178C178.005 301.573 178.005 301.969 178.036 302.365C178.036 302.517 178.036 302.73 178.036 302.883C177.913 304.374 177.697 305.866 177.604 307.328C177.542 308.911 177.45 310.464 177.974 311.986C178.252 312.808 178.776 313.6 179.455 314.178C179.64 314.3 179.794 314.452 179.979 314.574C180.38 314.878 180.997 315.152 181.429 315.365C181.799 315.548 182.139 315.761 182.478 315.944C183.126 316.309 183.712 316.705 184.329 317.131C184.607 317.314 184.853 317.497 185.1 317.679C186.303 318.562 187.383 319.567 188.37 320.663C189.758 322.185 190.807 323.89 191.763 325.687L192.134 326.448C192.195 326.57 192.257 326.691 192.319 326.844C192.473 327.209 192.596 327.605 192.751 328.001C192.936 328.518 193.183 329.005 193.398 329.493C193.522 329.767 193.645 330.041 193.799 330.284C194.416 331.532 195.188 332.689 196.021 333.785C196.267 334.12 196.206 334.547 195.866 334.79C195.527 335.034 195.064 334.973 194.817 334.638C193.09 332.385 191.825 330.041 190.838 327.392C190.838 327.422 190.869 327.422 190.869 327.453C190.56 326.813 190.252 326.174 189.882 325.595C189.234 324.53 188.586 323.586 187.784 322.642C187.476 322.277 187.105 321.911 186.766 321.576C185.563 320.359 184.082 319.263 182.571 318.41C181.676 317.893 180.751 317.466 179.825 317.01C179.177 316.705 178.499 316.34 177.943 315.914C177.542 315.609 177.172 315.244 176.864 314.878C174.643 312.26 174.735 308.576 174.859 305.349C174.889 304.466 174.92 303.583 174.951 302.7V302.883C174.859 301.939 174.797 300.964 174.704 299.99C174.365 297.098 173.871 294.205 173.162 291.404C172.823 290.065 172.483 288.786 172.082 287.477C171.928 286.959 171.774 286.472 171.62 285.985C171.527 285.741 171.434 285.467 171.373 285.193C171.311 284.767 171.249 284.31 171.188 283.884C171.126 283.519 171.033 283.153 170.972 282.819C170.817 282.027 170.571 281.235 170.324 280.444C170.231 280.17 170.139 279.865 170.015 279.591C169.861 279.104 169.645 278.587 169.429 278.13C169.213 277.673 169.028 277.247 168.781 276.821C168.627 276.486 168.411 276.181 168.226 275.846C167.393 274.385 166.375 273.137 165.172 271.919C164.617 271.31 163.969 270.762 163.321 270.214C163.013 269.94 162.643 269.696 162.334 269.422C162.396 269.453 162.458 269.514 162.519 269.544C161.409 268.874 160.298 268.174 159.188 267.535C157.522 266.56 155.825 265.647 154.159 264.703C152.802 263.972 151.445 263.272 150.087 262.572C149.347 262.206 148.576 261.811 147.835 261.445C147.188 261.11 146.571 260.715 145.923 260.349C144.936 259.74 144.01 259.071 143.085 258.37C142.591 258.005 142.067 257.579 141.604 257.122C141.049 256.604 140.524 256.117 140.031 255.569C138.149 253.529 136.638 251.215 135.527 248.688C134.817 247.044 134.324 245.431 133.923 243.695C133.738 242.904 133.614 242.082 133.491 241.26C133.306 240.042 134.139 238.885 135.373 238.702C136.699 238.519 137.871 239.372 138.057 240.59Z" fill="#CC1719"/>
<path fill-rule="evenodd" clip-rule="evenodd" d="M230.293 185.756C217.83 168.706 224.308 150.774 239.887 138.991L200.463 169.407L199.476 186.426L207.095 190.658L230.293 185.756Z" fill="#FF5759"/>
<path fill-rule="evenodd" clip-rule="evenodd" d="M222.889 200.766C226.869 212.823 221.254 227.711 210.334 233.983C199.414 240.255 187.29 235.536 183.311 223.479C179.332 211.422 184.946 196.534 195.866 190.293C206.787 183.99 218.91 188.709 222.889 200.766Z" fill="#FF7D7D"/>
<path d="M180.442 229.751C186.303 230.634 192.411 230.421 198.149 229.081C199.599 228.746 201.018 228.32 202.375 227.772C203.856 227.193 205.398 226.402 206.632 225.367C207.188 224.88 207.712 224.362 208.082 223.723C208.329 223.296 208.483 222.809 208.699 222.353C208.915 221.896 209.131 221.47 209.347 220.982C209.563 220.556 209.841 220.13 210.118 219.704C211.105 218.181 212.463 216.781 214.067 215.867C215.486 215.045 217.028 214.467 218.602 214.163C218.787 214.132 219.095 214.132 219.311 214.102C219.712 214.071 220.082 214.041 220.483 214.01C221.625 213.919 222.766 213.736 223.877 213.523C226.221 213.097 228.473 212.366 230.632 211.331C231.157 211.087 231.681 210.783 232.175 210.509C232.422 210.387 232.73 210.448 232.853 210.661C232.977 210.905 232.915 211.209 232.699 211.331C228.473 213.919 223.753 215.045 218.879 215.715C218.91 215.715 218.972 215.715 219.003 215.685C217.954 216.02 216.997 216.385 216.041 216.933C213.265 218.516 211.846 220.952 210.92 223.875C210.797 224.271 210.643 224.636 210.458 225.032C208.792 228.137 205.398 229.964 202.159 231.151C201.326 231.456 200.432 231.73 199.568 231.974C198.92 232.126 198.272 232.308 197.655 232.43C196.946 232.582 196.267 232.704 195.589 232.826C191.609 233.465 187.568 233.587 183.558 233.191C182.355 233.07 181.213 232.887 180.01 232.674C179.208 232.552 178.622 231.791 178.776 230.969C178.869 230.177 179.64 229.629 180.442 229.751Z" fill="#CF1C1F"/>
<path d="M208.915 223.844C209.902 223.814 210.889 223.783 211.846 223.844C214.776 223.966 217.491 224.575 220.144 225.823C221.008 226.25 221.841 226.767 222.612 227.346C222.889 227.528 223.167 227.772 223.445 228.015C223.414 227.985 223.352 227.955 223.321 227.924C226.067 229.781 229.398 231.273 232.792 231.03C233.193 230.999 233.625 230.969 234.026 230.908C235.136 230.695 236.123 230.39 237.141 229.934C237.481 229.781 237.82 229.599 238.129 229.416C238.344 229.294 238.653 229.386 238.807 229.599C238.931 229.842 238.869 230.147 238.622 230.269C236.709 231.425 234.303 232.339 232.082 232.552C231.095 232.643 230.17 232.674 229.152 232.613C227.332 232.491 225.357 231.943 223.691 231.243C223.229 231.06 222.797 230.847 222.334 230.603C222.18 230.512 221.964 230.421 221.81 230.329C221.501 230.147 221.224 229.903 220.946 229.72C220.514 229.477 220.113 229.233 219.681 228.99C218.725 228.472 217.676 228.107 216.627 227.772C214.745 227.193 212.771 226.98 210.797 226.859C210.18 226.828 209.563 226.828 208.946 226.828C208.113 226.828 207.434 226.158 207.404 225.336C207.434 224.514 208.082 223.844 208.915 223.844Z" fill="#CF1C1F"/>
<path d="M141.419 235.109C137.285 237.667 133.152 240.255 128.648 242.173C126.581 243.056 124.545 243.756 122.386 244.335C122.478 244.335 122.54 244.274 122.632 244.243C122.293 244.395 121.923 244.578 121.583 244.73C120.072 245.431 118.53 246.253 117.141 247.166C113.316 249.632 110.478 252.646 108.658 256.818C108.689 256.726 108.72 256.635 108.751 256.544C108.257 258.888 107.548 261.08 106.283 263.15C106.005 263.577 105.727 263.972 105.45 264.368C105.296 264.551 105.141 264.734 104.987 264.947C104.833 265.16 104.648 265.342 104.463 265.556C103.938 266.164 103.26 266.713 102.612 267.23C102.18 267.595 101.717 267.869 101.254 268.204C100.823 268.539 100.422 268.905 100.021 269.3C97.4293 271.888 95.856 275.877 95.3316 279.409C95.0848 280.931 94.9614 282.727 95.3624 284.25C95.3624 284.25 95.3624 284.25 95.3624 284.219C95.8251 285.589 96.2879 286.929 96.5347 288.36C96.6272 288.938 96.658 289.456 96.658 290.004C96.6272 292.044 95.7326 293.657 94.3753 295.119C94.1902 295.332 93.8817 295.332 93.6658 295.149C93.4807 294.967 93.4498 294.662 93.6349 294.449C94.2827 293.718 94.6838 293.17 95.0848 292.287C95.239 291.983 95.3316 291.678 95.4241 291.374C95.4858 291.13 95.5167 290.887 95.5475 290.643C95.5475 290.521 95.5475 290.4 95.5475 290.278C95.5784 289.943 95.5475 289.517 95.5167 289.182C95.4858 288.816 95.4241 288.482 95.3624 288.116C95.0539 286.898 94.6221 285.772 94.1902 284.554C94.1285 284.31 94.0359 284.067 93.9742 283.823C93.6966 282.484 93.7275 280.992 93.8509 279.652C94.1285 276.729 94.8997 273.898 96.2262 271.249C96.658 270.397 97.1516 269.605 97.7377 268.844C98.3547 267.991 99.0951 267.261 99.8663 266.56C100.082 266.347 100.36 266.164 100.607 265.951C101.162 265.525 101.686 265.068 102.149 264.581C103.414 263.211 104.278 261.872 104.956 260.167C105.11 259.832 105.234 259.466 105.357 259.101C105.512 258.614 105.666 258.127 105.758 257.609C105.789 257.426 105.82 257.213 105.882 257C105.974 256.574 106.005 256.026 106.159 255.63C106.406 255.021 106.684 254.443 106.931 253.864C107.887 251.855 109.337 249.906 110.879 248.293C113.039 246.07 115.537 244.304 118.252 242.843C118.961 242.447 119.702 242.082 120.442 241.747C120.658 241.655 120.843 241.564 121.059 241.473C121.213 241.412 121.398 241.32 121.553 241.26C121.954 241.138 122.355 241.046 122.756 240.925C123.126 240.833 123.465 240.712 123.835 240.59C125.316 240.133 126.766 239.524 128.185 238.915C132.257 237.149 136.144 234.805 139.938 232.521C140.648 232.095 141.573 232.308 142.036 233.009C142.344 233.77 142.098 234.683 141.419 235.109Z" fill="#CC191C"/>
<path d="M168.165 271.797C168.134 272.436 168.103 273.106 168.01 273.715C167.949 274.324 167.825 274.933 167.702 275.542C167.239 277.764 166.283 280.139 165.018 282.057C164.74 282.484 164.432 282.879 164.123 283.306C163.722 283.854 163.26 284.371 162.797 284.858C162.581 285.041 162.396 285.254 162.18 285.467C161.995 285.65 161.81 285.833 161.594 286.015C160.699 286.777 159.805 287.538 159.033 288.421C156.843 290.948 155.794 293.779 155.64 297.098V297.006C155.64 297.463 155.702 297.95 155.702 298.437C155.763 299.412 155.794 300.416 155.794 301.391C155.825 303.431 155.794 305.47 155.733 307.51C155.733 307.784 155.486 307.998 155.208 307.998C154.931 307.998 154.715 307.754 154.715 307.51C154.715 306.658 154.745 305.805 154.715 304.953C154.684 303.735 154.591 302.517 154.468 301.269C154.375 300.386 154.252 299.473 154.098 298.59C154.036 298.133 153.943 297.676 153.851 297.189C153.82 297.006 153.851 296.763 153.82 296.55C153.789 295.941 153.82 295.362 153.82 294.753C153.913 292.805 154.406 291.009 155.208 289.243C155.424 288.756 155.702 288.299 155.979 287.842C156.905 286.259 158.201 284.919 159.589 283.702C159.558 283.702 159.527 283.732 159.496 283.762C159.681 283.549 159.897 283.336 160.113 283.123C160.638 282.605 161.131 281.997 161.563 281.418C161.841 281.022 162.149 280.626 162.396 280.2C162.519 279.987 162.674 279.774 162.797 279.561C163.044 279.104 163.29 278.647 163.506 278.191C163.722 277.734 163.877 277.277 164.062 276.821C164.216 276.394 164.37 275.877 164.494 275.42C164.524 275.268 164.586 275.116 164.617 274.933C164.74 274.415 164.833 273.898 164.925 273.38C165.018 272.771 165.08 272.162 165.172 271.553C165.234 270.731 165.943 270.123 166.776 270.183C167.609 270.275 168.226 270.975 168.165 271.797Z" fill="#CC1719"/>
<path d="M177.727 302.73C179.486 303.705 181.213 304.405 183.188 304.77C183.589 304.831 183.99 304.862 184.391 304.922C185.193 304.983 186.211 304.953 187.044 304.831C187.229 304.801 187.414 304.801 187.599 304.74C187.784 304.709 187.969 304.679 188.154 304.648C188.432 304.588 188.74 304.496 189.049 304.435C189.172 304.405 189.296 304.405 189.45 304.374C189.727 304.344 189.974 304.314 190.252 304.314C192.566 304.131 194.941 304.466 196.915 305.805C197.285 306.049 197.656 306.293 197.964 306.597C198.458 307.023 198.951 307.541 199.321 308.058C199.537 308.393 199.753 308.728 200 309.063C200 309.033 199.969 309.002 199.938 308.972C201.419 310.89 203.116 312.595 205.491 313.326C205.83 313.417 206.17 313.508 206.509 313.6C207.311 313.752 208.175 313.782 208.977 313.752C209.254 313.752 209.501 313.965 209.501 314.239C209.501 314.513 209.316 314.726 209.039 314.757C207.743 314.817 206.416 314.757 205.152 314.422C203.239 313.935 201.635 313.021 200.093 311.773C199.661 311.407 199.198 311.012 198.797 310.616C198.704 310.525 198.519 310.372 198.427 310.251C197.501 309.094 196.298 308.058 194.848 307.571C193.059 306.962 191.393 307.115 189.573 307.45C189.635 307.45 189.697 307.419 189.758 307.419C188.278 307.906 186.735 308.18 185.162 308.18C181.83 308.18 178.961 307.115 176.154 305.41C175.414 304.983 175.198 304.07 175.599 303.37C176.062 302.578 176.987 302.304 177.727 302.73Z" fill="#CC1719"/>
<path fill-rule="evenodd" clip-rule="evenodd" d="M362.571 152.022C347.856 137.803 311.517 133.541 291.373 139.813C261.82 149.038 249.851 163.713 251.949 182.285C248.247 204.785 276.689 236.601 308.062 228.716C318.704 227.254 338.509 217.451 357.018 220.039C374.941 219.978 389.594 210.539 386.478 200.34C386.509 195.438 388.823 194.646 392.062 192.393C389.625 173.852 381.08 160.821 362.571 152.022Z" fill="#FF5457"/>
<path fill-rule="evenodd" clip-rule="evenodd" d="M141.357 136.038C152.494 147.394 149.532 164.748 138.488 175.861C127.414 186.944 96.5038 218.212 85.3367 206.855C74.1696 195.499 90.0565 146.663 101.131 135.581C112.206 124.468 130.221 124.681 141.357 136.038Z" fill="#FF3B3D"/>
<path d="M197.316 181.676L197.193 181.616C196.761 181.433 196.576 180.885 196.452 180.489C196.391 180.276 196.391 180.093 196.329 179.88C196.236 179.484 196.206 179.089 196.206 178.662C196.175 178.023 196.175 177.384 196.236 176.744C196.607 171.995 198.396 167.154 200.524 162.922C204.812 154.244 211.29 146.45 218.2 139.661C227.27 130.77 237.727 123.129 248.74 116.796C248.74 116.796 248.709 116.826 248.679 116.826C252.072 114.786 255.496 112.868 259.075 111.133C262.036 109.702 265.059 108.453 268.144 107.357C276.442 104.435 285.111 102.76 293.871 101.725C295.969 101.481 298.098 101.238 300.195 101.085C300.781 101.025 301.368 100.994 301.923 100.933C302.2 100.903 302.54 100.872 302.817 100.872C302.941 100.872 303.064 100.872 303.188 100.872C303.866 100.872 304.576 100.903 305.254 100.903C306.488 100.903 307.691 100.903 308.925 100.903C313.337 100.781 317.625 100.416 321.943 99.5632C325.275 98.9238 328.545 97.98 331.815 96.9752C334.098 96.2445 336.411 95.4834 338.725 94.9049C339.743 94.6613 340.823 94.3569 341.841 94.2655C342.211 94.2351 342.581 94.1742 342.92 94.1742C343.321 94.1742 343.938 94.1742 344.308 94.3264C344.339 94.3569 344.37 94.3569 344.432 94.3873C344.463 94.3873 344.555 94.5091 344.586 94.5396L344.679 94.6309L344.709 94.7527C344.864 95.3616 344.401 95.8487 344.093 96.3359C343.969 96.549 343.753 96.7317 343.599 96.9448C343.321 97.2188 343.075 97.5537 342.797 97.8277C342.519 98.0713 342.242 98.3758 341.964 98.6193C341.44 99.1065 340.823 99.5936 340.267 100.081C339.434 100.751 338.571 101.42 337.707 102.029C334.931 104.039 331.938 105.866 328.853 107.388C326.879 108.332 324.905 109.154 322.838 109.884C316.576 112.107 309.82 113.142 303.188 113.629C303.404 113.629 303.619 113.599 303.866 113.599C297.913 114.664 291.959 115.791 286.067 117.252C282.458 118.166 278.879 119.17 275.362 120.419C271.661 121.728 268.082 123.281 264.596 125.047C262.56 126.082 260.555 127.178 258.581 128.304C257.841 128.731 257.1 129.157 256.36 129.583C254.879 130.405 253.429 131.227 251.979 132.08C250.375 133.023 248.802 133.998 247.198 135.003C238.591 140.391 230.355 146.298 222.673 152.966C217.491 157.441 212.524 162.374 208.206 167.671C206.509 169.772 204.874 171.934 203.362 174.156C202.53 175.344 201.727 176.562 200.956 177.81C200.586 178.358 200.216 178.906 199.846 179.454C199.722 179.606 199.599 179.819 199.476 180.002C199.383 180.124 199.29 180.245 199.198 180.367C198.766 180.885 198.365 181.463 197.686 181.707C197.655 181.707 197.532 181.707 197.501 181.707H197.316V181.676Z" fill="#FF5759"/>
<path fill-rule="evenodd" clip-rule="evenodd" d="M205.398 97.9799C234.365 73.8056 284.093 72.5269 303.218 81.6912C314.324 86.1972 310.776 95.5138 301.275 91.6471C278.262 85.0403 256.329 88.9678 234.797 97.1578C207.62 107.601 196.452 124.011 191.578 149.373C188.679 163.47 178.437 168.25 166.036 172.025C167.64 166.362 167.825 160.699 166.653 155.006C175.938 150.591 180.843 144.014 183.959 133.511C188.679 120.662 194.602 107.631 205.398 97.9799Z" fill="#DE2629"/>
<path fill-rule="evenodd" clip-rule="evenodd" d="M251.424 185.878C248.648 164.566 261.388 149.373 284.586 141.213C313.954 131.501 348.411 137.164 362.386 152.265C358.159 161.551 360.38 169.467 371.393 177.353C361.584 186.487 353.409 186.791 335.085 168.676C322.807 153.544 273.943 158.416 270.889 177.992C272.062 193.764 260.062 207.312 255.404 197.6C252.442 194.251 251.794 190.688 251.424 185.878Z" fill="#FA3D40"/>
<path fill-rule="evenodd" clip-rule="evenodd" d="M280.668 175.161C278.108 186.091 281.81 193.459 288.658 202.228C294.118 211.301 280.082 216.416 272.802 209.382C262.807 201.132 260.771 184.812 266.571 173.334C270.242 163.196 284 163.104 280.668 175.161Z" fill="#FF9191"/>
<path fill-rule="evenodd" clip-rule="evenodd" d="M373.213 174.004C367.291 185.726 375.373 197.965 386.787 199.914C386.293 210.418 377.162 214.68 363.219 218.395H352.082C342.458 218.669 332.833 220.891 323.208 224.118C300.134 229.721 294.643 221.561 306.396 222.627C321.45 222.231 336.782 209.443 349.645 203.415C360.257 198.726 366.334 192.18 361.337 177.201C365.162 176.135 369.851 175.922 373.213 174.004Z" fill="#F73338"/>
<path fill-rule="evenodd" clip-rule="evenodd" d="M343.414 145.567C351.188 137.864 367.383 134.089 383.393 139.448L408.504 149.038C402.057 155.432 401.625 162.83 404.062 171.386C390.365 168.493 378.118 169.772 366.396 172.725C351.342 171.081 339.249 154.823 343.414 145.567Z" fill="#FF5457"/>
<path fill-rule="evenodd" clip-rule="evenodd" d="M407.794 149.069C410.787 148.795 412.483 153.605 411.619 159.786C410.756 165.997 407.671 171.233 404.709 171.507C401.748 171.781 400.051 166.971 400.884 160.79C401.717 154.579 404.833 149.343 407.794 149.069Z" fill="#A32626"/>
<path fill-rule="evenodd" clip-rule="evenodd" d="M354.211 160.181C356.956 155.98 360.257 156.954 367.167 156.376C375.157 155.432 383.147 155.462 391.136 155.736C394.159 156.284 397.553 157.319 398.787 159.116C398.571 162.526 397.398 165.966 399.465 168.95C390.057 166.636 385.306 165.235 374.2 167.58C370.53 168.889 367.599 169.772 364.391 169.437C356.679 168.067 352.514 163.135 354.211 160.181Z" fill="#F73338"/>
<path d="M348.689 146.481C349.306 146.054 349.923 145.628 350.54 145.202C351.99 144.258 353.594 143.406 355.167 142.705C357.018 141.883 358.992 141.244 360.967 140.787C361.769 140.605 362.571 140.483 363.404 140.361C364.298 140.239 365.224 140.178 366.149 140.117C367.414 140.056 368.709 140.087 369.974 140.178C371.332 140.239 372.751 140.483 374.077 140.757C374.725 140.879 375.373 141.061 376.021 141.213C376.853 141.457 377.686 141.67 378.519 141.914C379.846 142.31 381.172 142.705 382.468 143.192C385.707 144.319 388.853 145.689 391.969 147.12C392.709 147.455 393.45 147.79 394.19 148.125C394.653 148.307 395.116 148.521 395.609 148.734C396.226 148.977 396.535 149.708 396.288 150.317C396.041 150.956 395.301 151.23 394.684 150.987C393.913 150.713 393.141 150.378 392.339 150.134C390.396 149.464 388.452 148.855 386.447 148.49C385.491 148.307 384.566 148.125 383.609 148.003C382.776 147.881 381.913 147.82 381.08 147.729C379.105 147.546 377.1 147.485 375.095 147.424C370.283 147.211 365.347 147.607 360.72 149.099C358.406 149.86 356.216 150.804 354.118 152.022C353.686 152.265 353.285 152.509 352.853 152.783C351.126 153.909 348.781 153.453 347.609 151.717C346.468 149.951 346.931 147.638 348.689 146.481Z" fill="#FF7A7D"/>
<path d="M260.895 119.14L260.771 118.836L260.74 118.683V118.47L260.771 118.135L260.925 117.648L261.296 116.826L262.314 115.486L263.424 114.36L264.596 113.325L265.83 112.381L267.126 111.498L268.422 110.676L269.748 109.915L271.105 109.184L272.494 108.514L273.882 107.905L275.301 107.327L276.72 106.779L278.17 106.292L279.65 105.835L281.1 105.409L282.581 105.043L284.093 104.709L285.573 104.435L287.085 104.191L288.627 103.978L290.139 103.826L291.681 103.704L293.224 103.643H294.766L296.308 103.673L297.851 103.795L299.424 104.008L300.967 104.252L302.54 104.678L304.082 105.317L304.884 105.805L305.285 106.17L305.47 106.444L305.563 106.596L305.625 106.748L305.686 107.083L305.656 107.388L305.625 107.54L305.532 107.753L305.378 108.027L305.008 108.423L304.298 108.971L302.879 109.763L301.46 110.372L300.041 110.92L298.684 111.407L297.296 111.833L295.938 112.229L294.581 112.625L293.193 113.02L291.866 113.386L290.509 113.751L289.183 114.086L287.825 114.451L286.499 114.817L285.172 115.152L283.846 115.517L282.519 115.852L281.193 116.217L279.897 116.552L278.571 116.917L277.213 117.252L275.887 117.618L274.56 117.953L273.203 118.288L271.846 118.622L270.458 118.957L269.069 119.292L267.65 119.566L266.201 119.81L264.689 119.993L263.085 120.023L262.159 119.932L261.666 119.749L261.357 119.597L261.203 119.475L261.08 119.384L260.895 119.14Z" fill="#FF8A8C"/>
<path d="M221.748 81.8739C221.501 81.2954 221.964 80.5951 222.242 80.1689C222.242 80.1689 222.427 79.9253 222.427 79.8949L222.859 79.4382C223.013 79.286 223.167 79.1337 223.321 78.9815C223.445 78.8293 223.63 78.677 223.784 78.5552C224.062 78.2812 224.401 78.0072 224.71 77.7636C224.925 77.581 225.203 77.3983 225.45 77.2156C226.653 76.3327 227.918 75.5411 229.244 74.7799C232.36 72.9532 235.753 71.4308 239.116 70.1826C251.702 65.4634 265.738 63.8802 279.064 65.433C283.136 65.9201 287.208 66.6812 291.157 67.7469C292.483 68.1122 293.81 68.508 295.105 68.9647C297.697 69.8476 300.165 70.7915 302.602 72.0093C303.805 72.6182 304.977 73.2576 306.087 73.9883C306.334 74.171 306.612 74.3537 306.859 74.5364C307.013 74.6581 307.198 74.7799 307.352 74.9322L307.846 75.3584L308.339 75.7846L308.555 76.0282C308.895 76.424 309.388 77.0329 309.265 77.581C309.265 77.6114 309.265 77.6723 309.265 77.7028C309.049 78.2812 308.216 78.4639 307.692 78.5857C307.568 78.5857 307.476 78.6161 307.352 78.6466C307.167 78.677 306.951 78.677 306.735 78.7075C306.303 78.7075 305.902 78.7684 305.47 78.7684C305.069 78.7684 304.668 78.7684 304.236 78.7684C302.324 78.7379 300.35 78.5248 298.437 78.3421C293.347 77.855 288.288 77.3374 283.167 77.0329C276.751 76.6676 270.303 76.5762 263.887 76.972C258.427 77.307 253.028 77.9159 247.599 78.7684C242.509 79.56 237.45 80.5951 232.391 81.5694C231.28 81.7825 230.17 81.9957 229.028 82.1783C228.288 82.3001 227.517 82.4219 226.745 82.5133C226.344 82.5437 225.943 82.5741 225.542 82.635C225.111 82.6655 224.74 82.6655 224.308 82.6655H223.692L223.352 82.635C222.859 82.5437 222.026 82.4219 221.748 81.8739Z" fill="#FF787A"/>
<path d="M309.265 226.645C310.128 226.919 310.992 227.224 311.856 227.498C312.411 227.68 312.967 227.924 313.522 228.137C314.046 228.35 314.571 228.563 315.064 228.807C315.897 229.203 316.761 229.568 317.594 230.025C318.766 230.634 319.877 231.273 320.987 232.004C321.481 232.308 321.913 232.674 322.406 232.978C322.838 233.283 323.301 233.648 323.702 233.983C323.918 234.166 324.134 234.348 324.35 234.531C325.152 235.231 325.954 235.962 326.663 236.723C328.391 238.58 329.902 240.529 331.198 242.751C331.784 243.756 332.339 244.852 332.833 245.887C332.925 246.1 333.018 246.344 333.141 246.557C333.388 247.105 333.635 247.714 333.851 248.262C333.913 248.475 333.974 248.749 334.036 248.962C334.128 249.328 334.252 249.724 334.344 250.089C334.745 251.368 335.208 252.555 335.763 253.803C335.918 254.169 336.134 254.564 336.35 254.96C336.843 255.874 337.368 256.757 337.985 257.64C338.663 258.553 339.373 259.375 340.175 260.197C340.792 260.836 341.501 261.384 342.18 261.932C342.55 262.206 342.951 262.48 343.352 262.724C344.864 263.729 346.745 264.52 348.473 265.099C348.442 265.099 348.411 265.099 348.411 265.068C350.941 265.677 353.625 266.286 355.753 267.839C356.154 268.113 356.494 268.448 356.833 268.752C356.987 268.905 357.11 269.087 357.265 269.24C357.512 269.544 357.512 270.001 357.203 270.275C356.895 270.549 356.432 270.518 356.154 270.214C355.815 269.848 355.476 269.514 355.074 269.209C353.131 267.748 350.386 267.291 348.041 266.895C347.887 266.865 347.702 266.834 347.548 266.773C347.301 266.712 347.054 266.652 346.807 266.56C346.067 266.347 345.296 266.104 344.555 265.799C343.229 265.251 341.995 264.703 340.761 263.942C340.36 263.698 339.928 263.424 339.558 263.15C338.941 262.724 338.355 262.298 337.799 261.811C336.874 261.049 336.041 260.197 335.239 259.284C334.745 258.736 334.283 258.127 333.851 257.518C333.604 257.152 333.357 256.787 333.08 256.422C332.709 255.843 332.37 255.234 332.062 254.656C331.167 253.012 330.488 251.337 329.871 249.571C329.871 249.632 329.902 249.724 329.933 249.784C329.193 248.293 328.452 246.862 327.558 245.461C327.249 244.974 326.91 244.456 326.571 244C326.17 243.452 325.799 242.904 325.337 242.386C324.812 241.747 324.319 241.138 323.763 240.529C321.727 238.367 319.476 236.632 316.946 235.109C315.434 234.196 313.892 233.435 312.319 232.704C311.671 232.4 310.961 232.095 310.314 231.852C309.45 231.517 308.586 231.212 307.722 230.908C306.55 230.512 305.933 229.233 306.334 228.046C306.797 226.858 308.092 226.25 309.265 226.645Z" fill="#C91719"/>
<path d="M345.913 240.651L346.159 240.438L346.283 240.377L346.499 240.316L346.869 240.255H347.517L348.658 240.438L349.707 240.772L350.694 241.168L351.65 241.625L352.545 242.112L353.44 242.66L354.303 243.208L355.136 243.817L355.938 244.426L356.709 245.065L357.481 245.735L358.252 246.405L358.961 247.105L359.671 247.836L360.35 248.567L361.028 249.328L361.645 250.089L362.262 250.85L362.879 251.642L363.465 252.433L364.021 253.255L364.576 254.077L365.1 254.93L365.594 255.782L366.087 256.635L366.519 257.518L366.951 258.401L367.352 259.314L367.753 260.228L368.123 261.141L368.494 262.085L368.802 263.029L369.11 263.972L369.388 264.916L369.666 265.86L369.913 266.834L370.128 267.809L370.344 268.783L370.53 269.788L370.684 270.792L370.838 271.797L371.054 273.807L371.177 275.846L371.239 277.917L371.208 280.018L371.085 282.118L370.869 284.219L370.56 286.35L370.098 288.451L369.481 290.582L368.586 292.683L367.938 293.718L367.476 294.205L367.167 294.449L366.951 294.54L366.797 294.601L366.427 294.632C366.396 294.632 366.334 294.601 366.303 294.601C365.625 294.449 365.193 293.627 364.946 293.049C364.853 292.835 364.761 292.622 364.668 292.379C364.637 292.348 364.452 291.618 364.422 291.557C364.298 291.161 364.175 290.704 364.051 290.308C363.805 289.395 363.65 288.421 363.434 287.477C363.188 286.198 362.972 284.889 362.725 283.61C362.386 281.783 362.077 279.926 361.707 278.13C360.874 273.989 359.887 269.909 358.53 265.921C357.172 261.993 355.476 258.279 353.378 254.625C351.866 252.007 350.2 249.48 348.535 246.983C347.671 245.705 346.776 244.396 346.159 242.965C345.913 242.386 345.512 241.473 345.851 240.833C345.851 240.742 345.882 240.681 345.913 240.651Z" fill="#FF7375"/>
<path fill-rule="evenodd" clip-rule="evenodd" d="M250.715 175.13C256.607 158.385 267.219 146.907 287.239 140.3C306.149 136.342 322.036 135.703 340.823 139.478C351.404 143.223 365.378 134.972 372.72 128.913C363.157 133.632 354.643 136.129 342.396 134.18C322.098 131.075 301.121 125.046 284.339 130.222C260.74 137.743 253.553 150.53 249.203 169.498C247.815 178.205 250.159 179.545 250.715 175.13Z" fill="#CC0D0F"/>
<path fill-rule="evenodd" clip-rule="evenodd" d="M167.146 91.4949C154.283 110.311 157.028 131.684 167.887 154.397C172.483 163.957 169.121 170.533 164.679 176.653C158.848 180.337 153.357 181.859 153.82 178.875C158.509 172.116 166.221 164.596 157.059 150.591C142.622 122.824 150.334 93.5044 165.913 75.3889L167.146 91.4949Z" fill="#CF1214"/>
<path fill-rule="evenodd" clip-rule="evenodd" d="M134.571 142.309C136.329 152.022 133.799 158.537 129.049 166.332C125.254 174.4 134.972 178.936 140 172.695C146.91 165.388 148.298 150.865 144.319 140.696C141.758 131.653 132.288 131.562 134.571 142.309Z" fill="#FF696B"/>
<path fill-rule="evenodd" clip-rule="evenodd" d="M343.661 157.38C343.167 167.732 350.756 175.922 361.892 177.383C370.221 177.871 375.404 174.369 382.067 170.99C387.219 168.585 394.252 168.98 402.797 170.624C397.614 165.966 391.321 163.652 383.023 165.388C379.229 166.484 374.602 167.854 370.807 168.189C363.866 168.585 361.491 168.463 356.802 165.266C353.686 163.439 351.774 159.451 349.306 157.867C346.622 156.193 343.506 154.762 343.661 157.38Z" fill="#DE1417"/>
<path d="M284.771 229.325C285.697 235.231 288.134 240.529 291.465 245.461C292.36 246.77 293.316 248.049 294.303 249.267C294.673 249.754 295.075 250.211 295.476 250.667C295.661 250.911 295.938 251.155 296.123 251.429C296.925 252.525 297.573 253.621 298.19 254.778C298.437 255.204 298.622 255.661 298.838 256.117C299.116 256.696 299.332 257.366 299.548 258.005C300.164 259.862 300.504 261.78 300.689 263.729C300.905 266.073 300.874 268.387 300.967 270.731C300.967 271.158 300.997 271.584 301.028 272.01C301.213 275.481 301.491 278.921 301.429 282.392C301.429 283.701 301.368 285.041 301.244 286.35C301.09 287.812 300.874 289.182 300.596 290.613C300.226 292.5 299.578 294.449 298.869 296.245C298.406 297.372 297.882 298.468 297.45 299.564C296.987 300.721 296.555 301.878 296.154 303.065C295.969 303.644 295.815 304.192 295.63 304.74C295.352 305.684 295.105 306.658 294.889 307.602C293.594 313.204 293.532 318.745 294.18 324.469C294.18 324.438 294.18 324.408 294.18 324.378C294.673 327.696 294.982 330.984 294.982 334.333C294.982 340.849 293.964 347.364 291.712 353.484C291.28 354.641 290.817 355.768 290.324 356.925C290.108 357.442 289.861 357.99 289.614 358.477C289.46 358.782 289.244 359.086 289.059 359.391C288.751 359.908 288.411 360.456 288.103 360.974C287.054 362.648 285.974 364.353 284.956 366.058C283.907 367.763 282.951 369.499 282.057 371.295C281.1 373.183 280.236 375.162 279.589 377.171C279.157 378.48 278.817 379.79 278.509 381.129C278.509 381.038 278.54 380.916 278.54 380.825C278.509 381.555 278.478 382.256 278.416 382.986C278.262 384.296 278.077 385.544 277.738 386.823C277.09 389.35 276.041 391.968 274.715 394.221C274.283 394.982 273.851 395.743 273.357 396.474C272.617 397.54 271.907 398.605 271.105 399.58C270.488 400.341 269.902 401.102 269.254 401.833C268.113 403.142 266.972 404.39 265.799 405.669C265.491 406.004 265.152 406.369 264.843 406.704C264.658 406.887 264.442 407.161 264.226 407.313C263.362 407.922 262.499 408.5 261.604 409.109C260.802 409.688 260.031 410.297 259.26 410.906C257.902 412.002 256.607 413.159 255.404 414.407C254.694 415.138 253.985 415.899 253.337 416.69C253.059 417.025 252.751 417.391 252.504 417.756C252.072 418.334 251.671 418.913 251.27 419.491C251.085 419.765 250.869 420.1 250.715 420.374C250.499 420.77 250.252 421.166 250.005 421.592C249.789 422.018 249.573 422.414 249.357 422.84C248.74 424.058 248.278 425.367 247.846 426.677C247.846 426.646 247.846 426.646 247.877 426.616C247.661 427.377 247.476 428.169 247.198 428.93C246.55 430.817 245.748 432.614 244.761 434.319C242.447 438.338 239.27 441.717 236.185 445.157C236.216 445.127 236.247 445.066 236.278 445.005C235.691 446.01 235.167 447.076 234.828 448.172C234.673 448.659 234.55 449.146 234.427 449.633C234.303 450.212 234.211 450.82 234.149 451.399C234.026 452.373 233.995 453.5 234.057 454.444C234.118 455.296 234.18 456.118 234.303 456.971C234.643 459.345 235.321 461.72 236.093 464.004C236.247 464.491 236.432 464.978 236.617 465.495C237.604 468.236 238.992 470.854 240.874 473.137C241.769 474.264 242.817 475.269 243.897 476.182C244.206 476.456 244.236 476.913 243.959 477.217C243.681 477.522 243.218 477.552 242.91 477.278C242.416 476.882 241.954 476.456 241.491 476.03C240.164 474.69 238.931 473.259 237.913 471.646C237.789 471.432 237.635 471.189 237.481 470.976C236.987 470.123 236.555 469.301 236.123 468.388C235.753 467.627 235.445 466.835 235.136 466.013C234.735 464.887 234.334 463.76 233.964 462.634C232.607 458.158 231.712 453.317 232.853 448.689C233.131 447.532 233.532 446.284 234.087 445.218C234.242 444.914 234.396 444.64 234.55 444.335C234.612 444.244 234.673 444.061 234.766 443.97C235.044 443.635 235.321 443.3 235.599 442.996C236.679 441.747 237.789 440.469 238.838 439.19C240.473 437.15 241.985 435.049 243.218 432.735C243.99 431.304 244.668 429.66 245.1 428.138C245.347 427.255 245.563 426.342 245.841 425.459C246.303 423.906 246.951 422.323 247.661 420.861C249.234 417.665 251.393 414.742 253.861 412.184C254.416 411.606 255.003 410.997 255.589 410.449C255.866 410.205 256.144 409.931 256.422 409.688C256.699 409.414 257.039 409.14 257.347 408.896C257.779 408.531 258.18 408.165 258.643 407.83C259.013 407.556 259.352 407.252 259.691 407.008C260.617 406.308 261.542 405.638 262.468 404.969C262.406 405.029 262.314 405.09 262.252 405.182C264.967 402.167 267.65 399.153 269.902 395.774C270.673 394.647 271.445 393.399 272.031 392.151C272.679 390.811 273.265 389.502 273.697 388.071C274.159 386.579 274.499 385.057 274.684 383.474C274.745 382.865 274.776 382.286 274.807 381.677C274.807 381.251 274.776 380.825 274.838 380.398C275.116 378.937 275.486 377.506 275.887 376.075C276.195 375.01 276.596 373.974 276.967 372.97C277.429 371.721 278.015 370.503 278.571 369.286C279.188 367.946 279.897 366.637 280.637 365.358C282.303 362.374 284.123 359.482 285.82 356.529C285.789 356.59 285.758 356.65 285.727 356.742C286.715 354.58 287.578 352.297 288.257 350.013C288.874 347.852 289.368 345.72 289.738 343.528C290.293 340.24 290.447 336.952 290.386 333.603C290.355 331.563 290.139 329.492 289.892 327.483C289.799 326.661 289.645 325.839 289.522 325.017C289.337 323.738 289.213 322.429 289.152 321.15C289.028 319.324 288.967 317.436 289.059 315.609C289.09 314.817 289.121 314.026 289.213 313.204C289.337 311.438 289.614 309.611 289.954 307.876C290.787 303.461 292.236 299.29 294.026 295.21V295.241C294.581 293.901 295.075 292.561 295.476 291.13C295.877 289.608 296.185 288.025 296.339 286.472C296.494 284.828 296.586 283.153 296.555 281.479C296.555 280.718 296.524 279.926 296.524 279.135C296.524 278.373 296.463 277.612 296.432 276.851C296.401 276.273 296.37 275.694 296.339 275.116C296.247 273.746 296.185 272.376 296.123 271.005C296.062 268.844 296.062 266.682 295.907 264.52C295.877 263.942 295.815 263.363 295.722 262.785C295.661 262.359 295.568 261.932 295.506 261.476C295.352 260.562 295.044 259.588 294.735 258.736C294.458 257.914 294.026 257 293.594 256.239C293.409 255.904 293.224 255.569 293.008 255.265C292.761 254.899 292.514 254.534 292.267 254.169C292.298 254.23 292.36 254.291 292.391 254.351C287.177 248.354 282.859 241.32 280.977 233.587C280.699 232.43 280.452 231.212 280.267 230.025C280.082 228.807 280.915 227.681 282.149 227.467C283.414 227.254 284.586 228.076 284.771 229.325Z" fill="#BA0F12"/>
<path fill-rule="evenodd" clip-rule="evenodd" d="M172.144 151.717C162.396 131.014 157.522 112.899 167.702 97.097C174.674 83.9747 184.792 73.3795 197.131 66.8335C216.874 57.9128 227.918 45.1863 220.823 22.1995L226.838 23.4478C231.99 43.1464 228.843 57.0603 213.234 67.7774C199.969 77.1548 188.586 86.1973 180.35 98.3758C168.812 113.355 170.293 132.719 174.674 150.195L172.144 151.717Z" fill="#FF454A"/>
<path d="M82.4678 168.189C82.437 168.189 82.4061 168.158 82.3444 168.128C81.8817 167.976 81.6658 167.549 81.5115 167.154C81.0488 166.21 80.9254 164.809 80.8946 163.744C80.8329 161.186 81.1722 158.629 81.6658 156.132C81.9743 154.518 82.3753 152.905 82.8689 151.352C84.0102 147.607 85.5218 143.984 87.4036 140.544C87.928 139.6 88.4524 138.595 89.0694 137.651C90.2108 135.855 91.4138 134.089 92.7095 132.384C93.7275 131.044 94.7763 129.705 95.856 128.426C96.9974 127.086 98.1696 125.777 99.4036 124.498C100.36 123.494 101.347 122.519 102.334 121.545C103.105 120.784 103.938 120.023 104.74 119.292C105.727 118.44 106.684 117.587 107.702 116.735C108.257 116.278 108.843 115.821 109.398 115.365C109.368 115.395 109.306 115.426 109.275 115.456C110.015 114.817 110.756 114.177 111.465 113.538C113.686 111.498 115.815 109.336 117.727 107.022C119.177 105.257 120.473 103.491 121.676 101.573C122.231 100.72 122.725 99.8675 123.218 98.9846C123.712 98.1321 124.175 97.1883 124.607 96.2749C125.347 94.6612 126.026 93.0171 126.612 91.3122C126.951 90.277 127.321 89.2114 127.599 88.1458C127.753 87.5673 127.907 86.9888 128.062 86.4103C128.247 85.6492 128.432 84.888 128.617 84.1269C128.617 84.2182 128.586 84.3095 128.586 84.4009C128.709 83.4266 128.864 82.4828 128.987 81.5085C129.08 80.7169 129.203 79.9557 129.296 79.1641C129.542 77.1547 129.758 75.0844 129.851 73.0749C129.913 71.7353 129.974 70.3652 129.943 69.0256C129.943 68.6298 129.943 68.2644 129.913 67.8382C129.851 66.9248 129.82 66.0114 129.697 65.098C129.604 64.4891 129.512 63.9106 129.419 63.3017V63.3321C129.296 62.6319 129.141 61.9316 128.987 61.2314C128.648 59.6482 128.278 58.0345 127.877 56.4513C127.476 54.929 127.044 53.3762 126.488 51.8844C126.118 50.8492 125.748 49.814 125.347 48.8093C124.946 47.8959 124.576 46.9825 124.144 46.0996C123.805 45.3385 123.434 44.5773 123.064 43.8466C122.108 41.898 121.028 40.0408 120.072 38.0923C119.856 37.6051 119.64 37.1789 119.424 36.6613C119.393 36.57 119.301 36.3264 119.301 36.2351C119.301 36.1742 119.332 35.9915 119.332 35.9001L119.455 35.9306C119.517 35.9306 119.64 35.9306 119.702 35.9915C119.825 36.0828 119.949 36.1437 120.072 36.2351C120.319 36.4177 120.566 36.6613 120.812 36.8744C122.17 38.1836 123.404 39.7059 124.576 41.1978C125.131 41.9285 125.717 42.6896 126.211 43.4508C126.458 43.8466 126.735 44.2119 126.982 44.6382C127.907 46.0996 128.802 47.5915 129.573 49.1442C131.671 53.3154 133.244 57.7605 134.478 62.2361C135.342 65.3416 135.712 68.4471 135.866 71.6744C135.928 73.562 135.959 75.4802 135.866 77.3983C135.805 79.225 135.743 81.0823 135.589 82.909C135.527 83.6702 135.496 84.4313 135.434 85.1925C135.404 85.4361 135.373 85.6796 135.311 85.9232C135.249 86.2885 135.218 86.6539 135.126 87.0193C134.848 88.5111 134.571 89.9725 134.231 91.4644C133.368 95.0875 132.164 98.6192 130.622 102.029C129.141 105.196 127.414 108.149 125.378 111.041C124.73 111.985 124.021 112.898 123.28 113.812C122.725 114.543 122.139 115.243 121.553 115.913C120.627 116.948 119.702 118.013 118.745 118.988C118.159 119.597 117.573 120.175 116.987 120.754C116.062 121.697 115.075 122.55 114.087 123.433C113.316 124.133 112.545 124.894 111.774 125.625C110.941 126.447 110.077 127.269 109.275 128.152C108.997 128.487 108.658 128.791 108.38 129.126C107.949 129.583 107.517 130.07 107.085 130.588C106.098 131.714 105.141 132.902 104.185 134.089C103.537 134.881 102.889 135.733 102.303 136.555C102.057 136.921 101.779 137.286 101.532 137.621C100.884 138.534 100.267 139.478 99.6504 140.422C98.7866 141.792 97.9537 143.223 97.1208 144.623C95.0848 148.003 93.1722 151.504 91.3521 155.036C90.5809 156.528 89.8097 158.02 89.0385 159.512C88.329 160.821 87.6503 162.13 86.91 163.409C86.4781 164.17 86.0154 164.901 85.5218 165.662C85.0899 166.301 84.5964 167.001 84.0102 167.488C83.6401 167.823 83.1773 168.219 82.6221 168.189H82.4678Z" fill="#FF5457"/>
<path fill-rule="evenodd" clip-rule="evenodd" d="M87.4344 272.619C91.8766 249.998 99.8972 227.741 118.591 206.399C129.943 193.155 143.486 185.117 160.267 179.423C165.234 177.444 166.931 174.065 167.455 170.442C167.825 163.591 167.424 165.175 164.093 169.224C158.941 175.922 148.144 180.946 137.563 185.421C124.73 190.78 114.427 198.3 103.907 205.79C92.2468 215.898 88.6684 222.596 83.3008 236.479C80.0308 244.669 81.018 254.199 84.072 263.637L87.4344 272.619Z" fill="#CF1214"/>
<path fill-rule="evenodd" clip-rule="evenodd" d="M129.203 369.042C144.041 402.35 163.013 418.121 187.692 441.717C216.905 466.957 233.47 478.526 275.609 478.892C292.823 477.522 291.157 448.994 264.165 449.45C235.815 449.907 220.236 444.914 196.607 427.072C172.576 402.898 156.38 395.5 140.833 363.958C133.398 351.596 124.545 358.477 129.203 369.042Z" fill="#D10D12"/>
<path d="M123.064 268.996C123.033 270.153 123.003 271.34 123.003 272.497C123.003 275.725 123.157 278.982 123.527 282.179C123.65 283.275 123.774 284.402 123.959 285.467C124.021 285.833 124.051 286.198 124.113 286.533C124.391 288.086 124.699 289.669 125.069 291.191C125.162 291.587 125.254 291.983 125.347 292.379C125.501 292.927 125.625 293.475 125.779 293.992C126.118 295.18 126.488 296.306 126.828 297.494C126.828 297.463 126.797 297.402 126.797 297.372C126.982 297.92 127.198 298.437 127.414 298.955C128.339 301.36 129.45 303.735 130.653 306.049C133.182 310.859 136.175 315.305 139.476 319.658C140.062 320.42 140.648 321.211 141.203 322.003C142.468 323.799 143.609 325.809 144.566 327.818C146.91 332.659 148.206 337.683 148.823 342.98C149.039 345.051 149.1 347.09 149.131 349.13V349.1C149.193 350.988 149.254 352.875 149.378 354.793C149.563 357.503 149.902 360.213 150.334 362.892C150.581 364.506 150.889 366.119 151.229 367.702C152.524 373.609 154.344 379.455 156.781 384.996C157.645 386.944 158.54 388.893 159.558 390.781L159.527 390.689C160.051 391.511 160.607 392.333 161.131 393.186C162.704 395.682 164.247 398.21 165.697 400.737C166.622 402.381 167.548 404.025 168.411 405.699C169.244 407.282 170.046 408.896 170.848 410.51C171.033 410.875 170.879 411.301 170.509 411.484C170.139 411.667 169.707 411.514 169.522 411.149C169.09 410.358 168.72 409.535 168.288 408.713C167.949 408.044 167.578 407.404 167.239 406.765C166.992 406.278 166.715 405.791 166.437 405.303C165.974 404.512 165.542 403.69 165.049 402.868C164.185 401.406 163.321 399.945 162.427 398.484C161.501 397.022 160.545 395.561 159.589 394.13C159.218 393.551 158.817 393.003 158.416 392.455C158.262 392.212 158.046 391.938 157.892 391.694C157.769 391.481 157.645 391.268 157.553 391.055C157.398 390.811 157.275 390.537 157.121 390.294C156.596 389.319 156.103 388.345 155.578 387.34C153.141 382.469 151.105 377.415 149.47 372.208C148.977 370.625 148.514 369.012 148.113 367.398C147.805 366.119 147.496 364.841 147.249 363.562C146.756 361.339 146.416 359.056 146.077 356.803C145.707 354.306 145.491 351.749 145.337 349.222C145.337 348.735 145.306 348.217 145.275 347.699C145.213 346.299 145.059 344.929 144.874 343.559C144.35 339.692 143.27 335.612 141.697 332.02C141.234 330.984 140.771 329.949 140.216 328.945C139.969 328.518 139.722 328.092 139.476 327.635C139.26 327.24 138.982 326.844 138.735 326.448C138.458 325.991 138.18 325.565 137.871 325.108C137.193 324.164 136.514 323.251 135.805 322.338C134.756 320.968 133.676 319.598 132.689 318.197C131.763 316.888 130.838 315.548 129.974 314.209C128.216 311.499 126.673 308.698 125.224 305.805C124.452 304.283 123.805 302.73 123.157 301.147C122.972 300.66 122.787 300.203 122.602 299.716C122.509 299.412 122.355 299.107 122.262 298.803C121.892 297.524 121.46 296.245 121.121 294.936C120.596 293.018 120.164 291.1 119.794 289.151C119.085 285.437 118.653 281.601 118.499 277.856C118.375 274.781 118.406 271.767 118.56 268.692C118.591 267.443 119.64 266.499 120.905 266.53C122.139 266.743 123.126 267.778 123.064 268.996Z" fill="#CC1417"/>
<path fill-rule="evenodd" clip-rule="evenodd" d="M355.445 109.519C356.679 116.735 358.746 123.616 365.193 128.761C358.067 132.597 350.416 133.358 342.303 131.349C329.193 126.873 316.051 126.082 302.91 125.808C295.352 124.773 298.129 122.733 301.398 120.601C321.172 119.871 339.774 117.191 355.445 109.519Z" fill="#E02E30"/>
<path fill-rule="evenodd" clip-rule="evenodd" d="M189.635 203.598C188.555 202.258 187.167 206.734 186.828 205.09C186.55 203.659 185.162 204.267 185.131 202.806C185.1 199.792 188.062 188.435 190.961 182.042C191.301 180.733 199.445 166.179 201.172 163.5C202.252 161.856 203.362 160.212 204.535 158.629C205.429 157.441 206.355 156.284 207.28 155.127C208.545 153.544 209.933 152.022 211.321 150.53C216.72 144.745 222.889 139.539 229.491 135.155C232.206 133.328 235.044 131.592 237.943 130.101C238.869 129.613 239.794 129.157 240.751 128.731C241.522 128.396 242.262 128.061 243.064 127.756C243.434 127.604 243.866 127.452 244.267 127.36C244.668 127.269 245.039 127.147 245.44 127.147H245.532C245.594 127.147 245.779 127.239 245.871 127.3C245.871 127.391 245.871 127.574 245.871 127.634C245.81 127.878 245.378 128.396 245.224 128.548C244.668 129.218 243.99 129.827 243.342 130.436C242.817 130.923 242.293 131.379 241.769 131.866C240.967 132.567 240.195 133.297 239.393 133.967C238.314 134.911 237.234 135.916 236.154 136.86C235.198 137.712 234.242 138.595 233.316 139.478C231.681 141.031 230.046 142.584 228.473 144.197C222.581 150.226 217.152 156.832 212.833 164.048C209.933 168.919 207.527 173.974 205.738 179.332C205.059 181.372 204.442 183.442 203.979 185.513C203.918 185.848 203.794 186.152 203.702 186.487C203.486 187.218 203.27 187.948 203.054 188.679C202.468 190.536 201.913 192.424 201.265 194.251C200.771 195.651 200.247 196.991 199.599 198.33C199.167 199.213 198.704 200.127 198.087 200.888C197.44 201.71 192.874 204.846 191.733 204.846C190.807 204.755 190.159 204.237 189.635 203.598Z" fill="#FF787A"/>
<path fill-rule="evenodd" clip-rule="evenodd" d="M107.208 33.0078C106.591 32.338 106.375 31.6073 106.468 30.7853C106.468 30.7853 106.468 30.8157 106.499 30.8157C109.429 33.8603 119.763 33.5863 129.573 30.1763C137.285 27.5275 142.375 23.7218 142.776 20.738C145.614 23.7827 140.031 28.9585 130.283 32.338C120.442 35.748 110.139 36.022 107.208 33.0078Z" fill="#F55E5E"/>
<path fill-rule="evenodd" clip-rule="evenodd" d="M175.661 56.7559C172.021 49.7228 171.064 41.7459 173.501 38.9753C174.272 38.1228 175.29 37.8488 176.432 38.1533C176.37 38.1837 176.339 38.2446 176.278 38.3055C173.841 41.0761 174.797 49.0225 178.437 56.0861C180.905 60.8965 183.99 64.0629 186.458 64.6719C183.99 67.138 179.208 63.6671 175.661 56.7559Z" fill="#F55E5E"/>
<path fill-rule="evenodd" clip-rule="evenodd" d="M189.141 63.728C186.704 66.7117 181.799 62.9668 178.159 55.4162C174.55 47.8655 173.563 39.2797 176 36.3264C178.437 33.3427 183.342 37.0876 186.951 44.6382C190.622 52.1889 191.578 60.7442 189.141 63.728Z" fill="#A32626"/>
<path fill-rule="evenodd" clip-rule="evenodd" d="M216.936 22.6256C216.165 21.834 216.103 21.012 216.596 20.2204C219.897 22.7474 230.077 23.9044 239.979 22.7474C246.859 21.9558 251.887 20.2508 253.645 18.3632C256.113 21.1338 250.129 24.3002 240.165 25.4876C230.077 26.7054 219.65 25.4267 216.936 22.6256Z" fill="#F55E5E"/>
<path fill-rule="evenodd" clip-rule="evenodd" d="M286.591 32.6729C280.267 31.6073 274.56 28.2278 273.913 25.1527C273.697 24.1176 274.067 23.2346 274.9 22.5648C274.9 22.5953 274.9 22.6257 274.931 22.6866C275.609 25.7617 281.254 29.1412 287.609 30.2068C291.805 30.9375 295.229 30.4504 296.895 29.1412C297.419 32.1554 292.853 33.7386 286.591 32.6729Z" fill="#F55E5E"/>
<path fill-rule="evenodd" clip-rule="evenodd" d="M323.393 32.3075C316.082 28.5322 310.499 22.2603 310.931 18.2414C311.054 17.0235 311.702 16.171 312.751 15.6534C312.751 15.7448 312.751 15.8057 312.72 15.897C312.319 19.8855 317.902 26.1878 325.213 29.9631C330.303 32.5815 334.9 33.2818 337.368 32.0944C336.689 35.8392 330.55 35.961 323.393 32.3075Z" fill="#F55E5E"/>
<path fill-rule="evenodd" clip-rule="evenodd" d="M339.589 29.6891C339.157 33.9211 332.524 34.1647 324.843 30.1762C317.131 26.2182 311.239 19.581 311.671 15.3185C312.103 11.0865 318.704 10.8429 326.416 14.8009C334.129 18.7894 340.021 25.4571 339.589 29.6891Z" fill="#A32626"/>
<path fill-rule="evenodd" clip-rule="evenodd" d="M355.105 106.505C351.743 90.1248 354.087 73.897 360.38 70.2739C361.491 69.6345 362.663 69.4518 363.835 69.6345C363.712 69.6954 363.589 69.7563 363.434 69.8172C357.172 73.4403 354.797 89.6681 358.19 106.048C360.967 119.505 366.735 128.913 372.195 129.827C365.995 132.81 358.406 122.55 355.105 106.505Z" fill="#F55E5E"/>
<path fill-rule="evenodd" clip-rule="evenodd" d="M363.157 69.2691C369.419 65.646 377.254 76.0282 380.648 92.3778C384.01 108.758 381.666 124.986 375.373 128.609C369.111 132.232 361.275 121.85 357.882 105.47C354.519 89.12 356.895 72.8618 363.157 69.2691Z" fill="#A32626"/>
<path fill-rule="evenodd" clip-rule="evenodd" d="M398.663 160.06C399.496 153.849 402.612 148.612 405.573 148.338C406.345 148.277 407.054 148.551 407.64 149.13C404.802 149.83 401.933 154.884 401.131 160.79C400.483 165.327 401.255 169.133 402.889 170.746C402.735 170.777 402.612 170.807 402.458 170.807C399.527 171.081 397.83 166.24 398.663 160.06Z" fill="#FF7A7D"/>
<path fill-rule="evenodd" clip-rule="evenodd" d="M399.126 203.933C396.596 202.562 397.861 197.782 401.933 193.246C406.036 188.74 411.404 186.152 413.933 187.522C414.458 187.796 414.797 188.253 415.013 188.77C412.237 188.435 407.671 190.902 404.123 194.829C400.884 198.422 399.434 202.167 400.237 204.267C399.835 204.207 399.434 204.115 399.126 203.933Z" fill="#FF7A7D"/>
<path d="M261.357 47.622L261.296 47.8656L261.234 47.9569L261.141 48.1091L260.987 48.2918L260.648 48.5354L260 48.8094L259.383 48.9616L258.766 49.053L258.149 49.0834H257.532L256.391 48.9616L255.28 48.718L254.2 48.3831L253.182 47.9569L252.195 47.4393L251.27 46.8608L250.406 46.191L249.604 45.4908L248.864 44.7296L248.154 43.9684L247.506 43.1464L246.951 42.2939L246.458 41.411L246.026 40.4976L245.625 39.5842L245.285 38.6404L245.008 37.6965L244.792 36.7527L244.637 35.8089L244.545 34.865L244.514 33.9212V32.9774L244.576 32.064L244.699 31.1506L244.884 30.2677L245.131 29.4152L245.501 28.5931L246.026 27.8015L246.396 27.4362L246.643 27.2535L246.828 27.1926L246.951 27.1622L247.26 27.1317C248.123 27.1622 248.74 28.3191 249.08 28.928C249.172 29.1107 249.265 29.3238 249.357 29.5065C249.542 29.8719 249.697 30.2677 249.851 30.6635C250.221 31.5769 250.591 32.5207 250.961 33.4341C251.578 34.9564 252.226 36.4482 253.028 37.8792C253.861 39.432 254.879 40.8629 256.113 42.1417C256.637 42.7202 257.193 43.2377 257.779 43.7249C258.211 44.0902 258.643 44.4556 259.075 44.8209C259.691 45.3385 260.401 45.917 260.864 46.5564C261.172 46.7695 261.419 47.1653 261.357 47.622Z" fill="#FF6669"/>
<path d="M302.509 54.107C302.509 54.1374 302.509 54.1679 302.478 54.2288C302.386 54.7768 301.83 55.1117 301.368 55.3248C301.183 55.4162 300.967 55.5075 300.751 55.5684C300.535 55.5988 300.35 55.6902 300.134 55.7206C300.041 55.7511 299.949 55.7511 299.825 55.7815C298.992 55.9337 298.252 55.9337 297.388 55.9033C296.586 55.8728 295.784 55.7511 295.013 55.5379C291.373 54.5941 288.319 52.1889 286.745 48.8093C285.234 45.6125 285.172 41.8676 286.499 38.6099C286.807 37.8487 287.177 37.0876 287.671 36.4177C287.763 36.2655 287.887 36.1133 287.979 35.9611C288.288 35.5957 288.658 35.1999 288.997 34.8954L289.275 34.6519C289.368 34.591 289.491 34.5301 289.614 34.4692C289.707 34.4083 290.015 34.1952 290.108 34.1647C290.54 34.0125 290.972 33.8907 291.404 34.0734C291.465 34.0734 291.496 34.1038 291.558 34.1343C291.959 34.3779 292.113 34.865 292.206 35.2912C292.36 36.1742 292.36 37.0876 292.36 38.0009C292.329 40.9238 292.422 43.7857 293.964 46.3432C294.889 47.9264 296.37 49.1747 297.913 50.149C298.745 50.697 299.64 51.2146 300.473 51.7626C301.059 52.1584 301.645 52.5542 302.108 53.1327C302.355 53.4067 302.54 53.7416 302.509 54.107Z" fill="#FF6669"/>
<path fill-rule="evenodd" clip-rule="evenodd" d="M330.211 61.9925C324.319 55.7815 321.882 47.896 326.817 41.8981L315.404 53.8634L330.211 61.9925Z" fill="#ED4042"/>
<path fill-rule="evenodd" clip-rule="evenodd" d="M311.424 92.53L324.658 87.8413C325.954 83.0308 327.805 78.1899 327.65 73.3794C327.219 67.4119 325.985 62.023 321.882 58.9174C317.686 55.7815 312.535 59.3132 316.206 63.9715C320.802 75.7237 317.224 83.7006 311.424 92.53Z" fill="#E01F21"/>
<path d="M319.537 54.2897C319.075 54.5942 318.519 54.5942 317.995 54.4115C317.841 54.3506 317.625 54.3201 317.47 54.2288C317.347 54.1679 317.162 54.0766 317.008 53.9852C316.36 53.6199 315.681 52.9501 315.188 52.3716C312.627 49.1747 312.38 44.8514 314.416 41.3196C316.021 38.5186 319.167 36.4178 322.468 36.296C322.992 36.2656 323.486 36.296 323.979 36.4178L324.288 36.4787C324.411 36.5091 324.596 36.6005 324.751 36.6614C324.843 36.6918 324.967 36.7223 325.059 36.7832C325.121 36.8136 325.152 36.8745 325.213 36.9049C325.522 37.1485 325.799 37.4834 325.892 37.8792C325.954 38.4881 325.707 38.8839 325.368 39.3711C324.997 39.8887 324.596 40.3149 324.165 40.7716C322.746 42.2635 321.234 43.8162 320.617 45.7952C320.247 46.9217 320.154 48.0787 320.216 49.2661C320.247 50.0881 320.308 50.9406 320.308 51.7931C320.308 52.1889 320.278 52.5543 320.216 52.9196C320.123 53.4981 320 53.9243 319.537 54.2897Z" fill="#FF6669"/>
<path fill-rule="evenodd" clip-rule="evenodd" d="M154.314 48.2613C148.144 52.9805 145.275 51.854 140.833 45.2472C137.069 39.097 138.55 36.9049 143.455 33.0078C147.373 31.5159 154.961 42.9028 154.314 48.2613Z" fill="#D6191C"/>
<path d="M379.661 175.557C380.278 175.435 380.895 175.283 381.512 175.161C382.869 174.917 384.288 174.796 385.614 174.735C389.871 174.552 394.221 175.161 398.108 176.866C398.663 177.109 399.188 177.353 399.712 177.627C401.871 178.814 403.784 180.367 405.604 182.011C406.252 182.59 406.869 183.168 407.486 183.747C407.733 183.99 408.01 184.234 408.257 184.508C408.751 184.965 408.781 185.726 408.319 186.213C407.856 186.7 407.054 186.73 406.56 186.274C406.252 186.061 405.974 185.756 405.666 185.543C405.111 185.117 404.524 184.721 403.907 184.386C403.136 183.99 402.396 183.625 401.625 183.351C401.285 183.229 400.915 183.138 400.576 183.016C400.298 182.925 399.928 182.833 399.65 182.803C399.342 182.742 399.003 182.681 398.694 182.651C398.262 182.59 397.799 182.559 397.368 182.498C397.398 182.498 397.429 182.498 397.46 182.529C395.64 182.407 393.789 182.438 392 182.468C391.352 182.468 390.674 182.498 390.057 182.498C389.717 182.498 389.378 182.498 389.039 182.498C388.329 182.498 387.62 182.529 386.91 182.529C384.936 182.559 382.961 182.62 380.987 182.803C378.92 183.168 376.977 181.829 376.607 179.789C376.237 177.871 377.625 175.922 379.661 175.557Z" fill="#FF7A7D"/>
<path fill-rule="evenodd" clip-rule="evenodd" d="M391.846 195.834C390.057 195.286 388.113 195.316 385.923 195.834C382.159 196.443 376.853 194.098 376.36 189.257C376.853 187.979 377.409 186.304 380.308 185.787C386.355 184.843 392.185 184.904 397.584 186.944C399.188 187.552 401.625 189.775 399.805 192.272C398.725 193.733 397.799 195.408 396.997 196.778C396.473 197.752 393.08 196.199 391.846 195.834Z" fill="#F22429"/>
</g>
<circle cx="119" cy="277" r="31.5" fill="#E7E6E6" fill-opacity="0.4" stroke="white" stroke-width="3"/>
<circle cx="119" cy="277" r="26.2895" fill="#E7E6E6" fill-opacity="0.6" stroke="white" stroke-width="3"/>
<circle cx="338" cy="401" r="31.5" fill="#E7E6E6" fill-opacity="0.4" stroke="white" stroke-width="3"/>
<circle cx="338" cy="401" r="26.2895" fill="#E7E6E6" fill-opacity="0.6" stroke="white" stroke-width="3"/>
<circle cx="370" cy="237" r="31.5" fill="#E7E6E6" fill-opacity="0.4" stroke="white" stroke-width="3"/>
<circle cx="370" cy="237" r="26.2895" fill="#E7E6E6" fill-opacity="0.6" stroke="white" stroke-width="3"/>
<rect width="500" height="500" stroke="#F1F1F1"/>
<defs>
<clipPath id="clip0_21_23">
<rect width="348" height="477" fill="white" transform="translate(68 12)"/>
</clipPath>
</defs>
</svg>
