<?xml version="1.0" encoding="utf-8"?>
<!-- Generator: Adobe Illustrator 23.0.5, SVG Export Plug-In . SVG Version: 6.00 Build 0)  -->
<svg version="1.1" id="Слой_1" xmlns="http://www.w3.org/2000/svg" xmlns:xlink="http://www.w3.org/1999/xlink" x="0px" y="0px"
	 viewBox="0 0 1128.1 1566.7" style="enable-background:new 0 0 1128.1 1566.7;" xml:space="preserve">
<style type="text/css">
	.st0{fill-rule:evenodd;clip-rule:evenodd;fill:#A32626;}
	.st1{fill-rule:evenodd;clip-rule:evenodd;fill:#EB3336;}
	.st2{fill-rule:evenodd;clip-rule:evenodd;fill:#ED4042;}
	.st3{fill-rule:evenodd;clip-rule:evenodd;fill:#FF5457;}
	.st4{fill-rule:evenodd;clip-rule:evenodd;fill:#E8292E;}
	.st5{fill-rule:evenodd;clip-rule:evenodd;fill:#FF4245;}
	.st6{fill-rule:evenodd;clip-rule:evenodd;fill:#DE2629;}
	.st7{fill-rule:evenodd;clip-rule:evenodd;fill:#D61417;}
	.st8{fill:#C91214;}
	.st9{fill:#CC191C;}
	.st10{fill:#EB1417;}
	.st11{fill:#CC1719;}
	.st12{fill:#C71417;}
	.st13{fill:#C91417;}
	.st14{fill:#C71719;}
	.st15{fill:#C41214;}
	.st16{fill:#C71214;}
	.st17{fill-rule:evenodd;clip-rule:evenodd;fill:#FF5759;}
	.st18{fill:#CF1C1F;}
	.st19{fill-rule:evenodd;clip-rule:evenodd;fill:#FF7D7D;}
	.st20{fill-rule:evenodd;clip-rule:evenodd;fill:#FF3B3D;}
	.st21{fill:#FF5759;}
	.st22{fill-rule:evenodd;clip-rule:evenodd;fill:#FA3D40;}
	.st23{fill-rule:evenodd;clip-rule:evenodd;fill:#FF9191;}
	.st24{fill-rule:evenodd;clip-rule:evenodd;fill:#F73338;}
	.st25{fill:#FF7A7D;}
	.st26{fill:#FF8A8C;}
	.st27{fill:#FF787A;}
	.st28{fill:#C91719;}
	.st29{fill:#FF7375;}
	.st30{fill-rule:evenodd;clip-rule:evenodd;fill:#CC0D0F;}
	.st31{fill-rule:evenodd;clip-rule:evenodd;fill:#CF1214;}
	.st32{fill-rule:evenodd;clip-rule:evenodd;fill:#FF696B;}
	.st33{fill-rule:evenodd;clip-rule:evenodd;fill:#DE1417;}
	.st34{fill:#BA0F12;}
	.st35{fill-rule:evenodd;clip-rule:evenodd;fill:#FF454A;}
	.st36{fill:#FF5457;}
	.st37{fill-rule:evenodd;clip-rule:evenodd;fill:#D10D12;}
	.st38{fill:#CC1417;}
	.st39{fill-rule:evenodd;clip-rule:evenodd;fill:#E02E30;}
	.st40{fill-rule:evenodd;clip-rule:evenodd;fill:#FF787A;}
	.st41{fill-rule:evenodd;clip-rule:evenodd;fill:#F55E5E;}
	.st42{fill-rule:evenodd;clip-rule:evenodd;fill:#FF7A7D;}
	.st43{fill:#FF6669;}
	.st44{fill-rule:evenodd;clip-rule:evenodd;fill:#E01F21;}
	.st45{fill-rule:evenodd;clip-rule:evenodd;fill:#D6191C;}
	.st46{fill-rule:evenodd;clip-rule:evenodd;fill:#F22429;}
</style>
<g>
	<path class="st0" d="M371.3,432.5c41.5-57.5,63.2-137,124.6-172.4c57.9-33.5,133.1-13.7,199.7-20.5l92.2,20.5
		c-13.7,22.7-41,68.3-44.4,70C740,331.8,519.8,444.4,513,451.3c-6.8,6.9-81.9,63.2-88.8,59.7c-6.9-3.4-49.5-32.4-49.5-32.4
		L371.3,432.5z"/>
	<path class="st1" d="M71.3,881.4c-40.1-94.6-79-247.9-70-336.1c10.5-87.5,61.3-165.2,105-206.6c48.6-55.8,61.6-76.4,63-124.3
		c2.5-69.4-5-92-46.4-151.7l120.6-36c25.2,28.8,40.8,64.1,57.6,104.4c9.6,33.6,25.4,107.1,18.9,140.7
		c14.8,74.8,12.9,84.9,17.2,143.7c4.6,44.6-3.4,86.2-18,126L198.6,786.3L71.3,881.4z"/>
	<path class="st2" d="M74.4,977.1c-36-136.8,10.8-259.2,90-342c40.1-49.2,71.9-73,146.5-93.6c38.8-7.9,67.3-32.8,96-73.8
		c74.3-101.6,151.7-181.8,299.4-196.2c124.2,3.6,204.8-68.7,255.2-84.9c-40.2,94.6,20.1,181.4,29.4,196.7
		c-181.2,87-115.6,196.5-150.3,296.9l93.4-5.4c56.4,57.5,86.4,133.8,71.9,259.2c-23.6,147.9-62.2,290-110,428.5
		c-17.9,50.8-47.4,104.4-88.9,145.8c-78.6,63.2-147.8,68.7-248.8,46.8c-118.9-43.5-214.4-124.2-297.4-225.1
		C165.2,1209.7,118.3,1116.6,74.4,977.1"/>
	<path class="st0" d="M242.3,24.9c9.7,9.9-8.9,27.1-41.4,38.2c-32.6,11.1-66.9,12.1-76.6,2.1c-9.7-10,8.9-27.1,41.4-38.2
		C198.3,15.8,232.6,14.9,242.3,24.9"/>
	<path class="st2" d="M272.5,116c38-2.5,59.4-11.7,80.3-39.5c-1.7,35.8,13.9,71.4,34.7,96.8c-36.4,4.6-66.9,25.6-86.8,51.8
		C253.9,227.2,227.1,132.6,272.5,116"/>
	<path class="st2" d="M309.4,282.7c20.3-41.5,61.8-97.1,116.6-118.8c54.9-24.2,62.5-77.5,54.5-140.4c24.8,12.3,93.2,11.7,122.8-9.1
		c-1.3,31.8,0.3,72.9,31.6,72.1c17-5.1,32.2-25.2,34-53.6c17.2,16.6,39.7,28,74.1,20.1c-8.3,14.6-4.2,46,5.6,55.7
		c8,17.7,70.4,22.3,98.6,52.4c16,16,8.5,69.4-5.7,104.1c-27.2-9.6-31.3,16.6-61.2,12.9c-39.4-4.7-77.6-24.3-189.4-0.1
		c-97.7,24.2-168.6,76.2-182.7,197.8c-22.4,52.5-60.2,74.3-108.5,75.3c22-14.6,32.3-59.8,16.7-91.6
		C286.1,397.8,285.9,335.4,309.4,282.7"/>
	<path class="st2" d="M791.8,4.7c-8.7,41.9-27.4,95.8-69.4,101.4l86.7,59.5c10-42.8,32.2-77.3,69.5-101.4
		C835.7,62.9,806.7,43.2,791.8,4.7"/>
	<path class="st0" d="M601.1,11.6c8.8,9.2-10.7,19.8-43.5,23.8c-32.7,3.9-66.5-0.3-75.3-9.5c-8.8-9.2,10.7-19.8,43.5-23.8
		C558.6-1.8,592.3,2.4,601.1,11.6"/>
	<path class="st0" d="M743.4,48.8c2.2,10.1-12.8,15.5-33.3,12c-20.5-3.5-38.9-14.6-41.1-24.7c-2.2-10.1,12.7-15.5,33.3-12
		C722.8,27.7,741.2,38.7,743.4,48.8"/>
	<path class="st3" d="M1026.9,526c43.4,0.3,78.2,16.8,100.5,56.9c-26.5,9-45.9,24.1-56,47.1c-15.9-27.9-48-5.6-71-9.9L1026.9,526z"
		/>
	<path class="st0" d="M1123.9,580.8c8.2,4.5,4.1,20.2-9.1,35.1c-13.3,14.8-30.7,23.3-38.9,18.8c-8.2-4.5-4.1-20.2,9.1-35.1
		C1098.2,584.8,1115.6,576.3,1123.9,580.8"/>
	<path class="st4" d="M670.9,861.3c139.2,64.5,198.2,243,131.8,398.4C736.3,1415,569.3,1488.6,430.1,1424
		c-139.2-64.5-198.3-243-131.8-398.4C364.8,870.4,531.7,796.7,670.9,861.3"/>
	<path class="st5" d="M230.7,1072.2c-32.7-164.7-51-312.1,76.7-435.8c31.2-27.1,5.5-70.2-51.1-35.4
		c-139.1,103-180.5,260.8-116.8,481.1c4.3,25.1,29.7,43.6,51.5,39.3C221.3,1115.4,233.3,1085.4,230.7,1072.2"/>
	<path class="st6" d="M458.6,1040c127.3,52.1,243.4,196.2,259.2,321.6c15.8,125.3-74.7,184.8-202,132.6
		c-127.3-52.1-243.4-196.1-259.2-321.5C240.8,1047.3,331.3,987.9,458.6,1040"/>
	<path class="st7" d="M598.7,565.7c-29.1,64.1,5.4,132.1,41.7,175.6c65.1,70.6,199.1,85.1,264.3,3.6c24.4-35,24.9-46.5,25.3-81.5
		l-182.9-7.3L598.7,565.7z"/>
	<path class="st8" d="M716.6,755c-3.8,5.8-7.8,10.5-13.2,14.9c-12.3,10.1-28.5,14.1-44.2,13.1c-2.4,0-4.7-0.2-7-0.1
		c-3.9,0.1-7.8,0.5-11.7,1.3c-1.7,0.3-3.4,0.7-5.1,1.2c-0.8,0.2-1.6,0.4-2.4,0.7c-0.7,0.2-1.4,0.4-2.1,0.7c-1.4,0.4-3,1-4.4,1.6
		c-3.7,1.7-7.5,3.5-11,5.8c-0.9,0.6-1.8,1.1-2.6,1.8c-0.5,0.4-1.1,0.7-1.6,1.1c-0.5,0.3-0.9,0.7-1.5,1c-1.4,0.8-2.8,1.6-4.3,2.4
		c-3.9,2.1-8.1,3.8-12.3,5.1c-7.4,2.4-15.4,3.4-23.1,2.7c-10.1-0.9-20-4.7-28.6-10c-1.2-0.7-1.6-2.2-0.9-3.3
		c0.6-1.2,2.1-1.6,3.3-0.9c4.7,2.5,9.6,5,14.8,6.3c3.5,0.8,7.4,1.6,11,1.6c1.1,0,2.2,0,3.2,0c1.7-0.1,3.5-0.3,5.1-0.6
		c1.8-0.2,3.6-0.7,5.3-1.3c7.5-2.3,14.5-6.4,20.7-11.2c-0.1,0.1-0.3,0.2-0.4,0.3c1.8-1.6,3.5-3.2,5.4-4.7c6.7-5.3,14.7-10,22.8-12.6
		c2.5-0.8,5-1.6,7.4-2.1c1.2-0.3,2.4-0.5,3.5-0.7c1-0.2,2-0.3,3-0.5c1.1-0.1,2.2-0.2,3.2-0.3c4.6-0.5,9-0.4,13.6-0.4
		c2.5,0,5.1-0.2,7.7-0.5c7.4-0.9,14.6-3.4,20.8-7.5c2-1.3,3.7-2.8,5.4-4.3c3-2.5,5.3-5.7,7.6-8.8c2.3-3.3,6.9-4.2,10.2-1.9
		C718.1,747,718.9,751.6,716.6,755"/>
	<path class="st9" d="M641.3,782.3c-3.9,2.7-7.6,5.5-10.8,9.1c-9.1,9.9-12.6,21.2-13.8,34.4c0-0.2,0-0.4,0-0.7
		c0.3,4.5,0.1,8.8-0.8,13.1c-3.9,18.2-20,29.9-35,38.9c-0.8,0.5-1.8,0.2-2.3-0.5c-0.4-0.7-0.2-1.7,0.5-2.2c2.3-1.5,4.6-3,6.8-4.7
		c8.6-6.3,16.6-14.5,20.2-24.7c1.4-4,2.1-8.3,2-12.5c0-1.6-0.1-3.1-0.3-4.8c-0.1-0.6-0.2-1.2-0.2-1.9c0-0.5,0-1.1,0-1.7
		c0-1.6,0.1-3.2,0.2-4.8c1.1-13.2,5.9-25.5,15.2-35.1c2.1-2.2,4.3-4.1,6.6-5.9c2.1-1.6,4.2-2.9,6.4-4.3c2.3-1.5,5.3-0.9,6.8,1.4
		C644.2,777.8,643.5,780.9,641.3,782.3"/>
	<path class="st10" d="M861.1,786.7l0.3-0.3c1.6-1.6,4.5-1.3,6.5-1l1.3,0.2c0.4,0.1,0.8,0.3,1.3,0.4c3.1,0.9,6.1,2.5,8.9,4.1
		c5.7,3.3,11.1,7.7,15.8,12.4c12,12,21.5,26.6,29,41.8c10.8,21.9,18.1,45.9,22.5,69.8c2.6,14.2,4.2,28.6,4.7,43
		c0.2,4.3,0.3,8.5,0.2,12.7c0,4.2-0.1,8.4-0.3,12.5c-0.1,1.8-0.2,3.6-0.3,5.4c-0.1,1.7-0.2,3.5-0.4,5.1c-0.1,0.6-0.2,1.2-0.3,1.8
		c-0.2,1.7-0.5,3.4-0.7,5.1c-0.7,5.1-1.5,10.1-2.3,15.2c-2.6,17.4-5.6,34.8-8.9,52.1c-7.1,37.5-15.6,74.7-25.9,111.5
		c-14.4,51.5-31.8,101.9-51.1,151.7c0-0.1,0-0.2,0.1-0.4c-10.8,29.9-25.4,58.8-46.1,83.2c-9.9,11.6-21.2,22.4-33.8,31.1
		c-3.4,2.3-6.9,4.4-10.4,6.4c-1.8,1-3.5,1.9-5.4,2.7c-0.1,0.1-1.7,0.8-1.8,0.9c-0.6,0.3-1.2,0.5-1.9,0.8c-0.9,0.4-1.9,0.8-2.7,1.1
		c-0.9,0.3-2,0.6-2.9,0.9c-0.6,0.2-1.3,0.4-1.9,0.6c-0.7,0.1-1.4,0.2-2.1,0.4c-0.7,0.1-1.4,0.2-2.1,0.3c-2.1,0.3-6.3,0.6-7.8-1.6
		c-1.2-1.7-0.4-4.3,0.2-5.9l0.3-1c0.4-0.9,0.9-1.8,1.4-2.6l0.9-1.8c1.2-2.1,2.6-4.3,4-6.3c2.2-3.3,4.4-6.5,6.6-9.8
		c6.7-9.9,13.2-19.8,18.9-30.3c1.3-2.5,2.6-4.9,3.9-7.3c6.2-12.1,11.6-24.9,16-37.7c3.2-9.3,5.9-18.6,8.5-28.1
		c1.1-4.3,2-8.5,3.1-12.8c0.6-2.7,1.4-5.5,2.1-8.2c5.4-20.6,10.8-41.2,16.3-61.8c11.7-43.3,23.2-86.6,33.8-130.1
		c6.1-25.4,12-50.8,17.8-76.2c4.1-17.8,8-35.7,12-53.5c-0.1,0.6-0.2,1.2-0.2,1.8c3.8-22.3,4.9-44.9,3.7-67.5
		c-1.3-26.2-5.2-52.3-12.7-77.5c-2.4-8.2-5.3-16.3-8.5-24.2c-2-4.8-4.2-9.4-6.2-14.2c-1.4-3.1-2.9-6.4-3.8-9.8
		c-0.4-1.7-0.9-3.6,0.1-5.1L861.1,786.7z"/>
	<path class="st11" d="M832.6,737.7c0.9,2.4,2,4.8,2.7,7.3c0.7,2.4,1.4,4.9,1.9,7.3c0.4,1.9,0.8,4,1,5.9c0.1,0.8,0.2,1.6,0.3,2.4
		c0.4,4.2,0.5,8.8,0.2,13c-0.1,1.2-0.2,2.5-0.3,3.8c-0.1,0.8-0.2,1.7-0.3,2.5c-0.2,2.1-0.6,4.4-1,6.4c-1.2,5.8-2.7,11.4-4.8,17
		c-0.5,1.4-1.1,2.8-1.6,4.2c-0.7,1.9-1.3,3.8-1.9,5.6c-1,3.2-1.7,6.5-2.4,9.8c-0.2,1-0.3,2-0.4,3c-0.6,3.7-0.8,7.5-0.8,11.3
		c0,7.6,1.2,14.9,3.2,22.3c0.9,3,2,6,3,9c0.3,0.8-0.1,1.7-0.9,2.1c-0.8,0.3-1.8-0.1-2.1-0.9c-9.2-22.4-12.6-46-4.7-69.4
		c0,0.1,0,0.2-0.1,0.3c0.3-1.5,0.8-2.9,1.1-4.3c0.7-2.7,1.3-5.5,1.8-8.2c1.8-9.8,2.4-20.3,1.1-30.2c-0.6-4.6-1.6-8.8-3-13.2
		c-0.4-1.2-0.8-2.4-1.3-3.5c-0.9-2.5,0.3-5.3,2.9-6.3C828.8,733.9,831.6,735.2,832.6,737.7"/>
	<path class="st12" d="M857.8,693.2c1.1,2.3,2.5,5,4.4,6.7c5.6,5.1,15,4.7,22.1,4.2c2.7-0.2,5.4-0.4,8.1-0.3
		c6.4,0.1,13.6,1.4,18.3,6.2c1.2,1.2,2,2.3,2.8,3.7c1.6,2.6,2.3,6.2,2.4,9.2c0,0.6,0,1.4,0,2c0,0.5-0.1,1.1,0,1.7
		c0,0.5-0.2,1.2-0.3,1.7c-0.1,0.6-0.2,1.2-0.3,1.9c-0.3,2-0.4,4.6,0,6.6c0.5,2.7,1.5,5.5,3.4,7.6c0.3,0.3,0.6,0.8,1,1.1
		c0.7,0.6,1.4,1.3,2.2,1.9c0.5,0.3,1,0.6,1.5,1c1.1,0.7,1.5,2.2,0.8,3.3c-0.7,1.1-2.2,1.5-3.3,0.8c-1.9-1.1-3.8-2.4-5.4-3.9
		c-1.2-1.2-2.3-2.4-3.2-3.7c-3.8-5.6-4.8-11.8-4.7-18.4c0,0.2,0,0.4,0,0.6c-0.4-2-0.8-4.4-1.9-6.1c-0.5-0.7-0.9-1.3-1.6-1.9
		c-2.1-1.7-5.7-1.6-8.3-1.5c-1.1,0-2.5,0.2-3.6,0.3c-1,0.2-2.1,0.3-3.1,0.5c-3.3,0.5-6.6,1.2-10,1.4c-8.5,0.4-17.4-0.6-24.4-5.9
		c-1.9-1.5-3.2-2.8-4.8-4.7c-1.9-2.3-3.4-5-4.6-7.7c-0.3-0.7-0.6-1.4-0.8-2.1c-1.7-3.7,0-8,3.7-9.7
		C851.8,687.8,856.2,689.5,857.8,693.2"/>
	<path class="st13" d="M759.3,897.6c0.4,2.9,1,5.8,1.8,8.6c0.4,1.6,1,3.2,1.6,4.8c0.6,1.5,1.3,2.8,2,4.2c0.5,1,1.2,2.3,1.9,3.1
		c0.8,1.2,1.7,2.5,2.7,3.6c2,2.3,4.1,4,6.5,5.8c1.2,0.8,2.5,1.6,3.8,2.3c0.5,0.3,1.1,0.5,1.5,0.8c0.8,0.5,1.6,1.1,2.4,1.6
		c2.2,1.5,4.3,3,6.5,4.7c2,1.5,4.1,3.1,6,4.8c0.7,0.6,1.5,1.3,2.2,1.9c0.7,0.7,1.5,1.4,2.3,2.1c2.2,2.1,4.3,4.2,6.2,6.6
		c2.8,3.3,5.2,6.7,7.5,10.4c1.2,2,2.2,4.1,3.1,6.2c2,4.3,3.2,9.2,4.2,13.8c0.2,0.9,0.4,1.9,0.6,2.8c0.6,2.8,1,5.8,1.4,8.6
		c0.3,2.2,0.5,4.5,0.7,6.7c0.1,2.4,0.3,4.7,0.4,7.1c0.3,8.4-0.1,17.2-1.3,25.6c-0.5,4.2-1.3,8.2-2,12.3c0-0.2,0-0.4,0-0.6
		c-0.4,9.5-0.2,18.7,0.7,28.2c0.6,6.1,1.7,12.2,2.9,18.1c3.9,18.4,11.3,35.9,20.9,52c0.6,1,0.3,2.2-0.6,2.7c-1,0.6-2.2,0.3-2.8-0.6
		c-4.2-7-8-13.9-11.5-21.2c-9.6-20.2-15.9-42.3-17.9-64.6c-0.3-3.3-0.5-6.5-0.7-9.8c0-1.1-0.1-2.2-0.1-3.3c0-0.6-0.1-1.2,0-1.8
		c0-1.2,0.3-2.5,0.4-3.6c0.2-1.7,0.3-3.4,0.5-5.1c0.4-4.5,0.6-9,0.6-13.5c0-8.2-0.4-16.2-1.7-24.3c-0.3-2.3-0.7-4.7-1.3-7
		c-0.5-2.5-1.1-5-1.7-7.5c-0.4-1.5-0.8-2.9-1.2-4.4c0,0.1,0.1,0.2,0.1,0.3c-4.6-14.4-15.7-25.1-27.5-33.9c-2-1.5-4.1-2.9-6.2-4.4
		c0.2,0.2,0.5,0.3,0.7,0.4c-10-4.9-17.9-13.1-22.5-23.3c-2.3-5-3.8-10.3-4.7-15.7c-0.2-1.2-0.4-2.5-0.5-3.7c-0.5-3.3,1.8-6.5,5.1-7
		C755.6,892,758.8,894.3,759.3,897.6"/>
	<path class="st13" d="M816.4,969.5c2.9,6.2,6.1,12.3,10,17.9c7,9.9,15.7,17.8,26.3,23.7c-0.1,0-0.2-0.1-0.3-0.1
		c2.5,1.1,4.9,2.2,7.3,3.5c2.5,1.5,4.8,2.9,7.2,4.6c1.2,0.9,2.6,2,3.6,3c0.7,0.7,1.5,1.4,2.3,2.2c1.1,1.2,2.2,2.5,3.2,3.8
		c3.6,4.6,6.1,10.7,7.1,16.5c0.8,4.8,0.9,9.4,0.6,14.1c0,0.9-0.8,1.6-1.7,1.6c-0.9,0-1.6-0.8-1.5-1.7c0-1.5,0.1-2.9,0.1-4.5
		c-0.1-3.2-0.5-6.8-1.5-9.9c-1.6-5.2-4.1-9.6-8-13.3c-1.1-1.1-2.4-2.1-3.6-3c-0.7-0.6-1.5-1-2.2-1.5c-1-0.7-2.2-1.4-3.2-1.9
		c-2.9-1.5-5.9-2.8-9.1-4c-1.3-0.4-2.6-0.8-3.9-1.4c-3.4-1.5-6.8-3.2-9.9-5.2c-15.2-9.6-24.9-23.9-31.6-40.4c-1.1-2.5,0-5.4,2.5-6.5
		C812.4,965.9,815.3,967,816.4,969.5"/>
	<path class="st13" d="M820.6,1042.6c-2.1,2.8-4,5.7-5.9,8.7c-5.5,8.9-10,18.2-13.9,27.8c-2.2,5.4-4.2,10.8-6,16.4
		c-1.1,3.5-2.2,7-3,10.5c-0.4,1.7-0.8,3.3-1.2,5c-1.3,5.5-2,11.1-2.6,16.8c0,0.9-0.8,1.5-1.7,1.4c-0.9,0-1.5-0.8-1.5-1.7
		c1.2-16.6,2.2-33.8,6.8-49.9c2.9-10.4,7.3-20.3,13-29.5c1.5-2.4,3.1-4.8,4.8-7.1c1.1-1.5,2.3-3,3.4-4.5c1.7-2.2,4.7-2.5,6.9-0.9
		C821.7,1037.4,822.2,1040.5,820.6,1042.6"/>
	<path class="st14" d="M729,1109c0.4,3.6,0.8,7.2,1.2,10.7c0.5,4.9,1.2,9.7,2.2,14.5c0.3,1.6,0.7,3.2,1.1,4.8
		c1.3,4.3,2.7,8.6,4.9,12.5c0.7,1.3,1.5,2.5,2.3,3.8c1.2,2,2.3,3.9,3.6,5.7c3.7,5.2,7.8,9.4,12.3,13.9c2,2,4.1,4,6.1,6
		c0.7,0.7,1.5,1.4,2.2,2.2c0.5,0.5,1,1,1.5,1.6c0.7,0.7,1.3,1.5,2,2.2c1,1,2,2.3,2.9,3.5c0.7,0.8,1.3,1.8,1.9,2.6
		c3,4.2,5.2,9.6,6.2,14.6c1.1,5.8,0.6,11.5-1.1,17.2c-0.5,1.9-1.3,3.6-2.1,5.4c-0.5,1.2-1.2,2.5-1.8,3.6c-0.4,0.8-1,1.5-1.4,2.2
		c-1.4,2.4-2.9,5-3.1,7.9c0,1.3,1.5,1.7,2.4,2.1c1.1,0.5,3,0.7,4.2,1c1.9,0.4,3.7,1,5.4,1.9c1.3,0.6,2.9,1.6,3.9,2.7
		c0.3,0.3,0.6,0.6,0.9,1c0.7,0.8,1.4,2.1,1.8,3.1c1,2.5,0.9,5.5,0.3,8.1c-0.2,0.9-0.5,1.9-0.8,2.8v-0.1c-1,2.7-2,5.9-2.2,8.7
		c-0.1,1.3-0.2,2.5-0.1,3.8c0,0.4,0,0.8,0.1,1.3c0,0.4,0.1,0.8,0.1,1.2c0.3,1.7,0.9,3.4,1.6,5c0.9,1.9,2.3,3.7,3.8,5.2
		c0.4,0.4,0.9,0.9,1.4,1.3c0.3,0.3,0.8,0.6,1.2,1c0.7,0.9,1.5,1.8,2.3,2.7c2.5,3.2,4.5,6.3,6.4,9.9c1.6,3.2,2.9,6.6,3.7,10
		c0.6,2.5,1,5.2,1.2,7.8c0.2,2.5,0.1,5,0,7.5c-0.1,3.5-0.9,6.9-1.6,10.3c-1.7,7.2-1.3,14.4,1.9,21.1c1.5,3,3.5,5.8,5.8,8.4
		c0.7,0.8,0.6,2.1-0.2,2.8c-0.8,0.7-2.1,0.6-2.8-0.1c-0.5-0.6-1.1-1.2-1.6-1.8c-1.4-1.7-2.7-3.5-3.8-5.4c-2.6-4.3-4.4-9.9-4.7-14.8
		c0-1.1-0.1-2.2-0.1-3.3c0-2.6,0.4-5.1,0.8-7.7c0.2-1.3,0.6-2.7,0.7-4.1c0-0.7,0.2-1.4,0.2-2.2c0.1-0.9,0.1-1.8,0.2-2.7
		c0.1-1.7,0-3.4-0.1-5.1c-0.4-8.5-3.8-16.6-9-23.3c-1.5-1.9-3-3.5-4.7-5.3c0.1,0.1,0.3,0.3,0.4,0.4c-0.9-0.6-1.8-1.3-2.6-2.1
		c-0.8-0.7-1.8-1.7-2.5-2.5c-1-1.2-2.1-2.5-2.8-3.8c-2.6-4.5-4-9.4-3.9-14.6c0-3.1,0.4-6,1.1-9c0.1-0.4,0.2-0.9,0.3-1.4
		c0.3-1.2,1.1-3.4,1.1-4.7c0-0.5,0.1-1.4-0.2-1.8c0-0.1-0.2-0.2-0.2-0.3c-0.4-0.7-2.5-1.2-3.3-1.5c-0.7-0.2-1.9-0.4-2.7-0.5
		c-2.1-0.2-3.9-0.8-5.8-1.5c-1.4-0.5-3-1.5-4.2-2.5c-0.6-0.5-1.5-1.3-1.9-2.1c-5.2-7.5-1-16.1,3.1-23c0,0.1-0.1,0.2-0.2,0.3
		c0.8-1.8,1.6-3.4,2.2-5.2c0.2-0.6,0.4-1.3,0.6-1.9c0.1-0.7,0.4-1.4,0.4-2.1c0.2-2.1,0.5-4,0.3-6.1c-0.5-4.7-2-8.5-4.7-12.4
		c-0.4-0.5-0.8-1.1-1.2-1.6c-0.9-1.2-2-2.4-2.9-3.5c0,0,0,0.1,0.1,0.1c-1.9-2-3.8-3.9-5.7-5.8c-2.5-2.5-5.1-4.9-7.6-7.4
		c-1.4-1.4-2.9-2.8-4.2-4.3c-1.1-1.2-2.2-2.5-3.3-3.7c-3.3-3.9-6.2-8.1-8.6-12.6c0,0.1,0.1,0.1,0.1,0.2c-5.4-8.3-8.5-18.1-10.2-27.8
		c-1.4-7.8-1.9-15.8-2.6-23.8c-0.4-3.4,2-6.4,5.4-6.8C725.5,1103.3,728.6,1105.7,729,1109"/>
	<path class="st14" d="M690.7,1181.5c4.2,6.8,8.1,13.5,11.7,20.6c9.2,18.2,16,38.5,17.9,58.9c0.6,6.7,0.7,13.2,0.4,20
		c-0.1,3.4-0.6,6.9-1,10.2c0-0.3,0-0.6,0-0.9c0,2.1,0,4.2,0,6.2c-0.1,1.6-0.1,3.2-0.3,4.8c-0.3,4.2-1,8.3-1.9,12.4
		c-3,13.9-9.3,27.1-16.9,39c-1.8,2.9-3.7,5.7-5.6,8.5c-0.5,0.7-1,1.5-1.6,2.3c-0.7,0.8-1.5,1.6-2.2,2.5c-1.2,1.4-2.5,2.8-3.7,4.2
		c-4.4,4.9-8.8,9.7-13.2,14.6c0.1-0.2,0.3-0.4,0.4-0.6c-1,1.5-2.1,3-3,4.7c-1.2,2-2.2,4.1-3.2,6.3c-0.5,1.1-0.9,2.3-1.3,3.4
		c-0.8,2.4-1.3,4.9-1.5,7.4c-0.1,1.5-0.1,3,0,4.5c0,0.4,0.1,0.8,0.1,1.2c0.1,0.9,0.4,2,0.7,2.8c0.6,2.5,1.7,4.5,3,6.7
		c0.9,1.5,2.1,2.9,3.2,4.2c3.8,4.3,8.9,7.8,13.8,10.6c1.7,0.9,3.4,1.9,5.1,2.7c-0.1-0.1-0.2-0.1-0.3-0.1c4.7,1.6,8.7,3.6,12.9,6.1
		c2.5,1.5,4.7,3.2,6.9,5c8.9,7.4,15.4,17.4,20.1,27.9c2.1,4.6,3.6,9.1,5.1,13.9c0.3,1-0.2,2.2-1.3,2.5c-1,0.3-2.2-0.2-2.5-1.3
		c-1.1-3.1-2.1-6.2-3.3-9.3c-4.2-10-10.2-20.2-18.4-27.4c-4-3.5-8.1-6.4-12.9-8.7c-1.5-0.7-3-1.4-4.5-2c-1.3-0.4-2.7-0.8-4-1.3
		c-1.4-0.5-2.9-1.3-4.3-2c-8.9-4.4-17.9-10.4-23.1-19.1c-1.1-1.8-2.1-3.7-2.7-5.6c-1.1-3.2-1.7-6-1.8-9.4c-0.2-4.3,0.4-8.1,1.5-12.3
		c1.4-5.2,4.1-10.9,6.9-15.4c0.3-0.6,0.6-1.1,1-1.6l1.8-2.2c1.8-2.2,3.6-4.4,5.3-6.5c3.6-4.4,7.2-8.7,10.8-13
		c-0.2,0.2-0.3,0.4-0.4,0.5c2.4-3.8,4.8-7.5,7-11.4c4.9-8.7,9.1-17.4,12-27c1.8-6,2.9-12.4,3.3-18.6c0.2-2.4,0.2-4.8,0.2-7.2
		c0-0.9-0.1-1.9,0-2.9c0-0.6,0.1-1.2,0.2-1.8c0.1-1.9,0.4-3.7,0.5-5.5c0.4-6.3,0.4-12.8-0.1-19.1c-0.4-4.2-0.9-8.3-1.7-12.4
		c-1.3-7.2-3.2-14.1-5.4-21c-1.3-3.9-2.8-7.7-4.4-11.6c-0.6-1.5-1.3-3-2-4.6c-2.5-5.5-5.1-10.9-8-16.2c-1.9-3.5-3.9-6.8-5.9-10.2
		c-1.7-2.9-0.8-6.7,2.1-8.4C685.2,1177.7,689,1178.6,690.7,1181.5"/>
	<path class="st15" d="M624.6,1301.2c-7.9,6.5-16.2,12.7-25,17.9c-1.8,1-3.6,2.2-5.4,3.1c-2.2,1.2-4.5,2.4-6.8,3.5
		c-1.9,0.9-3.8,1.8-5.8,2.7c-3.3,1.5-6.7,2.6-10.1,3.8c-4.9,1.7-10.4,3.1-15.5,4c-7.2,1.1-14.2,1.8-21.5,1.3
		c-2.9-0.1-5.8-0.4-8.7-0.8c-2-0.3-3.9-0.7-5.9-1.1c-1.2-0.2-2.4-0.5-3.6-0.8c-0.6-0.1-1.2-0.2-1.8-0.4c-1.2-0.4-2.4-1-3.5-1.4
		c-3-1.1-5.9-2.3-8.9-3.3c-6.9-2.4-14.2-4.5-21.5-5.4c-1.4-0.2-2.8-0.3-4.2-0.4c-1.7-0.1-3.5-0.2-5.2-0.1c-2.2,0.1-4.5,0.2-6.6,0.6
		c-0.6,0.1-1.1,0.2-1.7,0.3c-3.4,0.6-6.8,2-9.9,3.4c-1.4,0.7-2.7,1.5-4.1,2.3c-4,2.3-7.6,5.6-10.9,8.9c0.1-0.1,0.2-0.3,0.3-0.4
		c-12.7,17.3-26.6,34.6-43.3,48.2c-0.9,0.7-2.1,0.6-2.8-0.2c-0.7-0.9-0.6-2.1,0.2-2.8c1.8-1.6,3.6-3.1,5.4-4.8
		c1.7-1.5,3.2-3.1,4.9-4.7c2.1-2.1,4.2-4.4,6.1-6.6c1.5-1.7,3-3.4,4.4-5.1c2.4-2.9,4.8-6,7.1-9c2.9-4,5.8-8.2,8.6-12.4
		c1-1.5,2-3,2.9-4.6c0.4-0.6,0.9-1.5,1.4-2.1c0.7-0.8,1.5-1.7,2.3-2.5c2-2.1,4-4.1,6.2-5.9c4.8-3.9,10.4-7.4,16.2-9.3
		c1.7-0.5,3.3-1,5-1.4c0.6-0.1,1.3-0.2,1.9-0.4c1.2-0.3,2.7-0.5,3.9-0.6c2.5-0.2,5-0.5,7.5-0.5c4.8,0.1,9.3,0.5,14.1,1.3
		c9.6,1.5,19.1,4.7,28.3,7.8c-0.2-0.1-0.5-0.1-0.8-0.2c1.1,0.2,2.2,0.5,3.3,0.7c1.8,0.3,3.5,0.6,5.3,0.8c3.8,0.5,7.7,0.6,11.6,0.6
		c2.7,0,5.7-0.1,8.5-0.5c5.1-0.6,10.2-1.5,15.2-2.9c3.8-1.1,7.4-2.3,11.1-3.7c3.4-1.3,6.9-2.8,10.1-4.5c1.9-0.9,3.8-1.9,5.6-2.8
		c7.6-4.2,15-9,22.1-14.2c2.2-1.6,4.3-3.2,6.4-4.9c2.6-2.1,6.5-1.7,8.6,0.9C627.7,1295.2,627.3,1299.1,624.6,1301.2"/>
	<path class="st15" d="M495.5,1324.9c-5-7-10-14-14.9-21.2c0,0,0,0.1,0.1,0.1c-0.9-1.1-1.6-2.1-2.5-3.1c-0.9-0.9-1.9-1.8-2.9-2.6
		c-0.3-0.2-0.7-0.5-1.1-0.7c-1-0.8-2.7-1.7-3.9-2.2c-0.3-0.1-0.7-0.3-1-0.4c-1-0.4-2.4-0.8-3.4-1c-3.4-0.8-6.8-1-10.3-1
		c-1.8,0-3.6,0.2-5.3,0.3c0,0,0.1,0,0.2,0c-4.6,0.6-9.6,1.2-14.2,0.6c-3.1-0.4-5.9-0.9-8.8-1.9c-11.4-4.1-17-14.1-20.5-25
		c-0.3-0.8,0.1-1.7,0.9-2c0.8-0.3,1.8,0.1,2.1,0.9c0.4,1,0.8,2.1,1.2,3.1c1.1,2.7,2.4,5.3,4.1,7.7c1.5,2.1,3,3.9,5,5.6
		c6.3,5.2,14.4,5.6,22.2,4.3c1.4-0.2,2.8-0.5,4.2-0.8c0.8-0.2,1.6-0.5,2.4-0.6c2.2-0.4,4.4-0.8,6.6-1c4.5-0.4,9.4-0.4,13.7,0.6
		c0.8,0.2,1.6,0.4,2.4,0.6c0.6,0.2,1.3,0.4,1.9,0.6c1.5,0.4,3.1,1.3,4.4,2c8.3,4.5,12.1,11.3,17.2,18.9c2.9,4.2,5.7,8.5,8.5,12.7
		c1.5,2.2,0.9,5.2-1.3,6.8C500.1,1327.7,497,1327.1,495.5,1324.9"/>
	<path class="st16" d="M727.4,981.8c-2.2,9-4.3,18-7.2,26.8c-2.7,8.3-5.8,16.1-9.8,23.9c0.1-0.2,0.2-0.5,0.3-0.8
		c-0.7,2-1.4,3.9-2.4,5.8c-0.4,0.9-0.9,1.7-1.4,2.6c-0.9,1.7-2.2,3.2-3.3,4.8c-0.5,0.7-1.1,1.4-1.7,2c-0.6,0.7-1.2,1.4-1.9,2
		c-0.6,0.5-1.1,1.1-1.8,1.7c-1.6,1.4-3.3,2.7-5,3.9c-5.5,3.9-12.4,6.8-18.9,8.7c-0.8,0.2-1.6,0.4-2.5,0.6c-0.6,0.2-1.2,0.4-1.9,0.5
		c-0.8,0.1-1.7,0.1-2.5,0.2c-2,0.2-4.1,0.5-6,0.9c-3.6,0.8-6.8,2-10.1,3.5c-2.1,1-4.1,2.2-6,3.5c-7.7,5.2-13.8,13.1-18.4,21.2
		c-1.1,2-2.1,3.9-3.1,5.9c-0.3,0.8-0.7,1.9-1.2,2.6c-1.8,2.9-3.6,5.9-5.8,8.5c-0.5,0.5-1,1.2-1.5,1.7c-1.1,1.2-2.2,2.4-3.4,3.5
		c-2.4,2.1-4.8,3.8-7.5,5.5c-1.3,0.7-2.7,1.5-4,2.1c-5.4,2.4-10.8,3.7-16.6,4.3c-11.8,1.1-24.1-0.8-35.6-3.4
		c-1.1-0.2-1.8-1.3-1.6-2.4c0.2-1.1,1.3-1.8,2.4-1.6c2.4,0.4,4.8,0.9,7.2,1.3c7.1,1.3,15.1,2,22.3,1.5c2.9-0.2,5.8-0.5,8.6-1.2
		c3.8-0.9,7.2-2,10.6-3.9c1.1-0.6,2.3-1.2,3.2-1.9c1.7-1.2,3.2-2.3,4.7-3.7c2.1-2,3.8-4.1,5.5-6.4c0.7-1,1.6-2.3,2.2-3.4
		c0.8-1.5,1.6-2.9,2.3-4.4c0,0.1-0.1,0.2-0.2,0.4c1.5-3.9,3.1-7.8,5-11.6c5.2-10,11.9-19,21.4-25.4c3.1-2.1,6.2-3.7,9.6-5.2
		c3.8-1.7,8-2.7,12.1-3.5c1.7-0.3,3.4-0.5,5.1-0.7c-0.4,0-0.7,0.1-1.1,0.2c2.1-0.6,4.1-1.2,6.1-2c6.6-2.5,12.6-5.8,17.5-10.9
		c2.5-2.5,4.3-5.3,5.8-8.5c0.6-1.2,0.9-2.5,1.5-3.8c0.1-0.4,0.4-0.8,0.6-1.2c0.8-1.7,1.7-3.4,2.5-5.1c1.4-2.9,2.6-6,3.8-9
		c2.3-5.7,4.1-11.6,5.8-17.4c1.5-5.1,2.9-10.3,4.3-15.5c0.8-3.2,4.2-5.2,7.4-4.4C726.3,975.2,728.3,978.5,727.4,981.8"/>
	<path class="st16" d="M639.8,1076.6c-11,5.4-23,8.6-35.2,5.3c-3-0.8-6.2-2.1-8.9-3.7c-4.3-2.5-7.6-5.1-11.1-8.7
		c-1.5-1.6-2.6-3.1-4-4.9c-0.6-0.9-1.4-1.7-2.1-2.5c-1.5-1.7-3.6-3.6-5.4-5c-0.5-0.4-1.1-0.8-1.6-1.2c-0.9-0.6-2.2-1.4-3.1-1.9
		c-0.9-0.5-1.8-0.9-2.8-1.4c-3.2-1.4-6.8-2.4-10.1-3c-2.7-0.5-5.5-0.8-8.2-1c-1,0-1.9,0-2.9-0.1h0.2c-2.1,0-4.1,0.1-6.2,0.1
		c-4.1-0.1-8.4-0.3-12.4-1c-1.5-0.2-3-0.5-4.6-0.8c-2-0.4-4.3-0.9-6.3-1.6c-2.1-0.6-4.1-1.3-6.2-2.2c-2.5-0.9-5-2.2-7.3-3.5
		c-0.8-0.4-1.1-1.4-0.6-2.2c0.4-0.8,1.4-1.1,2.2-0.6c1.3,0.7,2.7,1.4,4.1,2c8.2,3.5,16.1,4.7,25,4.7c2.9,0,5.8-0.2,8.7-0.5
		c1-0.1,2.1-0.3,3.1-0.4c5.9-0.4,12.6-0.4,18.4,0.8c6.5,1.4,11.6,3.4,17,7.2c1.4,1,2.6,2.1,3.9,3.1c2.5,2.1,4.6,4.7,6.7,7.3
		c-0.1-0.1-0.1-0.2-0.3-0.3c3.6,3.8,7.4,6.9,12.1,9.2c9.2,4.5,19.7,3.4,28.9-0.2c1.6-0.6,3.2-1.2,4.8-2c2.5-1.2,5.3-0.1,6.5,2.4
		C643.3,1072.6,642.3,1075.5,639.8,1076.6"/>
	<path class="st16" d="M627,1094.4c0.7,0.9,1.4,1.9,2.1,2.8c2.4,3.4,4.7,6.9,6.5,10.5c1.9,3.7,3.5,7.4,4.8,11.3
		c2.3,7.2,3.2,14.8,2.4,22.3c-0.2,2.3-0.5,4.7-1.1,6.9c-0.2,0.7-0.7,1.7-1,2.4c-0.4,1-0.9,2.1-1.3,3.1c-1,2.5-1.9,5.2-2.7,7.9
		c-2.2,7.6-2.8,16.1-1.6,23.9c0.3,1.9,0.7,3.6,1.1,5.4c0.2,0.9-0.3,1.8-1.2,2c-0.8,0.2-1.7-0.3-1.9-1.2c-2.4-8-3.5-17.1-3.1-25.5
		c0.1-2.8,0.4-5.6,0.8-8.4c0.6-4.1,1.7-8,2.8-12c-0.1,0.3-0.1,0.5-0.2,0.8c0.1-1.7,0.2-3.3,0.2-4.9c0-4.5-0.5-9.2-1.6-13.6
		c-2.3-10.1-7.5-19.5-13.3-28c-1.5-2.3-1-5.3,1.2-6.9C622.4,1091.6,625.5,1092.2,627,1094.4"/>
	<path class="st16" d="M573.2,1131.2c-1.4,0.6-2.7,1.1-4.1,1.7c-3,1.2-6.1,2.9-8.8,4.7c-4.6,2.9-9.1,6.9-12.5,11
		c-1.6,1.9-2.9,3.8-4.4,5.8c0.1-0.2,0.2-0.4,0.3-0.6c-1,2-2.2,3.8-3.6,5.6c-1.3,1.7-3.2,3.5-5,4.7c-1.1,0.8-2.1,1.5-3.3,2.2
		c-6.6,3.6-13.6,4.5-21,4.8c0.1,0,0.3,0,0.4-0.1c-9.3,1.5-17.4,4.4-23.3,12.1c-1.3,1.6-2.1,3.3-3,5.2c-0.3,0.6-0.5,1.4-0.8,2.2
		c-0.3,0.8-1.2,1.2-2.1,0.9c-0.8-0.3-1.3-1.2-0.9-2.1c1.9-5.9,5.1-10.9,9.8-15c1-0.9,2.2-1.8,3.3-2.6c0.6-0.4,1.2-0.8,1.9-1.2
		c3.2-2.1,6.9-3.5,10.4-4.9c1-0.3,2.3-0.7,3.3-1c0.6-0.1,1.4-0.2,2.1-0.3c1-0.1,2-0.4,3-0.6c4.2-1,8.9-2.5,12.4-5.1
		c2.3-1.6,4.3-3.5,5.7-5.9c0.8-1.3,1.4-2.7,2.2-4.1c1.9-3.2,4.1-6.1,6.6-8.9c7.5-8.5,17.3-14.2,28.1-17.7c2.5-0.9,5.3,0.4,6.2,3
		C577.1,1127.5,575.8,1130.3,573.2,1131.2"/>
	<path class="st17" d="M548.7,610.3c21.4,65.3-8.7,145.9-67.1,179.8c-58.4,34-123.1,8.5-144.4-56.9c-21.3-65.3,8.7-145.9,67.1-179.8
		C462.6,519.6,527.3,545.1,548.7,610.3"/>
	<path class="st9" d="M363.3,520.8c-3.6,0.9-7.5,2.2-10.7,4c-2.3,1.3-4.9,2.8-6.8,4.6c-2.5,2.1-4.8,4.3-6.7,6.9
		c-1.7,2.3-3.2,4.5-4.5,6.9c-4.7,8.4-7.5,17.8-9.6,27.1c-1.4,6-2.5,12.1-3.4,18.1c-1.2,7.7-2.3,15.5-3.5,23.3
		c-0.5,3.6-1.2,7.3-1.8,10.9c-0.2,1.3-0.4,2.6-0.7,3.9c-0.1,0.7-0.2,1.4-0.4,2.1c-0.2,0.9-0.5,1.8-0.7,2.7c-0.6,2.1-1.2,4.2-1.9,6.2
		c-0.7,2.2-1.4,4.5-2.3,6.7c-1.7,4.7-3.6,9.3-5.7,13.8c-5.6,11.9-12.3,22.7-20.4,33c-2.8,3.6-5.8,7.1-9,10.4
		c-3.5,3.7-7.1,7.3-10.8,10.6c-3.9,3.5-7.8,6.7-12,9.9c-1,0.8-2.1,1.6-3.1,2.3c-0.5,0.3-0.9,0.7-1.4,1.1c-1.8,1.1-3.7,2.2-5.4,3.3
		c-3.7,2.5-7.4,5-10.8,7.8c-11.8,9.6-21.4,20.9-29.8,33.7c-2.9,4.4-5.7,8.9-8.3,13.5c-0.8,1.4-1.6,2.8-2.4,4.2c-1.1,2-2.4,3.9-3.4,6
		c-1.4,2.6-2.5,5.5-3.5,8.3c-1.8,5-3.1,10.3-4.1,15.5c-0.6,2.8-1,5.7-1.6,8.6c-0.3,1.9-0.9,3.8-1.5,5.6c-2,6.3-5.4,12.3-8.7,17.9
		c-2.7,4.8-5.3,9.8-7.2,14.9c-1.1,2.9-2.1,6.2-2.7,9.2c-0.1,0.5-0.3,1-0.4,1.4c-0.3,1.2-0.6,2.3-0.9,3.5c-1,4.4-1.9,8.9-3,13.3
		c-1,4-2.3,7.8-3.7,11.7c-1.5,4-3.9,8.5-6.6,11.8c-0.6,0.7-1.2,1.5-1.8,2.1c-0.4,0.4-0.9,0.9-1.4,1.4c-0.5,0.4-1,0.7-1.6,1.1
		c-1.6,1.2-3.1,2.5-4.6,3.9c-0.9,0.9-1.8,1.8-2.6,2.7c-2.8,3.2-5.2,7.1-6.9,11c-4.1,9.8-4.5,20.5-4.2,30.9c0.2,7.9,1,15.8,1.6,23.7
		c0.4,5,0.7,10.1,1,15.2c0.1,1.3-0.9,2.5-2.3,2.5c-1.3,0-2.5-1-2.5-2.3c-0.3-4.8-0.6-9.6-1.1-14.4c-0.6-5.7-1.1-11.5-1.5-17.2
		c-0.9-11.8-1.4-24.2,1.8-35.6c1-3.6,2.5-7.3,4.3-10.6c0.4-0.7,0.9-1.5,1.3-2.2c0.8-1.4,1.9-2.8,2.8-4c1.9-2.4,4-4.7,6.3-6.7
		c1.3-1.1,2.6-2.2,4-3.2c-0.1,0.1-0.2,0.2-0.4,0.3c1.3-1.4,2.6-2.9,3.6-4.6c0.6-1,1.2-2.1,1.8-3.2c3.9-7.7,5.6-17.2,7.1-25.7
		c0.4-2.2,0.8-4.4,1.3-6.5c0.1-0.8,0.3-1.6,0.5-2.4c0,0,0,0.1,0,0.1c1.3-6.8,3.5-13.4,6.4-19.6c2.1-4.8,4.7-9.3,6.9-14
		c0.7-1.6,1.4-3.1,2.1-4.8c1.2-2.8,2-5.8,2.6-8.9c0.2-1.1,0.3-2.2,0.5-3.3c0.2-2.1,0.5-4.4,0.9-6.4c0.6-3.5,1.2-7,2.1-10.4
		c0.5-2,1.1-4,1.7-5.9c0.7-2.5,1.7-4.9,2.6-7.3c1.2-3.1,2.8-6,4.4-8.9c0,0-0.1,0.1-0.1,0.2c3.3-6.4,6.7-12.7,10.4-18.9
		c3.5-5.7,7.4-11.5,11.5-16.7c0.6-0.8,1.3-1.7,1.9-2.5c2.7-3.3,5.5-6.5,8.4-9.6c6-6.1,12.3-11.6,19.3-16.6c2.7-1.9,5.4-3.6,8.2-5.4
		c-0.2,0.1-0.4,0.2-0.6,0.4c2.1-1.6,4.2-3.1,6.2-4.8c5.3-4.5,10.5-9.1,15.3-14.2c3.5-3.7,6.8-7.4,9.9-11.3
		c7.1-8.8,13.2-18.8,18.2-29c2.9-6.1,5.4-12.4,7.6-18.9c1.2-3.5,2.2-7.1,3.2-10.7c0,0.2-0.1,0.4-0.1,0.6c0.5-2.9,1.1-5.8,1.6-8.7
		c0.9-5.9,1.9-11.8,2.7-17.7c0.6-4.3,1.3-8.6,2-12.9c4-23.7,9.7-50.5,28.7-67c2.6-2.3,5.5-4.2,8.5-6c3.5-2.1,7.3-3.6,11.1-4.9
		c1.7-0.6,3.4-1,5.1-1.4c3.9-1,7.9,1.3,9,5.2C369.6,515.8,367.2,519.8,363.3,520.8"/>
	<path class="st17" d="M345.7,616.9C393.3,508.3,453,430.7,526.1,387.1l-61.2,193.3l-83.8,41.9L345.7,616.9z"/>
	<path class="st18" d="M322.8,609.7c2.8,13.6,5.6,27.2,8.4,40.7c0.5,2.7,1.2,5.4,1.7,8.1c0.3,1.8,0.8,3.6,1.1,5.4
		c0.3,1.5,0.4,2.9,0.7,4.4c0.4,2.5,1,5,1.7,7.4c1.4,4.9,3.1,9.2,5.4,13.6c1.1,2.1,2.4,4.2,3.6,6.1c5.9,8.9,13.6,16.6,22.2,22.9l0,0
		c2.6,2,5.3,4,7.8,6.1c4.4,3.8,8.7,7.5,12.5,12c2.7,3,5.1,6.1,7.3,9.5c1.7,2.5,3,5.1,4.4,7.8c0-0.1-0.1-0.2-0.1-0.3
		c5.9,9.9,13,19.4,24.2,23.5c2,0.7,4,1.4,6,1.8c1.1,0.2,2.3,0.4,3.4,0.5c0.6,0.1,1.2,0.1,1.9,0.2c4,0.5,8,1.9,11.4,4.3
		c1.5,1.1,2.7,2.5,3.8,4.1c0.2,0.3,0.4,0.7,0.6,1c0.3,0.5,0.8,1.6,0.9,2.1c0.2,0.8,0.5,1.6,0.7,2.5c0.4,1.9,0.4,3.5,0.5,5.5
		c0,1.3-0.1,2.9-0.3,4.2c-0.2,1.3-0.3,2.5-0.6,3.7c-0.6,2.5-1.1,4.8-1.9,7.2c-1,3.2-2.1,6.3-3.2,9.4c0,0,0-0.1,0-0.2
		c-2,6.8-3,14-2.8,21.1c0.5,15.2,7.4,29.1,17.5,40.3c1.6,1.7,3.2,3.5,4.9,5.1c0.6,0.6,0.6,1.6,0,2.3c-0.6,0.6-1.7,0.6-2.3,0
		c-4.6-4.5-9.2-9.5-12.7-14.9c-0.8-1.3-1.7-2.5-2.5-3.8c-0.8-1.3-1.5-2.6-2.2-4c-0.6-1.1-1.1-2.3-1.7-3.5
		c-4.3-9.8-6.3-20.5-5.3-31.1c0.3-3,0.6-5.9,1.2-8.9c0.3-1.3,0.6-2.6,0.9-3.9c0.1-0.3,0.2-0.8,0.4-1.1c0.3-1.1,0.7-2.2,1-3.2
		c0.6-1.8,1.1-3.7,1.6-5.5c0.3-1.3,0.6-2.5,0.9-3.8c0.9-4.7,1.9-11.7-0.6-16c-0.7-1.3-1.6-2.1-2.7-3c-0.7-0.5-1.8-1-2.6-1.4
		c-2-0.7-4-1.1-6.1-1.4c0,0,0.2,0,0.3,0c-9.2-0.4-18.3-3.4-25.7-9.1c-2.8-2.2-5.1-4.5-7.6-7c-1.8-2-3.5-4.3-5.1-6.4
		c-1.4-1.9-2.8-3.9-4-5.9c-0.4-0.8-0.8-1.6-1.3-2.4c-0.4-0.7-0.9-1.5-1.3-2.2c-0.8-1.4-1.8-2.6-2.7-4c-1-1.4-2.2-2.8-3.3-4.1
		c-0.8-1-1.9-2.3-2.8-3.2c-0.5-0.4-0.9-1-1.4-1.5c-1.2-1.2-2.5-2.5-3.9-3.7c-4.4-3.8-8.9-7.3-13.5-10.7c-2.5-1.9-4.9-3.7-7.3-5.7
		c-3.4-2.9-6.5-5.9-9.5-9.2c-8.7-9.4-15.6-21.7-18.8-34.1c-1-4-1.7-7.7-2.3-11.8c0,0.1,0,0.2,0,0.3c-3.6-18.1-7.1-36.2-10.6-54.4
		c-0.5-2.6,1.2-5.2,3.8-5.8C319.6,605.3,322.2,607,322.8,609.7"/>
	<path class="st11" d="M227.1,750.8c1.3,7.5,3.1,14.3,6.3,21.3c6.8,14.9,18.6,25.8,32.9,33.5c-0.1,0-0.2,0-0.2-0.1
		c6.6,3.4,13.2,6.7,19.7,10.3c5.1,2.8,10.1,5.7,15.1,8.7c3.3,2,6.6,4,9.9,6.1c1.1,0.7,2.2,1.4,3.2,2.1c0.4,0.2,0.9,0.5,1.3,0.8
		c0.5,0.4,1.1,0.9,1.6,1.3c6,4.9,11,10.2,15.5,16.4c1.8,2.4,3.4,5,4.8,7.5c2.1,3.8,4,7.5,5.4,11.6c0.9,2.5,1.8,5,2.5,7.5
		c1.2,4.3,2.1,8.8,2.6,13.1c0.2,1.4,0.3,2.9,0.5,4.4c0-0.3-0.1-0.6-0.1-0.9c1.1,4.3,2.2,8.5,3.1,12.8c3.1,14,5,28.3,5.4,42.6
		c0,1.3,0,2.6,0.1,3.9c0,0.5,0,1.2,0,1.7c-0.4,4.9-1.1,9.8-1.4,14.6c-0.2,5.2-0.5,10.3,1.2,15.3c0.9,2.7,2.6,5.3,4.8,7.2
		c0.6,0.4,1.1,0.9,1.7,1.3c1.3,1,3.3,1.9,4.7,2.6c1.2,0.6,2.3,1.3,3.4,1.9c2.1,1.2,4,2.5,6,3.9c0.9,0.6,1.7,1.2,2.5,1.8
		c3.9,2.9,7.4,6.2,10.6,9.8c4.5,5,7.9,10.6,11,16.5l1.2,2.5c0.2,0.4,0.4,0.8,0.6,1.3c0.5,1.2,0.9,2.5,1.4,3.8
		c0.6,1.7,1.4,3.3,2.1,4.9c0.4,0.9,0.8,1.8,1.3,2.6c2,4.1,4.5,7.9,7.2,11.5c0.8,1.1,0.6,2.5-0.5,3.3c-1.1,0.8-2.6,0.6-3.4-0.5
		c-5.6-7.4-9.7-15.1-12.9-23.8c0,0.1,0.1,0.1,0.1,0.2c-1-2.1-2-4.2-3.2-6.1c-2.1-3.5-4.2-6.6-6.8-9.7c-1-1.2-2.2-2.4-3.3-3.5
		c-3.9-4-8.7-7.6-13.6-10.4c-2.9-1.7-5.9-3.1-8.9-4.6c-2.1-1-4.3-2.2-6.1-3.6c-1.3-1-2.5-2.2-3.5-3.4c-7.2-8.6-6.9-20.7-6.5-31.3
		c0.1-2.9,0.2-5.8,0.3-8.7v0.6c-0.3-3.1-0.5-6.3-0.8-9.5c-1.1-9.5-2.7-19-5-28.2c-1.1-4.4-2.2-8.6-3.5-12.9c-0.5-1.7-1-3.3-1.5-4.9
		c-0.3-0.8-0.6-1.7-0.8-2.6c-0.2-1.4-0.4-2.9-0.6-4.3c-0.2-1.2-0.5-2.4-0.7-3.5c-0.5-2.6-1.3-5.2-2.1-7.8c-0.3-0.9-0.6-1.9-1-2.8
		c-0.5-1.6-1.2-3.3-1.9-4.8c-0.7-1.5-1.3-2.9-2.1-4.3c-0.5-1.1-1.2-2.1-1.8-3.2c-2.7-4.8-6-8.9-9.9-12.9c-1.8-2-3.9-3.8-6-5.6
		c-1-0.9-2.2-1.7-3.2-2.6c0.2,0.1,0.4,0.3,0.6,0.4c-3.6-2.2-7.2-4.5-10.8-6.6c-5.4-3.2-10.9-6.2-16.3-9.3c-4.4-2.4-8.8-4.7-13.2-7
		c-2.4-1.2-4.9-2.5-7.3-3.7c-2.1-1.1-4.1-2.4-6.2-3.6c-3.2-2-6.2-4.2-9.2-6.5c-1.6-1.2-3.3-2.6-4.8-4.1c-1.8-1.7-3.5-3.3-5.1-5.1
		c-6.1-6.7-11-14.3-14.6-22.6c-2.3-5.4-3.9-10.7-5.2-16.4c-0.6-2.6-1-5.3-1.4-8c-0.6-4,2.1-7.8,6.1-8.4
		C222.7,744,226.5,746.8,227.1,750.8"/>
	<path class="st17" d="M526.1,570.7c-40.4-56-19.4-114.9,31.1-153.6L429.4,517l-3.2,55.9l24.7,13.9L526.1,570.7z"/>
	<path class="st19" d="M502.1,620c12.9,39.6-5.3,88.5-40.7,109.1c-35.4,20.6-74.7,5.1-87.6-34.5c-12.9-39.6,5.3-88.5,40.7-109
		C449.9,564.9,489.2,580.4,502.1,620"/>
	<path class="st18" d="M364.5,715.2c19,2.9,38.8,2.2,57.4-2.2c4.7-1.1,9.3-2.5,13.7-4.3c4.8-1.9,9.8-4.5,13.8-7.9
		c1.8-1.6,3.5-3.3,4.7-5.4c0.8-1.4,1.3-3,2-4.5c0.7-1.5,1.4-2.9,2.1-4.5c0.7-1.4,1.6-2.8,2.5-4.2c3.2-5,7.6-9.6,12.8-12.6
		c4.6-2.7,9.6-4.6,14.7-5.6c0.6-0.1,1.6-0.1,2.3-0.2c1.3-0.1,2.5-0.2,3.8-0.3c3.7-0.3,7.4-0.9,11-1.6c7.6-1.4,14.9-3.8,21.9-7.2
		c1.7-0.8,3.4-1.8,5-2.7c0.8-0.4,1.8-0.2,2.2,0.5c0.4,0.8,0.2,1.8-0.5,2.2c-13.7,8.5-29,12.2-44.8,14.4c0.1,0,0.3,0,0.4-0.1
		c-3.4,1.1-6.5,2.3-9.6,4.1c-9,5.2-13.6,13.2-16.6,22.8c-0.4,1.3-0.9,2.5-1.5,3.8c-5.4,10.2-16.4,16.2-26.9,20.1
		c-2.7,1-5.6,1.9-8.4,2.7c-2.1,0.5-4.2,1.1-6.2,1.5c-2.3,0.5-4.5,0.9-6.7,1.3c-12.9,2.1-26,2.5-39,1.2c-3.9-0.4-7.6-1-11.5-1.7
		c-2.6-0.4-4.5-2.9-4-5.6C359.4,716.6,361.9,714.8,364.5,715.2"/>
	<path class="st18" d="M456.8,695.8c3.2-0.1,6.4-0.2,9.5,0c9.5,0.4,18.3,2.4,26.9,6.5c2.8,1.4,5.5,3.1,8,5c0.9,0.6,1.8,1.4,2.7,2.2
		c-0.1-0.1-0.3-0.2-0.4-0.3c8.9,6.1,19.7,11,30.7,10.2c1.3-0.1,2.7-0.2,4-0.4c3.6-0.7,6.8-1.7,10.1-3.2c1.1-0.5,2.2-1.1,3.2-1.7
		c0.7-0.4,1.7-0.1,2.2,0.6c0.4,0.8,0.2,1.8-0.6,2.2c-6.2,3.8-14,6.8-21.2,7.5c-3.2,0.3-6.2,0.4-9.5,0.2c-5.9-0.4-12.3-2.2-17.7-4.5
		c-1.5-0.6-2.9-1.3-4.4-2.1c-0.5-0.3-1.2-0.6-1.7-0.9c-1-0.6-1.9-1.4-2.8-2c-1.4-0.8-2.7-1.6-4.1-2.4c-3.1-1.7-6.5-2.9-9.9-4
		c-6.1-1.9-12.5-2.6-18.9-3c-2-0.1-4-0.1-6-0.1c-2.7,0-4.9-2.2-5-4.9C452,698,454.1,695.8,456.8,695.8"/>
	<path class="st9" d="M238,732.8c-13.4,8.4-26.8,16.9-41.4,23.2c-6.7,2.9-13.3,5.2-20.3,7.1c0.3,0,0.5-0.2,0.8-0.3
		c-1.1,0.5-2.3,1.1-3.4,1.6c-4.9,2.3-9.9,5-14.4,8c-12.4,8.1-21.6,18-27.5,31.7c0.1-0.3,0.2-0.6,0.3-0.9c-1.6,7.7-3.9,14.9-8,21.7
		c-0.9,1.4-1.8,2.7-2.7,4c-0.5,0.6-1,1.2-1.5,1.9c-0.5,0.7-1.1,1.3-1.7,2c-1.7,2-3.9,3.8-6,5.5c-1.4,1.2-2.9,2.1-4.4,3.2
		c-1.4,1.1-2.7,2.3-4,3.6c-8.4,8.5-13.5,21.6-15.2,33.2c-0.8,5-1.2,10.9,0.1,15.9c0,0,0,0,0-0.1c1.5,4.5,3,8.9,3.8,13.6
		c0.3,1.9,0.4,3.6,0.4,5.4c-0.1,6.7-3,12-7.4,16.8c-0.6,0.7-1.6,0.7-2.3,0.1c-0.6-0.6-0.7-1.6-0.1-2.3c2.1-2.4,3.4-4.2,4.7-7.1
		c0.5-1,0.8-2,1.1-3c0.2-0.8,0.3-1.6,0.4-2.4c0-0.4,0-0.8,0-1.2c0.1-1.1,0-2.5-0.1-3.6c-0.1-1.2-0.3-2.3-0.5-3.5
		c-1-4-2.4-7.7-3.8-11.7c-0.2-0.8-0.5-1.6-0.7-2.4c-0.9-4.4-0.8-9.3-0.4-13.7c0.9-9.6,3.4-18.9,7.7-27.6c1.4-2.8,3-5.4,4.9-7.9
		c2-2.8,4.4-5.2,6.9-7.5c0.7-0.7,1.6-1.3,2.4-2c1.8-1.4,3.5-2.9,5-4.5c4.1-4.5,6.9-8.9,9.1-14.5c0.5-1.1,0.9-2.3,1.3-3.5
		c0.5-1.6,1-3.2,1.3-4.9c0.1-0.6,0.2-1.3,0.4-2c0.3-1.4,0.4-3.2,0.9-4.5c0.8-2,1.7-3.9,2.5-5.8c3.1-6.6,7.8-13,12.8-18.3
		c7-7.3,15.1-13.1,23.9-17.9c2.3-1.3,4.7-2.5,7.1-3.6c0.7-0.3,1.3-0.6,2-0.9c0.5-0.2,1.1-0.5,1.6-0.7c1.3-0.4,2.6-0.7,3.9-1.1
		c1.2-0.3,2.3-0.7,3.5-1.1c4.8-1.5,9.5-3.5,14.1-5.5c13.2-5.8,25.8-13.5,38.1-21c2.3-1.4,5.3-0.7,6.8,1.6
		C241,728.4,240.2,731.4,238,732.8"/>
	<path class="st11" d="M324.7,853.3c-0.1,2.1-0.2,4.3-0.5,6.3c-0.2,2-0.6,4-1,6c-1.5,7.3-4.6,15.1-8.7,21.4
		c-0.9,1.4-1.9,2.7-2.9,4.1c-1.3,1.8-2.8,3.5-4.3,5.1c-0.7,0.6-1.3,1.3-2,2c-0.6,0.6-1.2,1.2-1.9,1.8c-2.9,2.5-5.8,5-8.3,7.9
		c-7.1,8.3-10.5,17.6-11,28.5v-0.3c0,1.5,0.2,3.1,0.2,4.7c0.2,3.2,0.3,6.5,0.3,9.7c0.1,6.7,0,13.4-0.2,20.1c0,0.9-0.8,1.6-1.7,1.6
		s-1.6-0.8-1.6-1.6c0-2.8,0.1-5.6,0-8.4c-0.1-4-0.4-8-0.8-12.1c-0.3-2.9-0.7-5.9-1.2-8.8c-0.2-1.5-0.5-3-0.8-4.6
		c-0.1-0.6,0-1.4-0.1-2.1c-0.1-2,0-3.9,0-5.9c0.3-6.4,1.9-12.3,4.5-18.1c0.7-1.6,1.6-3.1,2.5-4.6c3-5.2,7.2-9.6,11.7-13.6
		c-0.1,0-0.2,0.1-0.3,0.2c0.6-0.7,1.3-1.4,2-2.1c1.7-1.7,3.3-3.7,4.7-5.6c0.9-1.3,1.9-2.6,2.7-4c0.4-0.7,0.9-1.4,1.3-2.1
		c0.8-1.5,1.6-3,2.3-4.5c0.7-1.5,1.2-3,1.8-4.5c0.5-1.4,1-3.1,1.4-4.6c0.1-0.5,0.3-1,0.4-1.6c0.4-1.7,0.7-3.4,1-5.1
		c0.3-2,0.5-4,0.8-6c0.2-2.7,2.5-4.7,5.2-4.5C322.9,848.3,324.9,850.6,324.7,853.3"/>
	<path class="st11" d="M355.7,954.9c5.7,3.2,11.3,5.5,17.7,6.7c1.3,0.2,2.6,0.3,3.9,0.5c2.6,0.2,5.9,0.1,8.6-0.3
		c0.6-0.1,1.2-0.1,1.8-0.3c0.6-0.1,1.2-0.2,1.8-0.3c0.9-0.2,1.9-0.5,2.9-0.7c0.4-0.1,0.8-0.1,1.3-0.2c0.9-0.1,1.7-0.2,2.6-0.2
		c7.5-0.6,15.2,0.5,21.6,4.9c1.2,0.8,2.4,1.6,3.4,2.6c1.6,1.4,3.2,3.1,4.4,4.8c0.7,1.1,1.4,2.2,2.2,3.3c0-0.1-0.1-0.2-0.2-0.3
		c4.8,6.3,10.3,11.9,18,14.3c1.1,0.3,2.2,0.6,3.3,0.9c2.6,0.5,5.4,0.6,8,0.5c0.9,0,1.7,0.7,1.7,1.6c0,0.9-0.6,1.6-1.5,1.7
		c-4.2,0.2-8.5,0-12.6-1.1c-6.2-1.6-11.4-4.6-16.4-8.7c-1.4-1.2-2.9-2.5-4.2-3.8c-0.3-0.3-0.9-0.8-1.2-1.2c-3-3.8-6.9-7.2-11.6-8.8
		c-5.8-2-11.2-1.5-17.1-0.4c0.2,0,0.4-0.1,0.6-0.1c-4.8,1.6-9.8,2.5-14.9,2.5c-10.8,0-20.1-3.5-29.2-9.1c-2.4-1.4-3.1-4.4-1.8-6.7
		C350.3,954.4,353.3,953.5,355.7,954.9"/>
	<path class="st3" d="M954.9,459.9c-47.7-46.7-165.5-60.7-230.8-40.1c-95.8,30.3-134.6,78.5-127.8,139.5
		c-12,73.9,80.2,178.4,181.9,152.5c34.5-4.8,98.7-37,158.7-28.5c58.1-0.2,105.6-31.2,95.5-64.7c0.1-16.1,7.6-18.7,18.1-26.1
		C1042.6,531.6,1014.9,488.8,954.9,459.9"/>
	<path class="st20" d="M237.8,407.4c36.1,37.3,26.5,94.3-9.3,130.8C192.6,574.6,92.4,677.3,56.2,640
		c-36.2-37.3,15.3-197.7,51.2-234.1C143.3,369.4,201.7,370.1,237.8,407.4"/>
	<path class="st21" d="M419.2,557.3l-0.4-0.2c-1.4-0.6-2-2.4-2.4-3.7c-0.2-0.7-0.2-1.3-0.4-2c-0.3-1.3-0.4-2.6-0.4-4
		c-0.1-2.1-0.1-4.2,0.1-6.3c1.2-15.6,7-31.5,13.9-45.4c13.9-28.5,34.9-54.1,57.3-76.4c29.4-29.2,63.3-54.3,99-75.1
		c0,0-0.1,0.1-0.2,0.1c11-6.7,22.1-13,33.7-18.7c9.6-4.7,19.4-8.8,29.4-12.4c26.9-9.6,55-15.1,83.4-18.5c6.8-0.8,13.7-1.6,20.5-2.1
		c1.9-0.2,3.8-0.3,5.6-0.5c0.9-0.1,2-0.2,2.9-0.2c0.4,0,0.8,0,1.2,0c2.2,0,4.5,0.1,6.7,0.1c4,0,7.9,0,11.9,0
		c14.3-0.4,28.2-1.6,42.2-4.4c10.8-2.1,21.4-5.2,32-8.5c7.4-2.4,14.9-4.9,22.4-6.8c3.3-0.8,6.8-1.8,10.1-2.1
		c1.2-0.1,2.4-0.3,3.5-0.3c1.3,0,3.3,0,4.5,0.5c0.1,0.1,0.2,0.1,0.4,0.2c0.1,0,0.4,0.4,0.5,0.5l0.3,0.3l0.1,0.4c0.5,2-1,3.6-2,5.2
		c-0.4,0.7-1.1,1.3-1.6,2c-0.9,0.9-1.7,2-2.6,2.9c-0.9,0.8-1.8,1.8-2.7,2.6c-1.7,1.6-3.7,3.2-5.5,4.8c-2.7,2.2-5.5,4.4-8.3,6.4
		c-9,6.6-18.7,12.6-28.7,17.6c-6.4,3.1-12.8,5.8-19.5,8.2c-20.3,7.3-42.2,10.7-63.7,12.3c0.7,0,1.4-0.1,2.2-0.1
		c-19.3,3.5-38.6,7.2-57.7,12c-11.7,3-23.3,6.3-34.7,10.4c-12,4.3-23.6,9.4-34.9,15.2c-6.6,3.4-13.1,7-19.5,10.7
		c-2.4,1.4-4.8,2.8-7.2,4.2c-4.8,2.7-9.5,5.4-14.2,8.2c-5.2,3.1-10.3,6.3-15.5,9.6c-27.9,17.7-54.6,37.1-79.5,59
		c-16.8,14.7-32.9,30.9-46.9,48.3c-5.5,6.9-10.8,14-15.7,21.3c-2.7,3.9-5.3,7.9-7.8,12c-1.2,1.8-2.4,3.6-3.6,5.4
		c-0.4,0.5-0.8,1.2-1.2,1.8c-0.3,0.4-0.6,0.8-0.9,1.2c-1.4,1.7-2.7,3.6-4.9,4.4c-0.1,0-0.5,0-0.6,0H419.2z"/>
	<path class="st6" d="M445.4,282.4c93.9-79.4,255.1-83.6,317.1-53.5c36,14.8,24.5,45.4-6.3,32.7c-74.6-21.7-145.7-8.8-215.5,18.1
		c-88.1,34.3-124.3,88.2-140.1,171.5c-9.4,46.3-42.6,62-82.8,74.4c5.2-18.6,5.8-37.2,2-55.9c30.1-14.5,46-36.1,56.1-70.6
		C391.2,356.9,410.4,314.1,445.4,282.4"/>
	<path class="st22" d="M594.6,571.1c-9-70,32.3-119.9,107.5-146.7c95.2-31.9,206.9-13.3,252.2,36.3c-13.7,30.5-6.5,56.5,29.2,82.4
		c-31.8,30-58.3,31-117.7-28.5c-39.8-49.7-198.2-33.7-208.1,30.6c3.8,51.8-35.1,96.3-50.2,64.4C597.9,598.6,595.8,586.9,594.6,571.1
		"/>
	<path class="st23" d="M689.4,535.9c-8.3,35.9,3.7,60.1,25.9,88.9c17.7,29.8-27.8,46.6-51.4,23.5c-32.4-27.1-39-80.7-20.2-118.4
		C655.6,496.6,700.2,496.3,689.4,535.9"/>
	<path class="st24" d="M989.4,532.1c-19.2,38.5,7,78.7,44,85.1c-1.6,34.5-31.2,48.5-76.4,60.7h-36.1c-31.2,0.9-62.4,8.2-93.6,18.8
		c-74.8,18.4-92.6-8.4-54.5-4.9c48.8-1.3,98.5-43.3,140.2-63.1c34.4-15.4,54.1-36.9,37.9-86.1C963.3,539.1,978.5,538.4,989.4,532.1"
		/>
	<path class="st3" d="M892.8,438.7c25.2-25.3,77.7-37.7,129.6-20.1l81.4,31.5c-20.9,21-22.3,45.3-14.4,73.4
		c-44.4-9.5-84.1-5.3-122.1,4.4C918.5,522.5,879.3,469.1,892.8,438.7"/>
	<path class="st0" d="M1101.5,450.2c9.7-0.9,15.2,14.9,12.4,35.2c-2.8,20.4-12.8,37.6-22.4,38.5c-9.6,0.9-15.1-14.9-12.4-35.2
		C1081.8,468.3,1091.9,451.1,1101.5,450.2"/>
	<path class="st24" d="M927.8,486.7c8.9-13.8,19.6-10.6,42-12.5c25.9-3.1,51.8-3,77.7-2.1c9.8,1.8,20.8,5.2,24.8,11.1
		c-0.7,11.2-4.5,22.5,2.2,32.3c-30.5-7.6-45.9-12.2-81.9-4.5c-11.9,4.3-21.4,7.2-31.8,6.1C935.8,512.6,922.3,496.4,927.8,486.7"/>
	<path class="st25" d="M909.9,441.7c2-1.4,4-2.8,6-4.2c4.7-3.1,9.9-5.9,15-8.2c6-2.7,12.4-4.8,18.8-6.3c2.6-0.6,5.2-1,7.9-1.4
		c2.9-0.4,5.9-0.6,8.9-0.8c4.1-0.2,8.3-0.1,12.4,0.2c4.4,0.2,9,1,13.3,1.9c2.1,0.4,4.2,1,6.3,1.5c2.7,0.8,5.4,1.5,8.1,2.3
		c4.3,1.3,8.6,2.6,12.8,4.2c10.5,3.7,20.7,8.2,30.8,12.9c2.4,1.1,4.8,2.2,7.2,3.3c1.5,0.6,3,1.3,4.6,2c2,0.8,3,3.2,2.2,5.2
		c-0.8,2.1-3.2,3-5.2,2.2c-2.5-0.9-5-2-7.6-2.8c-6.3-2.2-12.6-4.2-19.1-5.4c-3.1-0.6-6.1-1.2-9.2-1.6c-2.7-0.4-5.5-0.6-8.2-0.9
		c-6.4-0.6-12.9-0.8-19.4-1c-15.6-0.7-31.6,0.6-46.6,5.5c-7.5,2.5-14.6,5.6-21.4,9.6c-1.4,0.8-2.7,1.6-4.1,2.5
		c-5.6,3.7-13.2,2.2-17-3.5C902.7,453.1,904.2,445.5,909.9,441.7"/>
	<polygon class="st26" points="625.3,351.9 624.9,350.9 624.8,350.4 624.8,349.7 624.9,348.6 625.4,347 626.6,344.3 629.9,339.9 
		633.5,336.2 637.3,332.8 641.3,329.7 645.5,326.8 649.7,324.1 654,321.6 658.4,319.2 662.9,317 667.4,315 672,313.1 676.6,311.3 
		681.3,309.7 686.1,308.2 690.8,306.8 695.6,305.6 700.5,304.5 705.3,303.6 710.2,302.8 715.2,302.1 720.1,301.6 725.1,301.2 
		730.1,301 735.1,301 740.1,301.1 745.1,301.5 750.2,302.2 755.2,303 760.3,304.4 765.3,306.5 767.9,308.1 769.2,309.3 769.8,310.2 
		770.1,310.7 770.3,311.2 770.5,312.3 770.4,313.3 770.3,313.8 770,314.5 769.5,315.4 768.3,316.7 766,318.5 761.4,321.1 
		756.8,323.1 752.2,324.9 747.8,326.5 743.3,327.9 738.9,329.2 734.5,330.5 730,331.8 725.7,333 721.3,334.2 717,335.3 712.6,336.5 
		708.3,337.7 704,338.8 699.7,340 695.4,341.1 691.1,342.3 686.9,343.4 682.6,344.6 678.2,345.7 673.9,346.9 669.6,348 665.2,349.1 
		660.8,350.2 656.3,351.3 651.8,352.4 647.2,353.3 642.5,354.1 637.6,354.7 632.4,354.8 629.4,354.5 627.8,353.9 626.8,353.4 
		626.3,353 625.9,352.7 	"/>
	<path class="st27" d="M498.4,229.5c-0.8-1.9,0.7-4.2,1.6-5.6c0,0,0.6-0.8,0.6-0.9c0,0,1.4-1.5,1.4-1.5c0.5-0.5,1-1,1.5-1.5
		c0.4-0.5,1-1,1.5-1.4c0.9-0.9,2-1.8,3-2.6c0.7-0.6,1.6-1.2,2.4-1.8c3.9-2.9,8-5.5,12.3-8c10.1-6,21.1-11,32-15.1
		c40.8-15.5,86.3-20.7,129.5-15.6c13.2,1.6,26.4,4.1,39.2,7.6c4.3,1.2,8.6,2.5,12.8,4c8.4,2.9,16.4,6,24.3,10
		c3.9,2,7.7,4.1,11.3,6.5c0.8,0.6,1.7,1.2,2.5,1.8c0.5,0.4,1.1,0.8,1.6,1.3l1.6,1.4l1.6,1.4l0.7,0.8c1.1,1.3,2.7,3.3,2.3,5.1
		c0,0.1,0,0.3,0,0.4c-0.7,1.9-3.4,2.5-5.1,2.9c-0.4,0-0.7,0.1-1.1,0.2c-0.6,0.1-1.3,0.1-2,0.2c-1.4,0-2.7,0.2-4.1,0.2
		c-1.3,0-2.6,0-4,0c-6.2-0.1-12.6-0.8-18.8-1.4c-16.5-1.6-32.9-3.3-49.5-4.3c-20.8-1.2-41.7-1.5-62.5-0.2
		c-17.7,1.1-35.2,3.1-52.8,5.9c-16.5,2.6-32.9,6-49.3,9.2c-3.6,0.7-7.2,1.4-10.9,2c-2.4,0.4-4.9,0.8-7.4,1.1
		c-1.3,0.1-2.6,0.2-3.9,0.4c-1.4,0.1-2.6,0.1-4,0.1h-2l-1.1-0.1C502,231.7,499.3,231.3,498.4,229.5"/>
	<path class="st28" d="M782.1,705c2.8,0.9,5.6,1.9,8.4,2.8c1.8,0.6,3.6,1.4,5.4,2.1c1.7,0.7,3.4,1.4,5,2.2c2.7,1.3,5.5,2.5,8.2,4
		c3.8,2,7.4,4.1,11,6.5c1.6,1,3,2.2,4.6,3.2c1.4,1,2.9,2.2,4.2,3.3c0.7,0.6,1.4,1.2,2.1,1.8c2.6,2.3,5.2,4.7,7.5,7.2
		c5.6,6.1,10.5,12.5,14.7,19.8c1.9,3.3,3.7,6.9,5.3,10.3c0.3,0.7,0.6,1.5,1,2.2c0.8,1.8,1.6,3.8,2.3,5.6c0.2,0.7,0.4,1.6,0.6,2.3
		c0.3,1.2,0.7,2.5,1,3.7c1.3,4.2,2.8,8.1,4.6,12.2c0.5,1.2,1.2,2.5,1.9,3.8c1.6,3,3.3,5.9,5.3,8.8c2.2,3,4.5,5.7,7.1,8.4
		c2,2.1,4.3,3.9,6.5,5.7c1.2,0.9,2.5,1.8,3.8,2.6c4.9,3.3,11,5.9,16.6,7.8c-0.1,0-0.2,0-0.2-0.1c8.2,2,16.9,4,23.8,9.1
		c1.3,0.9,2.4,2,3.5,3c0.5,0.5,0.9,1.1,1.4,1.6c0.8,1,0.8,2.5-0.2,3.4c-1,0.9-2.5,0.8-3.4-0.2c-1.1-1.2-2.2-2.3-3.5-3.3
		c-6.3-4.8-15.2-6.3-22.8-7.6c-0.5-0.1-1.1-0.2-1.6-0.4c-0.8-0.2-1.6-0.4-2.4-0.7c-2.4-0.7-4.9-1.5-7.3-2.5
		c-4.3-1.8-8.3-3.6-12.3-6.1c-1.3-0.8-2.7-1.7-3.9-2.6c-2-1.4-3.9-2.8-5.7-4.4c-3-2.5-5.7-5.3-8.3-8.3c-1.6-1.8-3.1-3.8-4.5-5.8
		c-0.8-1.2-1.6-2.4-2.5-3.6c-1.2-1.9-2.3-3.9-3.3-5.8c-2.9-5.4-5.1-10.9-7.1-16.7c0,0.2,0.1,0.5,0.2,0.7c-2.4-4.9-4.8-9.6-7.7-14.2
		c-1-1.6-2.1-3.3-3.2-4.8c-1.3-1.8-2.5-3.6-4-5.3c-1.7-2.1-3.3-4.1-5.1-6.1c-6.6-7.1-13.9-12.8-22.1-17.8c-4.9-3-9.9-5.5-15-7.9
		c-2.1-1-4.4-2-6.5-2.8c-2.8-1.1-5.6-2.1-8.4-3.1c-3.8-1.3-5.8-5.5-4.5-9.4C774.1,705.7,778.3,703.7,782.1,705"/>
	<path class="st29" d="M900.9,751l0.8-0.7l0.4-0.2l0.7-0.2l1.2-0.2h2.1l3.7,0.6l3.4,1.1l3.2,1.3l3.1,1.5l2.9,1.6l2.9,1.8l2.8,1.8
		l2.7,2l2.6,2l2.5,2.1l2.5,2.2l2.5,2.2l2.3,2.3l2.3,2.4l2.2,2.4l2.2,2.5l2,2.5l2,2.5l2,2.6l1.9,2.6l1.8,2.7l1.8,2.7l1.7,2.8l1.6,2.8
		l1.6,2.8l1.4,2.9l1.4,2.9l1.3,3l1.3,3l1.2,3l1.2,3.1l1,3.1l1,3.1l0.9,3.1l0.9,3.1l0.8,3.2l0.7,3.2l0.7,3.2l0.6,3.3l0.5,3.3l0.5,3.3
		l0.7,6.6l0.4,6.7l0.2,6.8l-0.1,6.9l-0.4,6.9l-0.7,6.9l-1,7l-1.5,6.9l-2,7l-2.9,6.9l-2.1,3.4l-1.5,1.6l-1,0.8l-0.7,0.3l-0.5,0.2
		l-1.2,0.1c-0.1,0-0.3-0.1-0.4-0.1c-2.2-0.5-3.6-3.2-4.4-5.1c-0.3-0.7-0.6-1.4-0.9-2.2c-0.1-0.1-0.7-2.5-0.8-2.7
		c-0.4-1.3-0.8-2.8-1.2-4.1c-0.8-3-1.3-6.2-2-9.3c-0.8-4.2-1.5-8.5-2.3-12.7c-1.1-6-2.1-12.1-3.3-18c-2.7-13.6-5.9-27-10.3-40.1
		c-4.4-12.9-9.9-25.1-16.7-37.1c-4.9-8.6-10.3-16.9-15.7-25.1c-2.8-4.2-5.7-8.5-7.7-13.2c-0.8-1.9-2.1-4.9-1-7
		C900.7,751.3,900.8,751.1,900.9,751"/>
	<path class="st30" d="M592.3,535.8c19.1-55,53.5-92.7,118.4-114.4c61.3-13,112.8-15.1,173.7-2.7c34.3,12.3,79.6-14.8,103.4-34.7
		c-31,15.5-58.6,23.7-98.3,17.3c-65.8-10.2-133.8-30-188.2-13C624.8,413,601.5,455,587.4,517.3C582.9,545.9,590.5,550.3,592.3,535.8
		"/>
	<path class="st31" d="M321.4,261.1c-41.7,61.8-32.8,132,2.4,206.6c14.9,31.4,4,53-10.4,73.1c-18.9,12.1-36.7,17.1-35.2,7.3
		c15.2-22.2,40.2-46.9,10.5-92.9c-46.8-91.2-21.8-187.5,28.7-247L321.4,261.1z"/>
	<path class="st32" d="M215.8,428c5.7,31.9-2.5,53.3-17.9,78.9c-12.3,26.5,19.2,41.4,35.5,20.9c22.4-24,26.9-71.7,14-105.1
		C239.1,393,208.4,392.7,215.8,428"/>
	<path class="st33" d="M893.6,477.5c-1.6,34,23,60.9,59.1,65.7c27,1.6,43.8-9.9,65.4-21c16.7-7.9,39.5-6.6,67.2-1.2
		c-16.8-15.3-37.2-22.9-64.1-17.2c-12.3,3.6-27.3,8.1-39.6,9.2c-22.5,1.3-30.2,0.9-45.4-9.6c-10.1-6-16.3-19.1-24.3-24.3
		C903.2,473.6,893.1,468.9,893.6,477.5"/>
	<path class="st34" d="M702.7,713.8c3,19.4,10.9,36.8,21.7,53c2.9,4.3,6,8.5,9.2,12.5c1.2,1.6,2.5,3.1,3.8,4.6
		c0.6,0.8,1.5,1.6,2.1,2.5c2.6,3.6,4.7,7.2,6.7,11c0.8,1.4,1.4,2.9,2.1,4.4c0.9,1.9,1.6,4.1,2.3,6.2c2,6.1,3.1,12.4,3.7,18.8
		c0.7,7.7,0.6,15.3,0.9,23c0,1.4,0.1,2.8,0.2,4.2v0c0.6,11.4,1.5,22.7,1.3,34.1c0,4.3-0.2,8.7-0.6,13c-0.5,4.8-1.2,9.3-2.1,14
		c-1.2,6.2-3.3,12.6-5.6,18.5c-1.5,3.7-3.2,7.3-4.6,10.9c-1.5,3.8-2.9,7.6-4.2,11.5c-0.6,1.9-1.1,3.7-1.7,5.5
		c-0.9,3.1-1.7,6.3-2.4,9.4c-4.2,18.4-4.4,36.6-2.3,55.4c0-0.1,0-0.2,0-0.3c1.6,10.9,2.6,21.7,2.6,32.7c0,21.4-3.3,42.8-10.6,62.9
		c-1.4,3.8-2.9,7.5-4.5,11.3c-0.7,1.7-1.5,3.5-2.3,5.1c-0.5,1-1.2,2-1.8,3c-1,1.7-2.1,3.5-3.1,5.2c-3.4,5.5-6.9,11.1-10.2,16.7
		c-3.4,5.6-6.5,11.3-9.4,17.2c-3.1,6.2-5.9,12.7-8,19.3c-1.4,4.3-2.5,8.6-3.5,13c0-0.3,0.1-0.7,0.1-1c-0.1,2.4-0.2,4.7-0.4,7.1
		c-0.5,4.3-1.1,8.4-2.2,12.6c-2.1,8.3-5.5,16.9-9.8,24.3c-1.4,2.5-2.8,5-4.4,7.4c-2.4,3.5-4.7,7-7.3,10.2c-2,2.5-3.9,5-6,7.4
		c-3.7,4.3-7.4,8.4-11.2,12.6c-1,1.1-2.1,2.3-3.1,3.4c-0.6,0.6-1.3,1.5-2,2c-2.8,2-5.6,3.9-8.5,5.9c-2.6,1.9-5.1,3.9-7.6,5.9
		c-4.4,3.6-8.6,7.4-12.5,11.5c-2.3,2.4-4.6,4.9-6.7,7.5c-0.9,1.1-1.9,2.3-2.7,3.5c-1.4,1.9-2.7,3.8-4,5.7c-0.6,0.9-1.3,2-1.8,2.9
		c-0.7,1.3-1.5,2.6-2.3,4c-0.7,1.4-1.4,2.7-2.1,4.1c-2,4-3.5,8.3-4.9,12.6c0-0.1,0-0.1,0.1-0.2c-0.7,2.5-1.3,5.1-2.2,7.6
		c-2.1,6.2-4.7,12.1-7.9,17.7c-7.5,13.2-17.8,24.3-27.8,35.6c0.1-0.1,0.2-0.3,0.3-0.5c-1.9,3.3-3.6,6.8-4.7,10.4
		c-0.5,1.6-0.9,3.2-1.3,4.8c-0.4,1.9-0.7,3.9-0.9,5.8c-0.4,3.2-0.5,6.9-0.3,10c0.2,2.8,0.4,5.5,0.8,8.3c1.1,7.8,3.3,15.6,5.8,23.1
		c0.5,1.6,1.1,3.2,1.7,4.9h0c3.2,9,7.7,17.6,13.8,25.1c2.9,3.7,6.3,7,9.8,10c1,0.9,1.1,2.4,0.2,3.4c-0.9,1-2.4,1.1-3.4,0.2
		c-1.6-1.3-3.1-2.7-4.6-4.1c-4.3-4.4-8.3-9.1-11.6-14.4c-0.4-0.7-0.9-1.5-1.4-2.2c-1.6-2.8-3-5.5-4.4-8.5c-1.2-2.5-2.2-5.1-3.2-7.8
		c-1.3-3.7-2.6-7.4-3.8-11.1c-4.4-14.7-7.3-30.6-3.6-45.8c0.9-3.8,2.2-7.9,4-11.4c0.5-1,1-1.9,1.5-2.9c0.2-0.3,0.4-0.9,0.7-1.2
		c0.9-1.1,1.8-2.2,2.7-3.2c3.5-4.1,7.1-8.3,10.5-12.5c5.3-6.7,10.2-13.6,14.2-21.2c2.5-4.7,4.7-10.1,6.1-15.1
		c0.8-2.9,1.5-5.9,2.4-8.8c1.5-5.1,3.6-10.3,5.9-15.1c5.1-10.5,12.1-20.1,20.1-28.5c1.8-1.9,3.7-3.9,5.6-5.7
		c0.9-0.8,1.8-1.7,2.7-2.5c0.9-0.9,2-1.8,3-2.6c1.4-1.2,2.7-2.4,4.2-3.5c1.2-0.9,2.3-1.9,3.4-2.7c3-2.3,6-4.5,9-6.7
		c-0.2,0.2-0.5,0.4-0.7,0.7c8.8-9.9,17.5-19.8,24.8-30.9c2.5-3.7,5-7.8,6.9-11.9c2.1-4.4,4-8.7,5.4-13.4c1.5-4.9,2.6-9.9,3.2-15.1
		c0.2-2,0.3-3.9,0.4-5.9c0-1.4-0.1-2.8,0.1-4.2c0.9-4.8,2.1-9.5,3.4-14.2c1-3.5,2.3-6.9,3.5-10.2c1.5-4.1,3.4-8.1,5.2-12.1
		c2-4.4,4.3-8.7,6.7-12.9c5.4-9.8,11.3-19.3,16.8-29c-0.1,0.2-0.2,0.4-0.3,0.7c3.2-7.1,6-14.6,8.2-22.1c2-7.1,3.6-14.1,4.8-21.3
		c1.8-10.8,2.3-21.6,2.1-32.6c-0.1-6.7-0.8-13.5-1.6-20.1c-0.3-2.7-0.8-5.4-1.2-8.1c-0.6-4.2-1-8.5-1.2-12.7
		c-0.4-6-0.6-12.2-0.3-18.2c0.1-2.6,0.2-5.2,0.5-7.9c0.4-5.8,1.3-11.8,2.4-17.5c2.7-14.5,7.4-28.2,13.2-41.6v0.1
		c1.8-4.4,3.4-8.8,4.7-13.5c1.3-5,2.3-10.2,2.8-15.3c0.5-5.4,0.8-10.9,0.7-16.4c0-2.5-0.1-5.1-0.1-7.7c0-2.5-0.2-5-0.3-7.5
		c-0.1-1.9-0.2-3.8-0.3-5.7c-0.3-4.5-0.5-9-0.7-13.5c-0.2-7.1-0.2-14.2-0.7-21.3c-0.1-1.9-0.3-3.8-0.6-5.7c-0.2-1.4-0.5-2.8-0.7-4.3
		c-0.5-3-1.5-6.2-2.5-9c-0.9-2.7-2.3-5.7-3.7-8.2c-0.6-1.1-1.2-2.2-1.9-3.2c-0.8-1.2-1.6-2.4-2.4-3.6c0.1,0.2,0.3,0.4,0.4,0.6
		c-16.9-19.7-30.9-42.8-37-68.2c-0.9-3.8-1.7-7.8-2.3-11.7c-0.6-4,2.1-7.7,6.1-8.4C698.3,707,702.1,709.7,702.7,713.8"/>
	<path class="st35" d="M337.6,458.9c-31.6-68-47.4-127.5-14.4-179.4c22.6-43.1,55.4-77.9,95.4-99.4c64-29.3,99.8-71.1,76.8-146.6
		l19.5,4.1c16.7,64.7,6.5,110.4-44.1,145.6c-43,30.8-79.9,60.5-106.6,100.5c-37.4,49.2-32.6,112.8-18.4,170.2L337.6,458.9z"/>
	<path class="st36" d="M46.9,513c-0.1,0-0.2-0.1-0.4-0.2c-1.5-0.5-2.2-1.9-2.7-3.2c-1.5-3.1-1.9-7.7-2-11.2
		c-0.2-8.4,0.9-16.8,2.5-25c1-5.3,2.3-10.6,3.9-15.7c3.7-12.3,8.6-24.2,14.7-35.5c1.7-3.1,3.4-6.4,5.4-9.5
		c3.7-5.9,7.6-11.7,11.8-17.3c3.3-4.4,6.7-8.8,10.2-13c3.7-4.4,7.5-8.7,11.5-12.9c3.1-3.3,6.3-6.5,9.5-9.7c2.5-2.5,5.2-5,7.8-7.4
		c3.2-2.8,6.3-5.6,9.6-8.4c1.8-1.5,3.7-3,5.5-4.5c-0.1,0.1-0.3,0.2-0.4,0.3c2.4-2.1,4.8-4.2,7.1-6.3c7.2-6.7,14.1-13.8,20.3-21.4
		c4.7-5.8,8.9-11.6,12.8-17.9c1.8-2.8,3.4-5.6,5-8.5c1.6-2.8,3.1-5.9,4.5-8.9c2.4-5.3,4.6-10.7,6.5-16.3c1.1-3.4,2.3-6.9,3.2-10.4
		c0.5-1.9,1-3.8,1.5-5.7c0.6-2.5,1.2-5,1.8-7.5c0,0.3-0.1,0.6-0.1,0.9c0.4-3.2,0.9-6.3,1.3-9.5c0.3-2.6,0.7-5.1,1-7.7
		c0.8-6.6,1.5-13.4,1.8-20c0.2-4.4,0.4-8.9,0.3-13.3c0-1.3,0-2.5-0.1-3.9c-0.2-3-0.3-6-0.7-9c-0.3-2-0.6-3.9-0.9-5.9v0.1
		c-0.4-2.3-0.9-4.6-1.4-6.9c-1.1-5.2-2.3-10.5-3.6-15.7c-1.3-5-2.7-10.1-4.5-15c-1.2-3.4-2.4-6.8-3.7-10.1c-1.3-3-2.5-6-3.9-8.9
		c-1.1-2.5-2.3-5-3.5-7.4c-3.1-6.4-6.6-12.5-9.7-18.9c-0.7-1.6-1.4-3-2.1-4.7c-0.1-0.3-0.4-1.1-0.4-1.4c0-0.2,0.1-0.8,0.1-1.1
		l0.4,0.1c0.2,0,0.6,0,0.8,0.2c0.4,0.3,0.8,0.5,1.2,0.8c0.8,0.6,1.6,1.4,2.4,2.1c4.4,4.3,8.4,9.3,12.2,14.2c1.8,2.4,3.7,4.9,5.3,7.4
		c0.8,1.3,1.7,2.5,2.5,3.9c3,4.8,5.9,9.7,8.4,14.8c6.8,13.7,11.9,28.3,15.9,43c2.8,10.2,4,20.4,4.5,31c0.2,6.2,0.3,12.5,0,18.8
		c-0.2,6-0.4,12.1-0.9,18.1c-0.2,2.5-0.3,5-0.5,7.5c-0.1,0.8-0.2,1.6-0.4,2.4c-0.2,1.2-0.3,2.4-0.6,3.6c-0.9,4.9-1.8,9.7-2.9,14.6
		c-2.8,11.9-6.7,23.5-11.7,34.7c-4.8,10.4-10.4,20.1-17,29.6c-2.1,3.1-4.4,6.1-6.8,9.1c-1.8,2.4-3.7,4.7-5.6,6.9
		c-3,3.4-6,6.9-9.1,10.1c-1.9,2-3.8,3.9-5.7,5.8c-3,3.1-6.2,5.9-9.4,8.8c-2.5,2.3-5,4.8-7.5,7.2c-2.7,2.7-5.5,5.4-8.1,8.3
		c-0.9,1.1-2,2.1-2.9,3.2c-1.4,1.5-2.8,3.1-4.2,4.8c-3.2,3.7-6.3,7.6-9.4,11.5c-2.1,2.6-4.2,5.4-6.1,8.1c-0.8,1.2-1.7,2.4-2.5,3.5
		c-2.1,3-4.1,6.1-6.1,9.2c-2.8,4.5-5.5,9.2-8.2,13.8c-6.6,11.1-12.8,22.6-18.7,34.2c-2.5,4.9-5,9.8-7.5,14.7
		c-2.3,4.3-4.5,8.6-6.9,12.8c-1.4,2.5-2.9,4.9-4.5,7.4c-1.4,2.1-3,4.4-4.9,6c-1.2,1.1-2.7,2.4-4.5,2.3H46.9z"/>
	<path class="st31" d="M63,856c14.4-74.3,40.4-147.4,101-217.5c36.8-43.5,80.7-69.9,135.1-88.6c16.1-6.5,21.6-17.6,23.3-29.5
		c1.2-22.5-0.1-17.3-10.9-4c-16.7,22-51.7,38.5-86,53.2c-41.6,17.6-75,42.3-109.1,66.9C78.6,669.7,67,691.7,49.6,737.3
		c-10.6,26.9-7.4,58.2,2.5,89.2L63,856z"/>
	<path class="st37" d="M198.4,1172.7c48.1,109.4,109.6,161.2,189.6,238.7c94.7,82.9,148.4,120.9,285,122.1
		c55.8-4.5,50.4-98.2-37.1-96.7c-91.9,1.5-142.4-14.9-219-73.5c-77.9-79.4-130.4-103.7-180.8-207.3
		C212,1115.4,183.3,1138,198.4,1172.7"/>
	<path class="st38" d="M178.5,844.1c-0.1,3.8-0.2,7.7-0.2,11.5c0,10.6,0.5,21.3,1.7,31.8c0.4,3.6,0.8,7.3,1.4,10.8
		c0.2,1.2,0.3,2.4,0.5,3.5c0.9,5.1,1.9,10.3,3.1,15.3c0.3,1.3,0.6,2.6,0.9,3.9c0.5,1.8,0.9,3.6,1.4,5.3c1.1,3.9,2.3,7.6,3.4,11.5
		c0-0.1-0.1-0.3-0.1-0.4c0.6,1.8,1.3,3.5,2,5.2c3,7.9,6.6,15.7,10.5,23.3c8.2,15.8,17.9,30.4,28.6,44.7c1.9,2.5,3.8,5.1,5.6,7.7
		c4.1,5.9,7.8,12.5,10.9,19.1c7.6,15.9,11.8,32.4,13.8,49.8c0.7,6.8,0.9,13.5,1,20.2v-0.1c0.2,6.2,0.4,12.4,0.8,18.7
		c0.6,8.9,1.7,17.8,3.1,26.6c0.8,5.3,1.8,10.6,2.9,15.8c4.2,19.4,10.1,38.6,18,56.8c2.8,6.4,5.7,12.8,9,19l-0.1-0.3
		c1.7,2.7,3.5,5.4,5.2,8.2c5.1,8.2,10.1,16.5,14.8,24.8c3,5.4,6,10.8,8.8,16.3c2.7,5.2,5.3,10.5,7.9,15.8c0.6,1.2,0.1,2.6-1.1,3.2
		c-1.2,0.6-2.6,0.1-3.2-1.1c-1.4-2.6-2.6-5.3-4-8c-1.1-2.2-2.3-4.3-3.4-6.4c-0.8-1.6-1.7-3.2-2.6-4.8c-1.5-2.6-2.9-5.3-4.5-8
		c-2.8-4.8-5.6-9.6-8.5-14.4c-3-4.8-6.1-9.6-9.2-14.3c-1.2-1.9-2.5-3.7-3.8-5.5c-0.5-0.8-1.2-1.7-1.7-2.5c-0.4-0.7-0.8-1.4-1.1-2.1
		c-0.5-0.8-0.9-1.7-1.4-2.5c-1.7-3.2-3.3-6.4-5-9.7c-7.9-16-14.5-32.6-19.8-49.7c-1.6-5.2-3.1-10.5-4.4-15.8c-1-4.2-2-8.4-2.8-12.6
		c-1.6-7.3-2.7-14.8-3.8-22.2c-1.2-8.2-1.9-16.6-2.4-24.9c0-1.6-0.1-3.3-0.2-5c-0.2-4.6-0.7-9.1-1.3-13.6
		c-1.7-12.7-5.2-26.1-10.3-37.9c-1.5-3.4-3-6.8-4.8-10.1c-0.8-1.4-1.6-2.8-2.4-4.3c-0.7-1.3-1.6-2.6-2.4-3.9
		c-0.9-1.5-1.8-2.9-2.8-4.4c-2.2-3.1-4.4-6.1-6.7-9.1c-3.4-4.5-6.9-9-10.1-13.6c-3-4.3-6-8.7-8.8-13.1c-5.7-8.9-10.7-18.1-15.4-27.6
		c-2.5-5-4.6-10.1-6.7-15.3c-0.6-1.6-1.2-3.1-1.8-4.7c-0.3-1-0.8-2-1.1-3c-1.2-4.2-2.6-8.4-3.7-12.7c-1.7-6.3-3.1-12.6-4.3-19
		c-2.3-12.2-3.7-24.8-4.2-37.1c-0.4-10.1-0.3-20,0.2-30.1c0.1-4.1,3.5-7.2,7.6-7.1C175.5,836.7,178.7,840.1,178.5,844.1"/>
	<path class="st39" d="M931.8,320.3c4,23.7,10.7,46.3,31.6,63.2c-23.1,12.6-47.9,15.1-74.2,8.5c-42.5-14.7-85.1-17.3-127.7-18.2
		c-24.5-3.4-15.5-10.1-4.9-17.1C820.7,354.3,881,345.5,931.8,320.3"/>
	<path class="st40" d="M394.3,629.3c-3.5-4.4-8,10.3-9.1,4.9c-0.9-4.7-5.4-2.7-5.5-7.5c-0.1-9.9,9.5-47.2,18.9-68.2
		c1.1-4.3,27.5-52.1,33.1-60.9c3.5-5.4,7.1-10.8,10.9-16c2.9-3.9,5.9-7.7,8.9-11.5c4.1-5.2,8.6-10.2,13.1-15.1
		c17.5-19,37.5-36.1,58.9-50.5c8.8-6,18-11.7,27.4-16.6c3-1.6,6-3.1,9.1-4.5c2.5-1.1,4.9-2.2,7.5-3.2c1.2-0.5,2.6-1,3.9-1.3
		c1.3-0.3,2.5-0.7,3.8-0.7h0.3c0.2,0,0.8,0.3,1.1,0.5c0,0.3,0,0.9,0,1.1c-0.2,0.8-1.6,2.5-2.1,3c-1.8,2.2-4,4.2-6.1,6.2
		c-1.7,1.6-3.4,3.1-5.1,4.7c-2.6,2.3-5.1,4.7-7.7,6.9c-3.5,3.1-7,6.4-10.5,9.5c-3.1,2.8-6.2,5.7-9.2,8.6
		c-5.3,5.1-10.6,10.2-15.7,15.5c-19.1,19.8-36.7,41.5-50.7,65.2c-9.4,16-17.2,32.6-23,50.2c-2.2,6.7-4.2,13.5-5.7,20.3
		c-0.2,1.1-0.6,2.1-0.9,3.2c-0.7,2.4-1.4,4.8-2.1,7.2c-1.9,6.1-3.7,12.3-5.8,18.3c-1.6,4.6-3.3,9-5.4,13.4c-1.4,2.9-2.9,5.9-4.9,8.4
		c-2.1,2.7-16.9,13-20.6,13C398.1,633.1,396,631.4,394.3,629.3"/>
	<path class="st41" d="M127.1,69c-2-2.2-2.7-4.6-2.4-7.3c0,0,0,0.1,0.1,0.1c9.5,10,43,9.1,74.8-2.1c25-8.7,41.5-21.2,42.8-31
		c9.2,10-8.9,27-40.5,38.1C170,78,136.6,78.9,127.1,69"/>
	<path class="st41" d="M349,147c-11.8-23.1-14.9-49.3-7-58.4c2.5-2.8,5.8-3.7,9.5-2.7c-0.2,0.1-0.3,0.3-0.5,0.5
		c-7.9,9.1-4.8,35.2,7,58.4c8,15.8,18,26.2,26,28.2C376,181.1,360.5,169.7,349,147"/>
	<path class="st0" d="M392.7,169.9c-7.9,9.8-23.8-2.5-35.6-27.3c-11.7-24.8-14.9-53-7-62.7c7.9-9.8,23.8,2.5,35.5,27.3
		C397.5,132,400.6,160.1,392.7,169.9"/>
	<path class="st41" d="M482.8,34.9c-2.5-2.6-2.7-5.3-1.1-7.9c10.7,8.3,43.7,12.1,75.8,8.3c22.3-2.6,38.6-8.2,44.3-14.4
		c8,9.1-11.4,19.5-43.7,23.4C525.4,48.3,491.6,44.1,482.8,34.9"/>
	<path class="st41" d="M708.6,67.9c-20.5-3.5-39-14.6-41.1-24.7c-0.7-3.4,0.5-6.3,3.2-8.5c0,0.1,0,0.2,0.1,0.4
		c2.2,10.1,20.5,21.2,41.1,24.7c13.6,2.4,24.7,0.8,30.1-3.5C743.7,66.2,728.9,71.4,708.6,67.9"/>
	<path class="st41" d="M827.9,66.7c-23.7-12.4-41.8-33-40.4-46.2c0.4-4,2.5-6.8,5.9-8.5c0,0.3,0,0.5-0.1,0.8
		C792,25.9,810.1,46.6,833.8,59c16.5,8.6,31.4,10.9,39.4,7C871,78.3,851.1,78.7,827.9,66.7"/>
	<path class="st0" d="M880.4,58.1c-1.4,13.9-22.9,14.7-47.8,1.6c-25-13-44.1-34.8-42.7-48.8c1.4-13.9,22.8-14.7,47.8-1.7
		C862.7,22.3,881.8,44.2,880.4,58.1"/>
	<path class="st41" d="M930.7,310.4c-10.9-53.8-3.3-107.1,17.1-119c3.6-2.1,7.4-2.7,11.2-2.1c-0.4,0.2-0.8,0.4-1.3,0.6
		c-20.3,11.9-28,65.2-17,119c9,44.2,27.7,75.1,45.4,78.1C966,396.8,941.4,363.1,930.7,310.4"/>
	<path class="st0" d="M956.8,188.1c20.3-11.9,45.7,22.2,56.7,75.9c10.9,53.8,3.3,107.1-17.1,119c-20.3,11.9-45.7-22.2-56.7-76
		C928.8,253.3,936.5,199.9,956.8,188.1"/>
	<path class="st42" d="M1071.9,486.3c2.7-20.4,12.8-37.6,22.4-38.5c2.5-0.2,4.8,0.7,6.7,2.6c-9.2,2.3-18.5,18.9-21.1,38.3
		c-2.1,14.9,0.4,27.4,5.7,32.7c-0.5,0.1-0.9,0.2-1.4,0.2C1074.7,522.5,1069.2,506.6,1071.9,486.3"/>
	<path class="st42" d="M1073.4,630.4c-8.2-4.5-4.1-20.2,9.1-35.1c13.3-14.8,30.7-23.3,38.9-18.8c1.7,0.9,2.8,2.4,3.5,4.1
		c-9-1.1-23.8,7-35.3,19.9c-10.5,11.8-15.2,24.1-12.6,31C1075.7,631.3,1074.4,631,1073.4,630.4"/>
	<path class="st43" d="M626.8,117l-0.2,0.8l-0.2,0.3l-0.3,0.5l-0.5,0.6l-1.1,0.8l-2.1,0.9l-2,0.5l-2,0.3l-2,0.1l-2,0l-3.7-0.4
		l-3.6-0.8l-3.5-1.1l-3.3-1.4l-3.2-1.7l-3-1.9l-2.8-2.2l-2.6-2.3l-2.4-2.5L584,105l-2.1-2.7l-1.8-2.8l-1.6-2.9l-1.4-3l-1.3-3
		l-1.1-3.1l-0.9-3.1l-0.7-3.1l-0.5-3.1l-0.3-3.1l-0.1-3.1v-3.1l0.2-3l0.4-3l0.6-2.9l0.8-2.8l1.2-2.7l1.7-2.6l1.2-1.2l0.8-0.6
		l0.6-0.2l0.4-0.1l1-0.1c2.8,0.1,4.8,3.9,5.9,5.9c0.3,0.6,0.6,1.3,0.9,1.9c0.6,1.2,1.1,2.5,1.6,3.8c1.2,3,2.4,6.1,3.6,9.1
		c2,5,4.1,9.9,6.7,14.6c2.7,5.1,6,9.8,10,14c1.7,1.9,3.5,3.6,5.4,5.2c1.4,1.2,2.8,2.4,4.2,3.6c2,1.7,4.3,3.6,5.8,5.7
		C626.2,114.2,627,115.5,626.8,117"/>
	<path class="st43" d="M760.2,138.3c0,0.1,0,0.2-0.1,0.4c-0.3,1.8-2.1,2.9-3.6,3.6c-0.6,0.3-1.3,0.6-2,0.8c-0.7,0.1-1.3,0.4-2,0.5
		c-0.3,0.1-0.6,0.1-1,0.2c-2.7,0.5-5.1,0.5-7.9,0.4c-2.6-0.1-5.2-0.5-7.7-1.2c-11.8-3.1-21.7-11-26.8-22.1
		c-4.9-10.5-5.1-22.8-0.8-33.5c1-2.5,2.2-5,3.8-7.2c0.3-0.5,0.7-1,1-1.5c1-1.2,2.2-2.5,3.3-3.5l0.9-0.8c0.3-0.2,0.7-0.4,1.1-0.6
		c0.3-0.2,1.3-0.9,1.6-1c1.4-0.5,2.8-0.9,4.2-0.3c0.2,0,0.3,0.1,0.5,0.2c1.3,0.8,1.8,2.4,2.1,3.8c0.5,2.9,0.5,5.9,0.5,8.9
		c-0.1,9.6,0.2,19,5.2,27.4c3,5.2,7.8,9.3,12.8,12.5c2.7,1.8,5.6,3.5,8.3,5.3c1.9,1.3,3.8,2.6,5.3,4.5
		C759.7,136,760.3,137.1,760.2,138.3"/>
	<path class="st2" d="M850,164.2c-19.1-20.4-27-46.3-11-66l-37,39.3L850,164.2z"/>
	<path class="st44" d="M789.1,264.5l42.9-15.4c4.2-15.8,10.2-31.7,9.7-47.5c-1.4-19.6-5.4-37.3-18.7-47.5
		c-13.6-10.3-30.3,1.3-18.4,16.6C819.5,209.3,807.9,235.5,789.1,264.5"/>
	<path class="st43" d="M815.4,138.9c-1.5,1-3.3,1-5,0.4c-0.5-0.2-1.2-0.3-1.7-0.6c-0.4-0.2-1-0.5-1.5-0.8c-2.1-1.2-4.3-3.4-5.9-5.3
		c-8.3-10.5-9.1-24.7-2.5-36.3c5.2-9.2,15.4-16.1,26.1-16.5c1.7-0.1,3.3,0,4.9,0.4l1,0.2c0.4,0.1,1,0.4,1.5,0.6
		c0.3,0.1,0.7,0.2,1,0.4c0.2,0.1,0.3,0.3,0.5,0.4c1,0.8,1.9,1.9,2.2,3.2c0.2,2-0.6,3.3-1.7,4.9c-1.2,1.7-2.5,3.1-3.9,4.6
		c-4.6,4.9-9.5,10-11.5,16.5c-1.2,3.7-1.5,7.5-1.3,11.4c0.1,2.7,0.3,5.5,0.3,8.3c0,1.3-0.1,2.5-0.3,3.7
		C817.3,136.3,816.9,137.7,815.4,138.9"/>
	<path class="st45" d="M279.8,119.1c-20,15.5-29.3,11.8-43.7-9.9c-12.2-20.2-7.4-27.4,8.5-40.2C257.3,64.1,281.9,101.5,279.8,119.1"
		/>
	<path class="st25" d="M1010.3,537.2c2-0.4,4-0.9,6-1.3c4.4-0.8,9-1.2,13.3-1.4c13.8-0.6,27.9,1.4,40.5,7c1.8,0.8,3.5,1.6,5.2,2.5
		c7,3.9,13.2,9,19.1,14.4c2.1,1.9,4.1,3.8,6.1,5.7c0.8,0.8,1.7,1.6,2.5,2.5c1.6,1.5,1.7,4,0.2,5.6c-1.5,1.6-4.1,1.7-5.7,0.2
		c-1-0.7-1.9-1.7-2.9-2.4c-1.8-1.4-3.7-2.7-5.7-3.8c-2.5-1.3-4.9-2.5-7.4-3.4c-1.1-0.4-2.3-0.7-3.4-1.1c-0.9-0.3-2.1-0.6-3-0.7
		c-1-0.2-2.1-0.4-3.1-0.5c-1.4-0.2-2.9-0.3-4.3-0.5c0.1,0,0.2,0,0.3,0.1c-5.9-0.4-11.9-0.3-17.7-0.2c-2.1,0-4.3,0.1-6.3,0.1
		c-1.1,0-2.2,0-3.3,0c-2.3,0-4.6,0.1-6.9,0.1c-6.4,0.1-12.8,0.3-19.2,0.9c-6.7,1.2-13-3.2-14.2-9.9
		C999.2,544.8,1003.7,538.4,1010.3,537.2"/>
	<path class="st46" d="M1049.8,603.8c-5.8-1.8-12.1-1.7-19.2,0c-12.2,2-29.4-5.7-31-21.6c1.6-4.2,3.4-9.7,12.8-11.4
		c19.6-3.1,38.5-2.9,56,3.8c5.2,2,13.1,9.3,7.2,17.5c-3.5,4.8-6.5,10.3-9.1,14.8C1064.8,610.1,1053.8,605,1049.8,603.8"/>
</g>
</svg>
