<svg width="304" height="152" viewBox="0 0 304 152" fill="none" xmlns="http://www.w3.org/2000/svg">
<path d="M303 152C303 111.952 287.091 73.5449 258.773 45.2269C230.455 16.9089 192.048 1 152 1C111.952 0.999997 73.5449 16.9089 45.2269 45.2269C16.9089 73.5449 1.00001 111.952 1 152L152 152H303Z" fill="#F0F0F0"/>
<path d="M303 152C303 111.952 287.091 73.5449 258.773 45.2269C230.455 16.9089 192.048 1 152 1C111.952 0.999997 73.5449 16.9089 45.2269 45.2269C16.9089 73.5449 1.00001 111.952 1 152" stroke="white" stroke-opacity="0.8" stroke-width="2"/>
<path d="M282 152C282 117.522 268.304 84.4559 243.924 60.0761C219.544 35.6964 186.478 22 152 22C117.522 22 84.4559 35.6964 60.0761 60.0761C35.6964 84.4558 22 117.522 22 152L152 152H282Z" fill="#EEEDED"/>
<path d="M282 152C282 117.522 268.304 84.4559 243.924 60.0761C219.544 35.6964 186.478 22 152 22C117.522 22 84.4559 35.6964 60.0761 60.0761C35.6964 84.4558 22 117.522 22 152" stroke="white" stroke-opacity="0.8" stroke-width="2"/>
</svg>
